<svg width="14" height="17" viewBox="0 0 14 17" fill="none" xmlns="http://www.w3.org/2000/svg">
<path id="Path 20" d="M11.8752 16.7395H2.04416C1.98316 16.7275 1.92216 16.7115 1.86016 16.7055C1.44783 16.6614 1.065 16.4708 0.781163 16.1685C0.605232 15.9867 0.467374 15.7716 0.375676 15.5359C0.283977 15.3001 0.240285 15.0484 0.247162 14.7955C0.247162 10.7195 0.247162 6.6435 0.247162 2.5675C0.247162 2.5205 0.247162 2.46751 0.247162 2.42551C0.254211 2.09345 0.350859 1.76947 0.526886 1.48783C0.702913 1.20619 0.951777 0.97735 1.24716 0.825508C1.5732 0.662338 1.9361 0.58686 2.30016 0.606506C5.40416 0.606506 8.50816 0.606506 11.6122 0.606506C11.7959 0.606966 11.9792 0.62302 12.1602 0.654502C12.588 0.733738 12.974 0.961684 13.2499 1.29803C13.5259 1.63438 13.674 2.05748 13.6682 2.49251C13.6682 6.61051 13.6682 10.7285 13.6682 14.8465C13.6738 15.3108 13.5047 15.7602 13.1944 16.1057C12.8842 16.4512 12.4554 16.6674 11.9932 16.7115C11.9518 16.7182 11.9109 16.7282 11.8712 16.7415M6.95616 5.99351C8.11683 5.99351 9.27716 5.99351 10.4372 5.99351C10.5316 5.99604 10.6261 5.989 10.7192 5.9725C10.9921 5.91728 11.2373 5.76886 11.4128 5.55267C11.5884 5.33647 11.6832 5.06597 11.6812 4.78751C11.6872 4.48751 11.6902 4.1875 11.6812 3.8875C11.677 3.73556 11.6555 3.58459 11.6172 3.43751C11.5526 3.2054 11.4149 3.00032 11.2244 2.85276C11.034 2.7052 10.801 2.62305 10.5602 2.61851C8.15483 2.61851 5.75016 2.61851 3.34616 2.61851C3.25715 2.61777 3.16852 2.63023 3.08316 2.6555C2.83156 2.72958 2.61142 2.88457 2.45684 3.09646C2.30226 3.30835 2.22189 3.5653 2.22816 3.82751C2.22816 4.13751 2.22816 4.44651 2.22816 4.75651C2.2257 4.92092 2.25642 5.08413 2.31848 5.2364C2.38054 5.38867 2.47267 5.52687 2.58936 5.64271C2.70605 5.75856 2.84491 5.84969 2.99762 5.91065C3.15033 5.97161 3.31377 6.00115 3.47816 5.9975C4.63816 5.9795 5.79816 5.99151 6.95816 5.99151M2.92116 13.5285C2.91187 13.6193 2.92913 13.7107 2.97085 13.7919C3.01256 13.873 3.07694 13.9403 3.15616 13.9855C3.2634 14.0495 3.38944 14.0745 3.51297 14.0563C3.63651 14.038 3.74997 13.9777 3.83416 13.8855C3.94716 13.7855 4.05016 13.6705 4.15916 13.5655C4.26816 13.4605 4.28616 13.4605 4.39116 13.5655C4.51616 13.6865 4.63316 13.8145 4.76116 13.9315C4.82217 13.9877 4.89589 14.0282 4.976 14.0497C5.0561 14.0711 5.14022 14.0728 5.22113 14.0546C5.30203 14.0364 5.37733 13.9989 5.44055 13.9452C5.50378 13.8916 5.55306 13.8234 5.58416 13.7465C5.62617 13.6463 5.63641 13.5356 5.61352 13.4294C5.59063 13.3232 5.53571 13.2265 5.45616 13.1525C5.36616 13.0525 5.26516 12.9575 5.16916 12.8605C5.02216 12.7115 5.02416 12.7075 5.16916 12.5605C5.30124 12.4334 5.42452 12.2974 5.53816 12.1535C5.61306 12.0497 5.64528 11.921 5.62816 11.7942C5.61104 11.6673 5.5459 11.5518 5.44616 11.4715C5.34599 11.3896 5.21907 11.3477 5.08983 11.3538C4.9606 11.3599 4.83818 11.4136 4.74616 11.5045C4.64616 11.6045 4.54616 11.7045 4.44616 11.8045C4.28316 11.9665 4.28416 11.9645 4.12316 11.8045C4.004 11.6793 3.87672 11.562 3.74216 11.4535C3.63886 11.3748 3.50997 11.3374 3.38059 11.3485C3.2512 11.3596 3.13057 11.4184 3.04216 11.5135C2.96077 11.6206 2.92019 11.7532 2.9277 11.8876C2.93522 12.0219 2.99033 12.1491 3.08316 12.2465C3.19316 12.3465 3.29216 12.4525 3.39516 12.5575C3.53616 12.6995 3.53716 12.7075 3.40016 12.8455C3.29283 12.9535 3.18549 13.0612 3.07816 13.1685C3.02834 13.2137 2.98907 13.2692 2.96315 13.3313C2.93722 13.3933 2.92528 13.4603 2.92816 13.5275M2.92816 8.66251C2.92085 8.73049 2.92866 8.79926 2.95102 8.86388C2.97339 8.9285 3.00976 8.98738 3.05754 9.0363C3.10531 9.08522 3.16331 9.12298 3.22738 9.14687C3.29146 9.17076 3.36002 9.1802 3.42816 9.17451C3.48116 9.17451 3.52816 9.17451 3.58616 9.17451C3.71416 9.18151 3.73616 9.20551 3.74416 9.33751C3.74411 9.4214 3.74913 9.50522 3.75916 9.58851C3.77894 9.71708 3.84656 9.83344 3.94847 9.91429C4.05038 9.99514 4.17907 10.0345 4.30878 10.0245C4.43848 10.0145 4.55962 9.95592 4.64796 9.86043C4.73629 9.76493 4.7853 9.63959 4.78516 9.50951C4.78516 9.44651 4.78516 9.3835 4.78516 9.3205C4.782 9.30088 4.78348 9.28078 4.7895 9.26183C4.79552 9.24288 4.8059 9.22561 4.81981 9.21141C4.83372 9.19721 4.85077 9.18647 4.86959 9.18006C4.88841 9.17365 4.90848 9.17175 4.92816 9.17451C5.00216 9.17451 5.07516 9.17451 5.14816 9.17451C5.21673 9.17087 5.28385 9.15337 5.34547 9.12306C5.40709 9.09276 5.46192 9.05028 5.50666 8.99818C5.55139 8.94609 5.5851 8.88546 5.60575 8.81998C5.6264 8.75449 5.63356 8.6855 5.6268 8.61716C5.62003 8.54883 5.59948 8.48258 5.56639 8.42242C5.5333 8.36225 5.48835 8.30941 5.43427 8.2671C5.38019 8.2248 5.31809 8.19389 5.25173 8.17625C5.18536 8.15862 5.11611 8.15462 5.04816 8.1645C4.78316 8.1645 4.78416 8.1645 4.78016 7.9045C4.7851 7.85738 4.7824 7.80977 4.77216 7.7635C4.7471 7.66854 4.70728 7.57811 4.65416 7.49551C4.58483 7.41432 4.49206 7.35659 4.38861 7.33025C4.28515 7.3039 4.17607 7.31022 4.07635 7.34836C3.97663 7.38649 3.89116 7.45456 3.83168 7.54322C3.77221 7.63188 3.74163 7.73677 3.74416 7.84351C3.74416 8.21151 3.70716 8.1585 3.40516 8.1655C3.33905 8.16133 3.27281 8.17152 3.211 8.19537C3.14919 8.21922 3.09328 8.25617 3.04711 8.30367C3.00093 8.35118 2.96559 8.40811 2.9435 8.47057C2.92142 8.53303 2.91311 8.59953 2.91916 8.6655M9.64516 14.0655C9.91216 14.0655 10.1802 14.0655 10.4452 14.0655C10.5235 14.0666 10.6014 14.0537 10.6752 14.0275C10.7838 13.985 10.8741 13.9059 10.9306 13.8038C10.987 13.7017 11.0059 13.5831 10.9842 13.4685C10.9723 13.3632 10.9261 13.2648 10.8527 13.1884C10.7793 13.1119 10.6829 13.0617 10.5782 13.0455C10.4535 13.0291 10.3278 13.0228 10.2022 13.0265C9.75616 13.0265 9.31016 13.0265 8.86416 13.0265C8.77733 13.0203 8.69024 13.0346 8.60998 13.0683C8.52971 13.102 8.45851 13.1541 8.40216 13.2205C8.33736 13.2941 8.29599 13.3854 8.28334 13.4827C8.27069 13.5799 8.28734 13.6788 8.33116 13.7665C8.36621 13.8557 8.42753 13.9322 8.50699 13.9857C8.58646 14.0393 8.68033 14.0675 8.77616 14.0665C9.06416 14.0735 9.35316 14.0665 9.64216 14.0665M9.66316 8.32951H8.81316C8.74458 8.32683 8.67617 8.33791 8.61194 8.36211C8.54772 8.3863 8.48898 8.4231 8.43921 8.47036C8.38944 8.51761 8.34964 8.57436 8.32215 8.63724C8.29466 8.70013 8.28004 8.76788 8.27916 8.8365C8.27835 8.97481 8.33204 9.10788 8.42862 9.20689C8.52519 9.30589 8.65688 9.36288 8.79516 9.36551C9.35616 9.37551 9.91816 9.37751 10.4782 9.36551C10.5461 9.3636 10.6129 9.34834 10.6749 9.3206C10.7369 9.29286 10.7928 9.25318 10.8395 9.20383C10.8862 9.15447 10.9226 9.09641 10.9469 9.03296C10.9711 8.9695 10.9826 8.9019 10.9807 8.83401C10.9788 8.76611 10.9635 8.69926 10.9358 8.63726C10.908 8.57526 10.8683 8.51934 10.819 8.47268C10.7696 8.42602 10.7116 8.38953 10.6481 8.36531C10.5847 8.34109 10.5171 8.3296 10.4492 8.3315C10.1872 8.3315 9.92516 8.3315 9.66316 8.3315M9.64616 11.3575C9.36816 11.3575 9.09016 11.3575 8.81216 11.3575C8.74356 11.3545 8.67507 11.3654 8.61078 11.3895C8.54649 11.4136 8.48771 11.4505 8.43796 11.4978C8.38821 11.5451 8.34851 11.602 8.32123 11.665C8.29394 11.728 8.27964 11.7958 8.27916 11.8645C8.27887 12.0027 8.33291 12.1355 8.42961 12.2343C8.52632 12.3331 8.65796 12.3899 8.79616 12.3925C9.35716 12.4025 9.91816 12.4045 10.4792 12.3925C10.5494 12.395 10.6194 12.3824 10.6843 12.3556C10.7493 12.3289 10.8078 12.2885 10.8559 12.2373C10.904 12.186 10.9406 12.1251 10.9633 12.0586C10.9859 11.9921 10.994 11.9214 10.9872 11.8515C10.9865 11.7829 10.9718 11.7152 10.9439 11.6526C10.916 11.5899 10.8756 11.5337 10.825 11.4874C10.7745 11.441 10.7149 11.4056 10.6501 11.3833C10.5853 11.3609 10.5165 11.3522 10.4482 11.3575C10.1812 11.3575 9.91316 11.3575 9.64816 11.3575" fill="#6F8FEA"/>
</svg>
