<?xml version="1.0" encoding="UTF-8"?>
<svg xmlns="http://www.w3.org/2000/svg" viewBox="0 0 86.33 38.68">
  <defs>
    <style>
      .cls-1 {
        isolation: isolate;
      }

      .cls-2 {
        mix-blend-mode: multiply;
        opacity: .1;
      }

      .cls-3 {
        fill: #6f8fea;
        stroke-width: 0px;
      }
    </style>
  </defs>
  <g class="cls-1">
    <g id="Layer_2" data-name="Layer 2">
      <g id="Item_Select" data-name="Item Select">
        <g>
          <path class="cls-3" d="m82.29,34.62c-5.38,5.41-72.88,5.41-78.26,0C-1.34,29.22-1.35,9.46,4.04,4.05c5.38-5.4,72.88-5.4,78.26,0,5.38,5.4,5.38,25.17,0,30.57Z"/>
          <g class="cls-2">
            <path class="cls-3" d="m72.02,37.29c1.55-.35,3.07-.55,4.61-.7,2.9-.55,4.9-1.2,5.66-1.97.58-.58,1.09-1.34,1.55-2.22-.07,0-.15.01-.22.01-.49.03-.99.05-1.49.07-.28.03-.56.06-.84.09-1.38.14-2.69.28-3.99.45-2.81.36-5.5.84-8.46,1.75-1.96.6-4.27,1.25-6.48,1.79-1,.24-1.98.47-2.9.65-1.09.22-1.89.36-2.56.42-1.65.15-2.5-.15-5.02-.78-1.61-.4-4.21-.65-5.89-.73-.45-.02-1.05-.04-1.73-.05-.64,0-1.36.01-2.09.06-.36.02-.73.06-1.09.1-.26.03-.52.07-.78.11-1.73.28-3.3.84-3.95,1.9-.07.11-.1.24-.14.35,12.81.25,26.62-.19,35.82-1.32Z"/>
            <polygon class="cls-3" points="32.63 28.38 32.64 28.37 32.63 28.38 32.63 28.38 32.63 28.38 32.63 28.38"/>
            <polygon class="cls-3" points="36.34 37.4 36.35 37.4 36.34 37.4 36.34 37.4 36.34 37.4 36.34 37.4"/>
            <path class="cls-3" d="m35.07,34.4l.45-.39c.24-.18.52-.34.82-.49,1.07-.51,2.47-.8,3.95-.93.26-.02.52-.04.78-.06.36-.02.73-.03,1.09-.04.71,0,1.41,0,2.09.04,1.25.07,2.41.19,3.3.33l.67.09c2.74.43,4.41,1.69,7.12,2.1.5,0,1.02-.02,1.55-.06,1.73-.14,3.61-.5,5.46-.94,1.95-.46,3.86-1.02,5.51-1.5,2.8-.91,5.51-1.52,8.41-2,.31-.05.66-.11,1.02-.17,1.25-.21,2.71-.44,3.75-.53.08,0,.16-.01.23-.02.79-.06,1.57-.11,2.33-.17.45-.03.9-.07,1.35-.1.38-1.24.68-2.61.9-4.05-.75.09-1.5.17-2.25.24-.77.07-1.55.13-2.33.2-.76.06-1.52.13-2.3.2-.57.11-1.13.22-1.68.33-3.78.79-7.12,1.79-10.89,3.07-1.08.36-2.5.77-4.05,1.11-1.77.4-3.7.71-5.46.8-1.53.08-2.92-.02-3.97-.39-3.02-1.05-4.1-2.85-7.82-3.73-.26-.06-.55-.12-.84-.18-.64-.12-1.34-.22-2.09-.3-.36-.04-.72-.06-1.09-.08-.26-.01-.52-.02-.78-.03-1.34-.03-2.71.06-3.95.33-1.34.29-2.52.8-3.34,1.61-.15.15-.27.31-.37.47-.14.24-.25.49-.32.76-.29,1.05-.09,2.31,0,3.46.05.56.07,1.09,0,1.56-.14.98-.68,1.69-2.22,1.77-.17,0-.34.01-.52.01-1.13,0-2.28-.19-3.43-.35-1.05-.14-2.1-.26-3.16-.17-.5.04-1,.13-1.5.27-.74.34-1.31.81-1.8,1.33,4.41.36,9.42.61,14.66.74-.03-.21-.06-.41-.08-.57-.16-1.48-.16-2.42.8-3.6Z"/>
            <path class="cls-3" d="m49.34,5.3c2.34,1.77,4.95,1.93,7.56,1.05.31-.1.62-.22.93-.36,1.68-.94,3.12-2.16,4.53-3.41.72-.64,1.43-1.28,2.15-1.89-1.17-.08-2.37-.16-3.6-.23-1.34,1.14-2.67,2.13-4.02,2.69-.23.1-.46.18-.69.25-3.44,1.02-6.57-.49-8.21-3.36-.52,0-1.03-.01-1.55-.02.12.95.32,1.87.64,2.76.65,1.01,1.28,1.79,2.25,2.52Z"/>
            <path class="cls-3" d="m56.9.74c.18-.07.35-.15.53-.23.11-.06.21-.14.32-.21-2.3-.1-4.67-.17-7.09-.22.08.07.16.14.25.21,1.9,1.44,3.95,1.28,5.99.46Z"/>
            <polygon class="cls-3" points="9.63 9.09 9.63 9.09 9.63 9.09 9.63 9.09 9.63 9.09 9.63 9.09"/>
            <polygon class="cls-3" points="83.62 8.95 83.62 8.95 83.62 8.95 83.62 8.95 83.62 8.95 83.62 8.95"/>
            <rect class="cls-3" x="22.99" y="16.29" width="0" height="0"/>
            <polygon class="cls-3" points="40.29 8.7 40.3 8.7 40.29 8.7 40.28 8.69 40.29 8.7 40.29 8.7"/>
            <path class="cls-3" d="m9.47,6.03c.06-.02.11-.03.16-.05.87-.25,1.65-.33,2.45-.31.44.01.88.06,1.34.13.18.03.37.06.57.1.76.14,1.54.36,2.33.57,1.73.47,3.52.95,5.17.61.69-.29,1.06-.51,1.49-.93.13-.12.26-.26.41-.43.99-1.08,1.84-2.47,2.75-3.83.35-.52.71-1.03,1.08-1.53-.96.05-1.91.1-2.84.15-.45.36-.92.68-1.4.9-.45.21-.91.35-1.37.39-1.45.14-2.84-.29-4.28-.75-4.91.48-8.87,1.12-11.23,1.92-1.06.84-2.1,1.77-3.14,2.66-.08.07-.17.14-.25.21-1.1,1.94-1.87,4.62-2.3,7.58.91-.63,1.74-1.38,2.55-2.19,1.96-1.98,3.81-4.21,6.5-5.21Z"/>
            <path class="cls-3" d="m47.24,9.28c2.74,2.69,6.16,3.59,9.66,2.84.75-.16,1.5-.39,2.25-.7,1.19-.61,2.22-1.3,3.21-2.03,1.22-.9,2.38-1.85,3.67-2.8,4.6-3.36,5.69-2.43,10.84-3.36.15-.03.29-.05.43-.08.65-.14,1.23-.32,1.79-.52-2.55-.68-6.34-1.24-10.88-1.65-2.19,1.25-3.98,2.95-5.85,4.51-1.23,1.03-2.5,2-3.95,2.74-.49.25-1,.45-1.52.61-3.16.94-6.71.08-9.1-2.22-1.52-1.46-1.9-2.57-2.32-4.64-.13-.65-.22-1.31-.29-1.98-.5,0-1,0-1.5,0,.21.64.39,1.29.57,1.94.68,2.53,1.27,5.1,2.98,7.34Z"/>
            <path class="cls-3" d="m2.96,22.49c.62-.28,1.04-.56,1.67-1.15,1.99-1.85,2.85-3.99,4.99-5.45.38-.26.81-.5,1.29-.71l.73-.21c.14-.03.29-.06.44-.08.43-.06.88-.08,1.34-.08.95.02,1.94.16,2.9.34.8.15,1.58.32,2.28.46,1.36.28,3.13.74,4.39.11.33-.16.63-.4.87-.74.88-1.2,1.43-3.83,2.29-5.65.08-.17.16-.32.24-.47.76-1.35,1.88-2.38,3.18-3.12.85-.48,1.78-.84,2.74-1.09.11-.03.21-.05.32-.08.34-.08.68-.14,1.02-.19.93-.14,1.83-.18,2.69-.1,1.36.12,2.65.55,3.92,1.37l.02.02.58.43c.07.05.13.11.2.17.39.34.75.71,1.09,1.11.76.88,1.42,1.89,2.09,2.94,1.23,1.92,2.46,3.94,4.27,5.48,2.56,1.78,5.46,2.32,8.37,1.99,1.38-.15,2.76-.5,4.11-1,.46-.21.91-.43,1.35-.67,3.04-1.62,5.91-3.8,8.92-4.97,1.76-.69,3.9-.85,6.02-1.08,1.37-.15,2.73-.33,3.99-.7.03,0,.06-.02.09-.03.82-.25,1.56-.57,2.25-.94.32-.17.61-.38.91-.57-.58-1.51-1.29-2.77-2.15-3.66-.15.1-.29.2-.45.29-.22.12-.43.23-.64.33-1.39.68-2.69,1.01-3.99,1.22-2.17.35-4.31.36-6.77,1.07-3.12,1.32-5.48,3.49-8.17,5.24-.77.5-1.57.97-2.41,1.37-.92.44-1.96.73-3.05.89-2.15.31-4.48.08-6.35-.65-3.65-1.43-4.99-3.84-6.29-7.05-.18-.45-.37-.93-.56-1.41-.5-1.29-.98-2.49-1.53-3.53-.33-.61-.69-1.17-1.09-1.65-.08-.09-.17-.16-.25-.25-3.5.02-6.96.09-10.3.22-.32.2-.64.4-.94.62-.15.11-.31.23-.46.36-1.44,1.27-2.24,2.53-2.97,3.84-.6,1.08-1.15,2.19-1.99,3.39-.42.6-.75,1.02-1.17,1.35-.33.26-.72.48-1.24.7-1.86.41-3.62-.09-5.43-.54-.24-.06-.49-.12-.73-.18-.8-.19-1.52-.32-2.17-.4-.48-.06-.93-.09-1.34-.1-.96-.02-1.75.11-2.45.36-2.22.79-3.51,2.83-6.24,5.59-.14.14-.28.28-.42.41-1.02.96-1.96,1.58-2.92,1.96-.07,1.79-.04,3.61.11,5.37.72,0,1.44-.05,2.15-.2.25-.09.46-.18.66-.27Z"/>
            <polygon class="cls-3" points="16.32 27.13 16.32 27.13 16.32 27.13 16.32 27.13 16.32 27.13 16.32 27.13"/>
            <polygon class="cls-3" points="29.57 19.27 29.58 19.27 29.57 19.27 29.57 19.27 29.57 19.27 29.57 19.27"/>
            <polygon class="cls-3" points="26.15 24.93 26.15 24.93 26.15 24.93 26.15 24.93 26.15 24.93 26.15 24.93"/>
            <path class="cls-3" d="m19.63,33.08c1.13-.34,2.24-.38,3.36-.3,1.05.07,2.1.25,3.16.39.19.02.37.05.56.07,1.4.16,2.3.2,2.86-.01.91-.34.98-1.3.91-3.38-.06-1.8-.12-3.03,1.02-4.51l.47-.44c.11-.09.22-.17.33-.25.1-.07.21-.14.32-.2,1.02-.6,2.32-.97,3.71-1.15,1.29-.17,2.65-.18,3.95-.09.26.02.52.04.78.07.38.04.74.09,1.09.15.7.11,1.36.26,1.93.43h0c.05.02.11.03.16.05,3.88,1.21,5.11,3.4,8.59,4.75,1.3.33,2.67.44,4.05.4,1.82-.06,3.68-.39,5.46-.83,1.07-.27,2.12-.57,3.11-.88,1.85-.66,3.7-1.32,5.57-1.93,1.59-.52,4.48-1.42,6.26-1.77.2-.04.39-.07.56-.09,1.2-.16,2.33-.27,3.43-.36.79-.07,1.56-.13,2.33-.2.85-.08,1.71-.18,2.58-.32.11-1.43.15-2.89.12-4.35-.91.26-1.81.45-2.7.6-.78.13-1.55.23-2.33.31-1.31.14-2.62.25-3.99.41-.46.05-.93.12-1.4.19-4.31,1.12-7.74,2.96-11.81,4.5-.54.2-1.12.39-1.73.56-1.68.46-3.59.78-5.46.85-1.86.07-3.68-.1-5.18-.62-3.17-1.09-4.66-3.72-7.46-5.61-.62-.42-1.31-.81-2.09-1.13-.35-.14-.71-.27-1.09-.39-.25-.08-.51-.14-.78-.21-.34-.08-.7-.15-1.07-.21-.83-.13-1.83-.2-2.87-.17-1.24.03-2.55.21-3.71.59-.11.04-.22.07-.32.11-1.14.43-2.13,1.08-2.74,2.04-.18.29-.33.6-.45.94-.64,1.97,0,5.56-1.51,6.6l-.21.13c-.4.15-.82.23-1.25.27-1.02.09-2.11-.06-3.16-.24-.55-.09-1.09-.2-1.59-.27-2.36-.35-3.8-.47-5.07.13-.94.44-1.79,1.27-2.84,2.69-.02.03-.04.05-.06.08-.48.65-.92,1.22-1.34,1.7-.8.91-1.54,1.52-2.45,1.85-1.05.39-2.32.42-4.16.13-.74-.12-1.48-.28-2.22-.47.25.35.51.67.78.95,1.18,1.19,5.37,2.12,11.24,2.78.38-.42.72-.86,1.04-1.31.82-1.12,1.64-2.26,3.31-3.02Z"/>
            <path class="cls-3" d="m7.2,30.96c.73-.25,1.02-.35,1.66-.83.28-.22.54-.45.77-.68.97-.98,1.6-2.12,2.45-3.15.39-.47.82-.92,1.34-1.32.39-.3.83-.57,1.34-.8l.66-.2c.29-.07.59-.11.9-.13,2.07-.16,4.69.48,6.67.75.05,0,.1.01.15.02,1.28.16,2.32.26,3.01-.28.38-.29.65-.78.82-1.55.54-2.54-.02-4.27,1.8-6.56l.51-.49c.1-.08.2-.16.3-.24.78-.58,1.72-1.01,2.74-1.29.11-.03.21-.06.32-.08,1.18-.29,2.45-.4,3.71-.36,1.39.05,2.75.28,3.95.65.27.08.53.18.78.27.1.04.2.08.29.12.28.13.55.27.8.41.79.44,1.47.93,2.09,1.44,2.13,1.78,3.55,3.92,6.26,5.6,2.05.93,4.21,1.24,6.38,1.13,1.84-.09,3.69-.48,5.46-1.03.26-.08.52-.16.78-.25,3.22-1.3,8.79-4.29,11.67-4.86.86-.17,1.69-.29,2.5-.38,1.36-.16,2.67-.25,3.99-.42.77-.1,1.54-.22,2.33-.4.81-.18,1.65-.43,2.52-.76-.15-1.58-.39-3.11-.72-4.53-.07.04-.13.09-.2.12l-.68.34c-.31.14-.61.26-.91.38-.79.3-1.57.52-2.33.69-1.33.3-2.65.44-3.99.58-1.39.15-2.81.31-4.32.64-3.93,1.31-6.96,3.69-10.62,5.32-.16.07-.33.14-.49.21-1.45.61-3.2,1-4.97,1.12-2.03.14-4.09-.07-5.8-.69-3.33-1.2-5-3.77-6.84-6.21-.65-.86-1.32-1.71-2.09-2.47-.34-.34-.71-.66-1.09-.96-.25-.19-.51-.37-.78-.54-.28-.18-.58-.34-.89-.5-.93-.45-1.97-.73-3.05-.83-1.22-.12-2.49-.03-3.71.25-.11.02-.21.05-.32.08-.98.26-1.91.63-2.74,1.13-.52.31-.99.66-1.42,1.05-1.4,1.63-1.65,3.03-2.01,4.62-.14.64-.31,1.31-.57,2.04-.39,1.07-.7,1.53-1.69,2.06-.3.09-.6.15-.9.19-1.69.21-3.45-.3-5.11-.61-.55-.1-1.07-.2-1.55-.27-1.1-.17-2.04-.24-2.9-.11-.46.07-.91.19-1.34.38-.82.36-1.6.98-2.45,1.94-.13.15-.27.31-.4.48-2.29,2.84-3.39,4.69-6.27,4.99-.69.07-1.48.05-2.41-.06.28,1.62.66,3.13,1.14,4.46.42.1.85.19,1.27.27,1.45.26,2.89.36,4.24.14Z"/>
            <polygon class="cls-3" points="42.16 17.82 42.17 17.82 42.16 17.82 42.16 17.82 42.16 17.82 42.16 17.82"/>
            <polygon class="cls-3" points="12.08 18.19 12.08 18.19 12.08 18.19 12.08 18.19 12.08 18.19 12.08 18.19"/>
          </g>
        </g>
      </g>
    </g>
  </g>
</svg>