<?xml version="1.0" encoding="UTF-8"?>
<svg id="Layer_2" data-name="Layer 2" xmlns="http://www.w3.org/2000/svg" viewBox="0 0 13.88 12.07">
  <defs>
    <style>
      .cls-1 {
        fill: #e8ecff;
        stroke-width: 0px;
      }
    </style>
  </defs>
  <g id="Add">
    <g>
      <path class="cls-1" d="m6.03,12.07c-.82,0-1.53-.69-1.51-1.51.02-.81.66-1.45,1.47-1.48.83-.03,1.57.75,1.5,1.5.05.74-.67,1.48-1.46,1.49Z"/>
      <path class="cls-1" d="m10.06,12.07c-.82,0-1.53-.69-1.51-1.51.02-.81.66-1.45,1.47-1.48.83-.03,1.57.75,1.5,1.5.05.74-.66,1.48-1.46,1.49Z"/>
      <path class="cls-1" d="m13.09,1.7c-.3-.16-.63-.19-.96-.19H2.95c-.09,0-.14-.05-.17-.13-.03-.11-.07-.21-.11-.32-.16-.49-.49-.81-.98-.97-.14-.05-.28-.08-.41-.08C.97,0,.67-.01.38.03c-.26.03-.38.22-.38.48,0,.24.14.4.39.46.09.02.18.03.28.03h.58c.24-.01.4.11.49.32.02.06.04.11.06.16.28,1.02.55,2.03.82,3.05.23.91.45,1.83.67,2.75.02.09.06.17.08.27.13.36.37.62.71.81.28.17.6.19.91.19,1.08.01,2.15,0,3.22,0s2.16.01,3.24,0c.19,0,.4-.01.61-.06.62-.16,1.01-.58,1.12-1.23.22-1.3.43-2.61.65-3.91.02-.11.05-.23.05-.34-.05-.57-.28-1.02-.79-1.31Zm-3.53,3.83h-1.03v1.05c-.01.29-.21.47-.52.47-.3-.01-.49-.19-.49-.48v-1.04h-.99c-.35,0-.54-.19-.52-.54.01-.27.19-.46.47-.46h1.04v-.99c0-.35.19-.54.54-.53.27.01.46.19.47.48v1.04h1.04c.3,0,.47.2.47.51-.01.3-.18.49-.48.49Z"/>
    </g>
  </g>
</svg>