<?xml version="1.0" encoding="UTF-8"?>
<svg id="Layer_2" data-name="Layer 2" xmlns="http://www.w3.org/2000/svg" viewBox="0 0 19.38 16.91">
  <defs>
    <style>
      .cls-1 {
        fill: #6f8fea;
        stroke-width: 0px;
      }
    </style>
  </defs>
  <g id="Item_Select" data-name="Item Select">
    <g>
      <path class="cls-1" d="m8.43,16.91c-.55,0-1.09-.21-1.48-.59-.4-.39-.62-.92-.63-1.47,0-.56.2-1.09.59-1.49.38-.4.91-.63,1.46-.63.28,0,.55.05.81.16.26.11.49.26.68.46.19.2.35.43.45.69.11.26.16.53.15.81,0,.55-.22,1.07-.6,1.45s-.9.61-1.44.63Z"/>
      <path class="cls-1" d="m14.06,16.91c-.55,0-1.09-.21-1.48-.59-.4-.39-.62-.92-.63-1.47,0-.56.2-1.09.59-1.49.39-.4.91-.63,1.47-.63.55,0,1.09.21,1.48.59.4.39.62.92.63,1.47,0,.56-.21,1.09-.59,1.49-.39.4-.91.63-1.47.63Z"/>
      <path class="cls-1" d="m19.07,3.15c-.19-.32-.46-.58-.79-.77-.42-.2-.88-.29-1.34-.26-4.18-.01-8.36-.02-12.55-.02h-.26c-.06.01-.11-.01-.15-.04-.04-.03-.07-.08-.09-.13-.04-.15-.1-.29-.15-.45-.1-.32-.27-.62-.51-.85-.24-.24-.54-.42-.86-.51-.19-.07-.39-.1-.58-.11C1.37,0,.95,0,.54.03c-.08.01-.16.04-.23.08-.07.04-.13.09-.18.15-.05.06-.09.14-.11.21-.02.08-.03.16-.02.24C0,.87.05,1.02.15,1.14c.11.12.25.2.4.22.13.02.26.03.39.03.27.01.54.01.81,0,.15-.01.3.03.42.11.12.09.22.21.27.35.03.07.06.15.08.23.38,1.42.77,2.83,1.14,4.26.33,1.29.63,2.57.94,3.86.04.13.09.24.12.37.17.5.52.91.98,1.15.39.2.83.3,1.27.27,1.5.01,3,0,4.51,0s3,.01,4.5,0c.29.01.58-.02.86-.08.4-.09.77-.31,1.06-.62.28-.31.46-.7.51-1.11.31-1.83.6-3.67.91-5.49.04-.16.06-.32.05-.48,0-.37-.11-.74-.3-1.06Zm-5.08,4.18c-.03.09-.08.17-.14.23-.07.07-.14.12-.23.15-.08.04-.18.05-.27.04h-4.22c-.11.02-.21,0-.31-.03-.09-.03-.18-.09-.25-.16-.07-.08-.12-.17-.16-.26-.03-.1-.03-.2-.02-.31,0-.08.02-.17.05-.25.03-.08.08-.15.14-.22.07-.06.14-.1.22-.14.08-.03.17-.04.26-.04h4.32c.09,0,.18.02.26.05.09.04.16.1.23.16.06.07.1.15.13.24.03.09.04.18.03.27.01.1-.01.19-.04.27Z"/>
    </g>
  </g>
</svg>