<svg width="14" height="15" viewBox="0 0 14 15" fill="none" xmlns="http://www.w3.org/2000/svg">
<path d="M9.72166 0.855621C9.75966 0.865621 9.79767 0.877621 9.83667 0.884621C9.98868 0.911228 10.1266 0.990188 10.2265 1.10781C10.3264 1.22543 10.382 1.3743 10.3837 1.52862C10.3837 1.89062 10.3767 2.25362 10.3837 2.61662C10.3858 2.7935 10.3185 2.96416 10.1963 3.092C10.074 3.21984 9.90651 3.29466 9.72972 3.30042C9.55292 3.30618 9.38092 3.24242 9.2506 3.1228C9.12028 3.00319 9.04205 2.83726 9.03267 2.66062C9.03267 2.58962 9.03267 2.51862 9.03267 2.44762C9.03267 2.24162 9.02567 2.23562 8.81267 2.23462H4.02167C3.96307 2.23922 3.9049 2.24824 3.84766 2.26162C3.88879 2.29949 3.93185 2.3352 3.97667 2.36862C4.74533 2.89729 5.515 3.42529 6.28567 3.95262C6.39258 4.0199 6.4798 4.11426 6.53846 4.22614C6.59712 4.33801 6.62513 4.46342 6.61967 4.58962C6.61267 6.48262 6.61967 8.37662 6.61967 10.2696C6.61967 10.5436 6.61966 10.5436 6.88966 10.5436H8.78966C8.82966 10.5436 8.86967 10.5436 8.90867 10.5436C9.00867 10.5366 9.03166 10.5156 9.03666 10.4146C9.04166 10.3136 9.03666 10.2376 9.03666 10.1486C9.03748 10.0013 9.08537 9.85806 9.17334 9.73987C9.26131 9.62167 9.38476 9.53469 9.52566 9.49162C9.67509 9.44608 9.83589 9.45552 9.97896 9.51825C10.122 9.58098 10.2379 9.69286 10.3057 9.83363C10.3526 9.94287 10.3791 10.0598 10.3837 10.1786C10.3937 10.5096 10.3897 10.8416 10.3837 11.1786C10.3891 11.2754 10.3739 11.3723 10.3392 11.4628C10.3045 11.5533 10.2509 11.6354 10.1821 11.7037C10.1134 11.772 10.0309 11.825 9.94011 11.8591C9.84937 11.8932 9.75242 11.9077 9.65567 11.9016C8.74433 11.9016 7.833 11.9016 6.92167 11.9016H6.78966C6.63366 11.9016 6.61667 11.9206 6.61667 12.0806C6.61667 12.6296 6.59967 13.1806 6.61667 13.7266C6.62096 13.8487 6.59207 13.9697 6.53306 14.0768C6.47406 14.1838 6.38716 14.2728 6.28159 14.3343C6.17603 14.3959 6.05575 14.4277 5.93356 14.4263C5.81137 14.425 5.69184 14.3905 5.58767 14.3266L3.61166 13.1846C2.87833 12.7626 2.14666 12.3406 1.41666 11.9186C1.25606 11.8431 1.11481 11.732 1.00367 11.5936C0.942289 11.5113 0.907405 11.4122 0.903662 11.3096C0.903662 11.2786 0.903662 11.2476 0.903662 11.2166C0.903662 8.00062 0.903662 4.78462 0.903662 1.56862C0.899464 1.4374 0.934028 1.30785 1.00303 1.19616C1.07204 1.08447 1.17243 0.995585 1.29166 0.94062C1.3813 0.904385 1.47447 0.877576 1.56966 0.860622L9.72166 0.855621Z" fill="#E8ECFF"/>
<path d="M11.0617 7.41162H9.61567C9.58038 7.40912 9.54496 7.40912 9.50967 7.41162C9.47562 7.41772 9.44216 7.42676 9.40967 7.43862C9.41963 7.47018 9.43339 7.5004 9.45067 7.52863C9.49567 7.58763 9.55067 7.64362 9.59567 7.70062C9.69737 7.80664 9.76206 7.94271 9.78008 8.08851C9.79811 8.23431 9.76849 8.38203 9.69566 8.50962C9.64543 8.60556 9.57216 8.68753 9.48242 8.74816C9.39269 8.80879 9.28929 8.84619 9.18153 8.85699C9.07378 8.8678 8.96502 8.85168 8.86503 8.81007C8.76504 8.76847 8.67695 8.70268 8.60867 8.61862C8.29267 8.27962 7.98667 7.93162 7.67767 7.58562C7.55667 7.45062 7.43866 7.31362 7.32066 7.17562C7.22182 7.05538 7.16728 6.90483 7.16619 6.74918C7.1651 6.59353 7.21752 6.44224 7.31467 6.32062C7.53867 6.07662 7.75567 5.82662 7.97567 5.57862C8.16367 5.36762 8.35867 5.16262 8.53667 4.94362C8.6444 4.79516 8.80514 4.69386 8.98555 4.66072C9.16596 4.62758 9.35221 4.66514 9.50567 4.76562C9.64384 4.86061 9.74075 5.00456 9.77677 5.16833C9.81279 5.33209 9.78523 5.50342 9.69967 5.64762C9.62364 5.75971 9.54152 5.86754 9.45367 5.97062C9.43757 5.9956 9.4232 6.02167 9.41067 6.04862C9.44092 6.06275 9.47238 6.07413 9.50467 6.08262C9.53526 6.08563 9.56607 6.08563 9.59667 6.08262H12.3037C12.3655 6.08481 12.4274 6.08146 12.4887 6.07262C12.6281 6.05846 12.7685 6.08887 12.8896 6.15948C13.0107 6.2301 13.1063 6.33727 13.1627 6.46562C13.2074 6.56794 13.2262 6.67976 13.2172 6.79108C13.2082 6.90241 13.1718 7.00977 13.1111 7.10358C13.0505 7.19738 12.9676 7.27471 12.8698 7.32864C12.772 7.38257 12.6623 7.41142 12.5507 7.41262C12.0507 7.39762 11.5597 7.41262 11.0647 7.41262" fill="#E8ECFF"/>
</svg>
