<svg width="360" height="413" viewBox="0 0 360 413" fill="none" xmlns="http://www.w3.org/2000/svg">
<path d="M359.998 0V297.286C311.079 338.975 251.85 366.743 188.515 377.684C125.18 388.625 60.0681 382.336 -0.00201416 359.475V0H359.998Z" fill="url(#paint0_linear_2_2116)"/>
<path d="M104.859 357.838C106.447 353.838 87.817 343.705 78.694 343.383C69.571 343.061 56.894 347.51 66.594 350.131L76.286 352.752C76.286 352.752 63.391 359.563 74.499 362.122C85.607 364.681 102.912 362.744 104.859 357.838Z" fill="#B1AF6E"/>
<path d="M105.154 345.762C102.494 347.274 88.212 331.246 77.028 337.526C65.844 343.806 95.171 353.726 97.563 353.518C99.955 353.31 105.154 345.762 105.154 345.762Z" fill="#7D8044"/>
<path opacity="0.12" d="M352.422 296.445C331.157 353.851 213.708 382.055 99.422 325.511C0.975044 276.803 10.668 205.111 92.438 116.619C131.008 74.876 185.367 59.624 209.063 54.792C214.404 53.6648 219.962 54.1938 224.995 56.3083C230.028 58.4228 234.296 62.0223 237.229 66.626C241.211 73.02 242.803 81.626 236.734 92.404C236.709 92.455 236.677 92.504 236.652 92.55C229.468 104.905 229.544 120.597 243.383 143.843C263.613 177.819 373.686 239.046 352.422 296.445Z" fill="url(#paint1_linear_2_2116)"/>
<path d="M336.072 269.7C336.42 268.21 340.384 255.562 342.354 255.831L345.268 256.263C345.268 256.263 338.905 264.855 338.203 267.383C337.501 269.911 336.072 269.7 336.072 269.7Z" fill="#382729"/>
<path d="M359.998 270.669V304.819C357.902 308.155 354.977 310.891 351.508 312.759C348.316 314.482 344.895 315.742 341.348 316.499C340.858 316.599 340.378 316.679 339.918 316.729C338.891 316.866 337.854 316.926 336.818 316.909C336.203 316.906 335.589 316.873 334.978 316.809C334.588 316.769 334.208 316.719 333.838 316.649C331.458 316.242 329.133 315.564 326.907 314.629C326.298 314.399 325.688 314.149 325.068 313.879C324.768 313.759 324.468 313.629 324.157 313.499C323.708 313.309 323.248 313.109 322.788 312.909C320.833 312.086 318.936 311.134 317.108 310.059C315.352 309.017 313.701 307.809 312.178 306.449C310.61 305.034 309.238 303.416 308.097 301.639C307.269 300.355 306.578 298.988 306.038 297.559C305.352 295.793 304.872 293.955 304.608 292.079C304.528 291.599 304.468 291.119 304.418 290.619C304.328 289.829 304.278 289.009 304.258 288.159C303.898 275.289 307.448 267.229 316.578 262.499C317.378 262.079 328.488 257.409 337.118 266.279C337.348 266.509 337.578 266.759 337.798 267.009C337.798 267.009 337.998 266.969 338.368 266.909C342.736 266.187 347.195 266.204 351.558 266.959C352.058 267.059 352.548 267.169 353.048 267.299C355.581 267.906 357.953 269.056 359.998 270.669Z" fill="#E85B55"/>
<path d="M359.998 270.669V304.819C357.902 308.155 354.977 310.891 351.508 312.759C348.316 314.482 344.895 315.742 341.348 316.499C340.858 316.599 340.378 316.679 339.918 316.729C338.891 316.866 337.854 316.926 336.818 316.909C336.203 316.906 335.589 316.873 334.978 316.809C334.588 316.769 334.208 316.719 333.838 316.649C331.458 316.242 329.133 315.564 326.907 314.629C326.298 314.399 325.688 314.149 325.068 313.879C324.768 313.759 324.468 313.629 324.157 313.499C323.708 313.309 323.248 313.109 322.788 312.909C320.833 312.086 318.936 311.134 317.108 310.059C315.352 309.017 313.701 307.809 312.178 306.449C310.61 305.034 309.238 303.416 308.097 301.639C307.269 300.355 306.578 298.988 306.038 297.559C305.352 295.793 304.872 293.955 304.608 292.079C304.528 291.599 304.468 291.119 304.418 290.619C305.768 291.379 307.308 292.229 308.978 293.109C312.597 295.029 316.858 297.139 321.198 298.969C327.558 301.659 334.108 303.739 339.108 303.749H339.218C341.076 303.823 342.92 303.388 344.548 302.489C354.248 296.519 356.328 275.819 351.558 266.959C352.058 267.059 352.548 267.169 353.048 267.299C355.581 267.906 357.953 269.056 359.998 270.669Z" fill="#E53131"/>
<path d="M338.203 267.383C338.172 266.891 336.11 266.621 333.597 266.783C331.084 266.945 329.073 267.468 329.104 267.96C329.135 268.452 331.197 268.722 333.71 268.56C336.223 268.398 338.234 267.874 338.203 267.383Z" fill="#E53131"/>
<path d="M325.535 265.814C325.561 266.225 324.125 266.65 322.327 266.763C320.529 266.876 319.051 266.636 319.027 266.225C319.003 265.814 320.438 265.389 322.235 265.275C324.032 265.161 325.51 265.403 325.535 265.814Z" fill="white"/>
<path d="M319.362 269.409C319.421 270.347 318.011 271.199 316.214 271.309C314.417 271.419 312.914 270.754 312.851 269.817C312.788 268.88 314.202 268.027 315.999 267.917C317.796 267.807 319.298 268.476 319.362 269.409Z" fill="white"/>
<path d="M131.215 118.285L115.931 143.5C115.931 143.5 107.04 129.894 101.344 121.885C95.648 113.876 94.766 110.74 94.766 110.74C94.766 110.74 98.528 103.112 95.71 98.703C92.892 94.294 90.964 91.462 90.961 92.95C90.958 94.438 93.39 96.615 92.897 98.717C92.404 100.819 89.109 102.537 89.109 102.537L80.389 102.162C80.389 102.162 85.726 110.434 88.264 114.021C90.802 117.608 105.956 150.273 109.787 154.021C115.952 160.05 130.824 151.742 142.553 125.762C154.282 99.782 131.215 118.285 131.215 118.285Z" fill="url(#paint2_linear_2_2116)"/>
<path d="M205.498 278.768C206.241 278.858 308.823 285.558 339.889 304.197C339.889 304.197 332.989 321.825 327.774 323.068C322.559 324.311 274.341 331.021 263.654 327.045C252.967 323.069 231.594 323.317 231.594 317.103C231.594 310.889 204.256 278.768 204.256 278.768C204.256 278.768 203.748 278.556 205.498 278.768Z" fill="#FFA459"/>
<path d="M87.017 289.572C87.017 289.572 86.293 282.904 109.406 280.481C132.519 278.058 124.695 300.052 119.66 300.052C114.625 300.052 101.544 302.852 96.435 299.307C91.326 295.762 87.017 289.572 87.017 289.572Z" fill="#FFA459"/>
<path d="M236.536 200.279H130.843C116.655 200.279 105.154 211.78 105.154 225.968V336.433C105.154 350.621 116.655 362.122 130.843 362.122H236.536C250.724 362.122 262.225 350.621 262.225 336.433V225.968C262.225 211.78 250.724 200.279 236.536 200.279Z" fill="#6F9EAB"/>
<path d="M258.881 338.088V224.312C258.881 212.886 249.618 203.623 238.192 203.623H129.188C117.762 203.623 108.499 212.886 108.499 224.312V338.088C108.499 349.514 117.762 358.777 129.188 358.777H238.192C249.618 358.777 258.881 349.514 258.881 338.088Z" fill="#84B5C0"/>
<path d="M106.378 237.755C108.499 236.611 116.114 218.687 141.636 203.112C143.322 202.083 205.004 251.04 229.021 203.623C229.021 203.623 212.314 200.279 210.221 200.279C208.128 200.279 183.333 203.122 181.767 201.854C180.201 200.586 127.467 201.854 127.467 201.854C127.467 201.854 109.598 202.247 110.048 203.113C110.498 203.979 106.378 237.755 106.378 237.755Z" fill="#6F9EAB"/>
<path d="M99.424 332.609C102.124 335.442 204.647 375.625 259.802 280.024L99.424 332.609Z" fill="#6F9EAB"/>
<path d="M151.665 246.543V243.358C151.665 228.358 166.921 216.158 185.674 216.158C204.427 216.158 219.674 228.358 219.674 243.358V246.543H151.665Z" fill="#6F9EAB"/>
<path d="M216.49 243.356H154.849C154.863 239.787 155.854 236.289 157.715 233.243C157.893 232.931 158.084 232.632 158.288 232.333C159.444 230.609 160.811 229.036 162.358 227.652C162.619 227.416 162.893 227.18 163.173 226.952C164.908 225.512 166.801 224.272 168.815 223.258C169.127 223.093 169.452 222.94 169.777 222.787C172.124 221.689 174.584 220.851 177.113 220.287C177.464 220.211 177.813 220.141 178.164 220.071C180.408 219.633 182.686 219.394 184.972 219.357C185.208 219.351 185.437 219.351 185.672 219.351H186.041C188.564 219.374 191.079 219.641 193.55 220.151C193.9 220.221 194.25 220.297 194.6 220.38C197.144 220.971 199.613 221.845 201.962 222.985C202.287 223.138 202.605 223.297 202.918 223.463C204.921 224.511 206.8 225.782 208.518 227.252C208.792 227.481 209.059 227.723 209.318 227.965C210.843 229.37 212.183 230.965 213.304 232.71V232.716C213.496 233.022 213.687 233.328 213.859 233.646C215.57 236.597 216.477 239.945 216.49 243.356Z" fill="white"/>
<path d="M292.365 356.046C319.416 356.046 341.346 351.9 341.346 346.786C341.346 341.672 319.416 337.526 292.365 337.526C265.314 337.526 243.384 341.672 243.384 346.786C243.384 351.9 265.314 356.046 292.365 356.046Z" fill="#FAC07C"/>
<path d="M302.656 213.566L301.764 255.503C301.764 255.503 282.364 253.618 256.815 286.008C251.251 292.654 244.867 298.568 237.815 303.608C213.787 319.943 167.022 351.684 92.44 333.298C91.1259 332.972 89.9565 332.22 89.1136 331.161C88.2707 330.101 87.8015 328.793 87.779 327.439L87.021 289.572C90.0506 291.439 93.278 292.964 96.644 294.119C97.23 294.336 97.844 294.552 98.491 294.762C100.223 295.342 102.146 295.915 104.254 296.444C104.854 296.59 105.47 296.737 106.101 296.877C107.668 297.233 109.323 297.558 111.068 297.838C111.673 297.938 112.285 298.038 112.915 298.125C115.036 298.425 117.284 298.666 119.647 298.819C120.247 298.864 120.863 298.902 121.487 298.927C123.85 299.042 126.327 299.074 128.919 299.004C129.786 298.985 130.664 298.946 131.556 298.904C134.046 298.776 136.632 298.554 139.313 298.222C139.924 298.152 140.536 298.07 141.16 297.98C143.325 297.681 145.549 297.306 147.834 296.853C148.439 296.732 149.057 296.605 149.674 296.471C151.827 296.013 154.031 295.482 156.285 294.879C156.896 294.713 157.508 294.541 158.126 294.369C160.348 293.739 162.615 293.03 164.926 292.242C165.538 292.042 166.149 291.828 166.767 291.605C169.123 290.778 171.528 289.859 173.982 288.848C174.594 288.6 175.211 288.348 175.829 288.077C178.103 287.116 180.417 286.071 182.771 284.944C183.382 284.657 183.994 284.358 184.611 284.059C187.025 282.868 189.477 281.601 191.967 280.238C192.578 279.906 193.19 279.563 193.807 279.219C196.266 277.843 198.758 276.376 201.284 274.819C201.895 274.444 202.513 274.061 203.131 273.673C205.672 272.073 208.252 270.379 210.869 268.591C211.487 268.177 212.098 267.75 212.716 267.317C215.008 265.717 217.324 264.044 219.664 262.299C220.275 261.847 220.893 261.382 221.511 260.917C223.663 259.274 225.839 257.567 228.038 255.797C228.65 255.306 229.267 254.809 229.885 254.297C232.146 252.444 234.431 250.52 236.738 248.527C237.349 247.998 237.967 247.457 238.585 246.916C240.928 244.849 243.295 242.709 245.685 240.496C246.296 239.93 246.914 239.35 247.525 238.77C249.977 236.465 252.45 234.077 254.944 231.606C254.944 231.606 255.044 231.498 255.25 231.294C255.588 230.963 256.199 230.383 257.097 229.619C259.475 227.63 262.009 225.837 264.676 224.257C265.261 223.906 265.876 223.55 266.522 223.193C268.638 222.02 270.813 220.955 273.037 220.002C273.637 219.748 274.254 219.493 274.884 219.244C277.326 218.275 279.815 217.432 282.342 216.716C282.947 216.544 283.558 216.379 284.189 216.216C286.884 215.518 289.613 214.959 292.366 214.541C292.966 214.441 293.589 214.357 294.213 214.274C296.886 213.929 299.698 213.681 302.656 213.566Z" fill="#FAC07C"/>
<path d="M341.345 306.448H243.384V346.786H341.345V306.448Z" fill="#FAC07C"/>
<path d="M292.365 315.708C319.416 315.708 341.346 311.562 341.346 306.448C341.346 301.334 319.416 297.188 292.365 297.188C265.314 297.188 243.384 301.334 243.384 306.448C243.384 311.562 265.314 315.708 292.365 315.708Z" fill="#FFF4EF"/>
<path d="M294.87 311.794C311.547 311.794 325.066 309.4 325.066 306.447C325.066 303.494 311.547 301.1 294.87 301.1C278.193 301.1 264.674 303.494 264.674 306.447C264.674 309.4 278.193 311.794 294.87 311.794Z" fill="#DEB9B0"/>
<path d="M198.482 109.501C198.482 109.501 209.874 151.651 212.67 155.953C215.466 160.255 232.241 194.703 236.156 195.932C240.071 197.161 255.536 196.27 258.881 207.9C258.881 207.9 257.84 207.166 254.857 204.742C251.874 202.318 246.412 200.292 246.412 200.292C246.412 200.292 251.005 205.798 250.384 206.543C249.763 207.288 249.884 207.663 246.904 204.743C243.924 201.823 237.088 200.28 235.596 200.28C234.104 200.28 223.667 195.609 215.963 183.804C208.259 171.999 199.563 154.975 194.838 147.146C190.113 139.317 182.411 118.938 182.411 118.938L198.482 109.501Z" fill="url(#paint3_linear_2_2116)"/>
<path d="M174.027 87.983C174.027 87.983 173.967 88.037 173.851 88.138C173.844 88.085 173.885 88.031 174.027 87.983Z" fill="#A5BAB2"/>
<path d="M166.559 79.132C167.122 79.879 168.659 80.452 169.879 77.079C171.099 73.706 174.803 65.221 175.145 62.445C175.487 59.669 167.801 59.539 167.029 59.663C166.257 59.787 164.213 61.447 164.179 62.233C164.145 63.019 164.749 76.73 166.559 79.132Z" fill="#382729"/>
<path d="M202.784 114.389C197.173 119.216 190.779 121.566 189.862 121.439C189.073 121.324 187.608 143.36 187.353 147.346V147.365C187.321 147.754 187.309 147.965 187.309 147.965C187.309 147.965 186.353 148.608 185.109 149.423C183.039 150.761 180.154 152.557 179.422 152.633C178.301 152.761 153.738 163.046 150.541 155.888C150.383 155.55 150.279 155.189 150.235 154.818C150.222 154.709 150.203 154.601 150.19 154.493V154.48C148.936 145.43 147.032 137.056 144.803 133.18C143.486 131.019 142.747 128.557 142.656 126.028C142.656 126.028 142.682 127.741 139.542 127.537C132.242 127.072 127.022 121.856 127.022 121.856C127.022 121.856 134.753 107.629 136.995 105.171C138.346 103.746 139.874 102.501 141.542 101.464C144.004 99.8815 146.649 98.6054 149.42 97.664C151.133 97.0784 152.887 96.6188 154.667 96.289C155.962 96.039 157.27 95.8561 158.584 95.741L173.856 93.641C173.856 93.641 174.034 93.61 174.365 93.565C176.081 93.3354 177.814 93.2587 179.543 93.336C184.098 93.4276 188.536 94.7981 192.35 97.291C200.434 102.9 202.784 114.389 202.784 114.389Z" fill="#652C42"/>
<path d="M44.778 245.799C44.778 245.799 37.724 246.866 37.145 249.574C36.566 252.282 47.922 255.44 55.852 253.165C63.782 250.89 69.598 240.234 72.334 239.294C75.07 238.354 79.265 237.262 75.583 232.287C75.583 232.287 70.851 230.542 69.407 231.819C67.963 233.096 63.827 236.025 61.733 238.314C59.639 240.603 53.485 245.989 52.679 246.666C51.873 247.343 44.778 245.799 44.778 245.799Z" fill="#2E1030"/>
<path d="M112.25 184.162C111.462 185.701 113.04 182.624 109.112 192.401C108.719 193.352 108.246 194.267 107.696 195.136C101.885 204.491 85.874 215.816 79.942 221.863C73.418 228.51 75.583 232.287 75.583 232.287L72.019 233.426C68.458 234.563 59.295 245.535 54.433 248.847C49.571 252.159 44.448 245.716 44.448 245.716C44.5535 245.759 44.6646 245.787 44.778 245.799C45.839 245.937 49.408 245.452 54.638 234.96C60.938 222.317 67.838 217.56 72.574 210.442C77.31 203.324 84.274 189.68 89.137 182.011C89.908 180.797 90.656 179.599 91.371 178.438C91.471 178.268 91.581 178.099 91.685 177.93C95.326 172.005 98.012 167.257 98.012 167.257C106.412 148.296 121.554 170.521 123.934 173.972C126.314 177.423 125.569 185.572 125.569 185.572C125.569 185.572 113.04 182.624 112.25 184.162Z" fill="url(#paint4_linear_2_2116)"/>
<path d="M79.033 277.423C79.033 277.423 72.781 280.86 73.173 283.601C73.565 286.342 85.312 285.385 91.973 280.512C98.634 275.639 100.409 263.63 102.652 261.803C104.895 259.976 108.452 257.503 103.281 254.103C103.281 254.103 98.238 254.103 97.324 255.797C96.41 257.491 93.539 261.67 92.364 264.542C91.189 267.414 87.274 274.592 86.752 275.506C86.23 276.42 79.033 277.423 79.033 277.423Z" fill="#2E1030"/>
<path d="M121.073 196.279C120.865 197.996 121.283 194.563 120.973 205.095C120.933 206.123 120.805 207.145 120.589 208.151C118.365 218.937 107.249 235.094 103.77 242.817C99.943 251.308 103.278 254.105 103.278 254.105L100.327 256.405C97.378 258.705 92.567 272.164 89.148 276.951C85.729 281.738 78.695 277.46 78.695 277.46C78.8091 277.464 78.9233 277.452 79.034 277.424C80.077 277.186 83.259 275.499 84.545 263.846C86.092 249.806 90.929 242.956 92.912 234.646C94.895 226.336 96.724 211.12 98.64 202.246C98.94 200.841 99.232 199.457 99.502 198.122C99.542 197.922 99.583 197.731 99.622 197.536C100.993 190.718 101.874 185.336 101.874 185.336C103.208 164.642 125.096 180.271 128.52 182.687C131.944 185.103 134.062 193.015 134.062 193.015C134.062 193.015 121.283 194.563 121.073 196.279Z" fill="url(#paint5_linear_2_2116)"/>
<path d="M120.972 205.095C120.932 206.123 120.804 207.145 120.588 208.151C110.722 208.518 101.604 200.183 99.501 198.117C99.201 197.827 99.047 197.659 99.047 197.659C98.927 197.664 99.147 197.617 99.621 197.531C103.13 196.906 120.694 194.29 121.073 196.279C120.865 197.996 121.283 194.563 120.972 205.095Z" fill="#F96E3E"/>
<path d="M121.741 203.085H121.685C110.879 203.391 103.749 201.008 99.047 197.657C97.2544 196.389 95.669 194.852 94.347 193.099C92.2844 190.319 90.9005 187.095 90.306 183.684C90.0531 182.365 89.9414 181.022 89.973 179.679L92.249 178.543C92.249 178.543 93.887 179.616 95.392 180.678C96.106 181.178 96.792 181.685 97.253 182.068C97.414 182.203 97.547 182.321 97.653 182.421C98.649 183.423 121.741 203.085 121.741 203.085Z" fill="#FFAF59"/>
<path d="M192.029 205.209C190.324 206.447 188.36 207.284 186.286 207.656H186.265C185.417 207.819 184.555 207.902 183.691 207.903C183.433 207.903 183.177 207.898 182.919 207.886C181.083 207.806 178.912 207.709 176.366 207.594C170.706 206.585 165.185 204.913 159.917 202.611C141.503 194.977 122.104 181.729 116.731 179.948C109.686 177.611 100.039 176.548 97.031 182.468C96.75 183.174 96.5625 183.914 96.473 184.668C96.327 185.568 96.209 186.59 96.128 187.568C95.828 187.518 95.537 187.459 95.251 187.385C88.369 185.664 89.976 179.678 89.976 179.678C95.883 167.885 102.25 156.745 104.276 156.01C107.552 154.823 132.076 157.91 144.882 161.25C146.207 161.597 147.409 161.95 148.446 162.295C148.583 162.34 148.714 162.384 148.846 162.43C149.512 162.662 150.101 162.893 150.607 163.122C150.607 163.122 150.13 153.807 151.23 149.196C151.362 148.529 151.604 147.889 151.948 147.302C151.948 147.302 155.001 147.592 159.163 147.731C167.24 148 179.485 147.696 181.649 143.577C181.72 143.446 181.78 143.31 181.828 143.169C181.828 143.169 181.893 143.287 182.013 143.511C182.603 144.6 184.54 148.205 186.883 152.943C191.595 162.463 197.959 176.549 198.383 183.961C198.787 191.173 198.265 200.59 192.029 205.209Z" fill="#FFAF59"/>
<path d="M148.136 50.595L148.046 51.347L147.894 52.665L147.811 53.3651L147.664 54.613L146.398 65.536C146.398 65.536 145.64 66.936 144.647 68.58C144.589 68.68 144.519 68.79 144.456 68.899C144.437 68.931 144.417 68.962 144.392 68.999C144.367 69.036 144.354 69.069 144.328 69.107C144.302 69.145 144.284 69.177 144.265 69.215C144.065 69.546 143.851 69.884 143.634 70.215C142.897 71.5399 141.952 72.7375 140.834 73.762C140.643 73.877 140.484 73.909 140.363 73.832C140.258 73.7556 140.164 73.6659 140.082 73.565C138.663 71.5406 137.673 69.2477 137.172 66.827C136.07 62.3961 136.233 57.7448 137.643 53.402C137.866 52.727 138.102 52.102 138.357 51.523C138.363 51.517 138.363 51.517 138.363 51.511C138.382 51.466 138.408 51.421 138.427 51.377C139.102 51.313 139.993 51.237 141.05 51.147C141.433 51.116 141.84 51.084 142.267 51.047C142.725 51.009 143.216 50.971 143.719 50.926C144.222 50.881 144.77 50.85 145.319 50.805C145.491 50.792 145.67 50.773 145.848 50.76C146.09 50.741 146.332 50.722 146.58 50.709C146.708 50.697 146.841 50.684 146.975 50.678C147.352 50.653 147.741 50.627 148.136 50.595Z" fill="#382729"/>
<path d="M176.278 96.672C176.078 97.398 170.693 102.741 170.693 102.741C161.306 105.651 156.542 102.958 154.393 100.799C153.774 100.205 153.261 99.5095 152.877 98.742C153.531 97.9697 154.127 97.1502 154.66 96.29C155.273 95.3574 155.726 94.3284 155.998 93.246L156.004 93.239C156.035 93.0942 156.056 92.9476 156.068 92.8C156.137 92.3275 156.082 91.845 155.909 91.4C155.897 91.3794 155.886 91.358 155.877 91.336C155.367 90.228 154.577 88.662 153.839 87.222C153.813 87.178 153.794 87.1331 153.769 87.0891C153.559 86.6811 153.355 86.289 153.169 85.917C152.969 85.517 152.769 85.146 152.602 84.817C152.202 84.053 151.94 83.556 151.94 83.556L157.085 78.684L157.086 78.6815L157.087 78.6794L157.089 78.6782L157.092 78.678L165.033 71.163L165.224 70.985C165.224 71.131 165.224 71.278 165.231 71.431C165.237 71.749 165.25 72.074 165.275 72.399C165.314 73.0023 165.385 73.603 165.486 74.199V74.205C165.543 74.593 165.613 74.982 165.702 75.37V75.377C166.707 79.5867 168.332 83.6237 170.523 87.356C171.899 89.808 173.293 91.948 174.363 93.556C175.111 94.5233 175.753 95.5679 176.278 96.672Z" fill="url(#paint6_linear_2_2116)"/>
<path d="M165.611 73.681C165.573 73.853 165.528 74.032 165.484 74.204V74.21C165.426 74.427 165.363 74.637 165.284 74.847C164.036 78.572 160.692 82.26 157.4 84.616C156.5 85.259 155.407 86.132 154.177 86.858C154.044 86.941 153.904 87.017 153.77 87.094C153.42 87.285 153.057 87.469 152.687 87.628C152.684 87.6276 152.68 87.628 152.677 87.6292C152.673 87.6304 152.67 87.6324 152.668 87.635C149.153 89.112 144.962 88.482 141.619 78.522C141.485 78.133 141.364 77.738 141.249 77.35C140.886 76.159 140.593 74.987 140.358 73.834C140.339 73.758 140.326 73.681 140.313 73.611C140.052 72.325 139.874 71.077 139.746 69.86C139.59 68.3476 139.523 66.8273 139.546 65.307C139.539 65.071 139.546 64.836 139.552 64.607C139.552 64.544 139.558 64.48 139.558 64.423C139.613 62.7294 139.771 61.0406 140.03 59.366C140.341 57.3085 140.816 55.279 141.45 53.297C141.55 52.985 141.65 52.697 141.736 52.437C141.747 52.3934 141.762 52.3509 141.781 52.31C141.981 51.73 142.157 51.31 142.265 51.055C142.335 50.877 142.38 50.787 142.38 50.787C142.68 50.45 142.972 50.125 143.265 49.82C143.309 49.808 143.353 49.7993 143.398 49.794C143.965 49.694 144.57 49.594 145.207 49.488C147.277 49.164 149.707 48.871 152.346 48.629C153.232 48.546 154.146 48.476 155.066 48.406C156.266 48.323 157.447 48.246 158.587 48.196C158.602 48.1972 158.618 48.1948 158.632 48.189C159.026 48.6874 159.393 49.2061 159.732 49.743C160.102 50.329 160.452 50.953 160.783 51.603C160.802 51.641 160.821 51.685 160.847 51.73C161.025 52.0867 161.197 52.4497 161.363 52.819C161.763 53.698 162.133 54.619 162.471 55.558C163.207 57.6303 163.813 59.7464 164.286 61.894V61.901C164.375 62.27 164.451 62.633 164.528 62.996C164.605 63.359 164.681 63.741 164.744 64.104V64.111H164.751C164.751 64.123 164.757 64.136 164.757 64.149C165.248 66.6497 165.561 69.1821 165.693 71.7271C165.697 71.7843 165.697 71.8418 165.693 71.899C165.729 72.4943 165.701 73.0916 165.611 73.681Z" fill="url(#paint7_linear_2_2116)"/>
<path d="M164.179 66.283C164.256 65.3442 164.549 64.4359 165.035 63.629C165.728 62.771 161.782 62.641 161.935 62.599C162.088 62.557 162.827 65.259 164.179 66.283Z" fill="#F96E3E"/>
<path d="M175.145 62.445C175.145 62.445 174.369 63.852 166.802 64.271C162.302 64.52 155.102 60.0331 150.009 56.3531C149.163 55.7431 148.376 55.153 147.667 54.614L147.38 54.396C147.064 54.1534 146.767 53.9221 146.489 53.7021C144.969 52.5101 144.035 51.713 144.035 51.713C143.837 51.5019 143.724 51.2253 143.717 50.9361C144.229 50.8951 144.764 50.8541 145.317 50.8091L148.136 50.5921L150.073 50.4461C157.811 49.8631 166.673 49.2461 169.708 49.1371C170.482 49.1081 171.208 49.0961 171.874 49.0981H172.036C172.85 50.0627 173.533 51.131 174.067 52.2751C175.49 55.4666 175.867 59.0262 175.145 62.445Z" fill="#382729"/>
<path d="M139.498 60.457C139.498 60.457 141.437 55.357 146.489 53.703C146.922 53.5608 147.364 53.4482 147.812 53.366C148.387 53.2602 148.97 53.2013 149.554 53.19C152.893 53.119 152.019 51.831 150.072 50.445L148.134 50.592C146.566 50.712 145.072 50.828 143.717 50.936C142.749 51.013 141.851 51.085 141.048 51.152C139.625 53.809 138.406 57.33 139.498 60.457Z" fill="#382729"/>
<path d="M147.805 63.8031C147.805 63.8031 152.391 61.2171 155.237 62.3321L156.743 63.732C155.729 63.3853 154.66 63.229 153.59 63.271C152.507 63.489 147.871 66.3011 147.805 63.8031Z" fill="#2A0610"/>
<path d="M156.743 68.696C155.517 69.7128 154.074 70.4355 152.525 70.809C152.337 70.849 152.147 70.884 151.952 70.909C151.449 70.999 150.932 70.9428 150.46 70.747C150.088 70.532 149.78 70.2233 149.565 69.8516C149.351 69.4799 149.237 69.0583 149.237 68.629C149.237 68.629 149.537 68.561 150.009 68.471C150.572 68.365 151.371 68.23 152.178 68.145C152.587 68.105 152.997 68.076 153.378 68.07C154.528 68.0779 155.667 68.2899 156.743 68.696Z" fill="white"/>
<path d="M152.724 70.809C152.524 70.849 152.324 70.884 152.119 70.909C151.589 70.9992 151.045 70.9432 150.544 70.747C150.346 70.4753 150.199 70.1706 150.108 69.847C150.05 69.641 150.017 69.4289 150.008 69.215C149.991 68.9658 150.013 68.7155 150.073 68.473C150.104 68.3529 150.147 68.236 150.2 68.124C150.656 67.8885 151.132 67.6944 151.622 67.544C151.917 67.6758 152.172 67.8827 152.362 68.144C152.413 68.2072 152.46 68.274 152.501 68.344C152.644 68.5713 152.753 68.8187 152.823 69.078C153.002 69.6478 152.967 70.2634 152.724 70.809Z" fill="#382729"/>
<path d="M144.849 69.198C144.332 69.7529 143.723 70.2141 143.049 70.561C142.682 70.7499 142.289 70.8846 141.883 70.961C141.665 71.0043 141.441 70.9981 141.226 70.943C140.201 70.661 140.199 69.143 140.199 69.143C140.199 69.143 140.425 69.079 140.766 68.998C141.4 68.8392 142.047 68.741 142.699 68.705C142.721 68.705 142.742 68.705 142.764 68.705C143.487 68.7142 144.199 68.8825 144.849 69.198Z" fill="white"/>
<path d="M143.219 70.561C142.827 70.7505 142.411 70.8851 141.983 70.961C141.751 71.0049 141.512 70.9987 141.283 70.943C140.977 70.5372 140.797 70.0504 140.766 69.543C140.753 69.3595 140.764 69.1751 140.796 68.994C140.82 68.8529 140.863 68.7154 140.922 68.585C141.307 68.3761 141.711 68.2017 142.127 68.064C142.423 68.2018 142.672 68.4233 142.844 68.701C142.857 68.72 142.869 68.74 142.882 68.761C143.006 68.9598 143.101 69.1758 143.162 69.402C143.274 69.7782 143.293 70.1757 143.219 70.561Z" fill="#382729"/>
<path d="M143.255 64.651C143.255 64.651 143.628 66.733 139.886 65.551C139.886 65.551 139.349 65.263 139.356 64.995C139.363 64.727 138.462 63.909 143.255 64.651Z" fill="#2A0610"/>
<path d="M172.033 49.098C172.033 49.098 170.443 52.098 165.823 52.652C165.57 52.683 165.307 52.705 165.034 52.72C162.412 52.859 157.842 52.838 153.934 52.78H153.929C153.249 52.772 152.592 52.761 151.967 52.749H151.96C149.476 52.707 147.529 52.655 146.978 52.642L146.821 52.637C146.705 52.5602 146.592 52.4774 146.484 52.389C145.964 51.9721 145.561 51.4278 145.313 50.809C144.882 49.622 145.202 47.99 148.179 46.224C149.567 45.3719 151.012 44.6157 152.503 43.961C155.967 42.3426 159.923 42.1276 163.542 43.361C166.735 44.583 169.608 46.5163 171.942 49.014C171.973 49.038 172.004 49.067 172.033 49.098Z" fill="#382729"/>
<path d="M140.023 68.719C140.006 68.519 140.079 67.128 142.015 66.968C143.951 66.808 145.127 69.399 145.127 69.399L143.454 68.781L140.023 68.719Z" fill="#FF6A2F"/>
<path d="M148.971 68.109C149.151 67.4651 149.541 66.8994 150.078 66.5011C150.615 66.1028 151.269 65.8945 151.938 65.909C154.514 65.723 157.359 69.288 156.744 68.869C156.595 68.769 154.994 68.281 154.785 68.182C154.576 68.083 152.585 68.053 152.153 67.991C151.091 67.9527 150.027 67.9921 148.971 68.109Z" fill="#FF6A2F"/>
<path d="M148.046 51.344C146.2 52.15 144.496 52.705 144.496 52.705L140.959 53.388L139.495 53.6701C138.969 52.8481 137.985 52.488 138.356 51.528C138.357 51.5219 138.36 51.5162 138.363 51.5111C138.382 51.4651 138.402 51.421 138.423 51.376C139.31 49.586 140.718 48.1062 142.462 47.1312C144.206 46.1561 146.203 45.7315 148.193 45.913C148.868 45.9819 149.537 46.104 150.193 46.278C155.198 47.595 151.39 49.882 148.046 51.344Z" fill="#382729"/>
<path d="M156.744 68.867C155.309 68.6037 153.853 68.4738 152.394 68.479C151.558 68.4816 150.722 68.5411 149.894 68.6571C149.675 68.6911 149.455 68.7251 149.236 68.7691C149.236 68.7691 149.046 68.669 148.967 68.107C149.408 67.9061 149.87 67.7545 150.344 67.655C150.819 67.5493 151.303 67.488 151.789 67.4721C153.546 67.4108 155.277 67.8984 156.744 68.867Z" fill="#382729"/>
<path d="M145.127 69.399C144.192 69.1672 143.233 69.0506 142.27 69.052C141.721 69.0531 141.172 69.1037 140.632 69.203C140.488 69.232 140.344 69.262 140.2 69.303C140.2 69.303 140.075 69.214 140.023 68.722C140.304 68.5508 140.607 68.4186 140.923 68.329C141.231 68.2378 141.55 68.1847 141.871 68.171C143.076 68.136 144.246 68.5773 145.127 69.399Z" fill="#382729"/>
<path d="M143.144 74.826C143.144 74.826 144.173 76.455 147.172 74.826C147.172 74.826 146.523 76.847 145.923 77.047C145.274 77.0561 144.642 76.8397 144.135 76.4346C143.629 76.0295 143.278 75.4609 143.144 74.826Z" fill="#F96E3E"/>
<path d="M150.598 163.125C150.598 163.125 181.311 174.897 175.226 169.825C174.521 169.236 157.368 161.221 150.598 163.125Z" fill="#FF9A00"/>
<path d="M183.69 207.909C180.166 208.124 176.632 208.12 173.108 207.898C166.034 207.421 159.017 206.305 152.144 204.562C140.653 201.692 129.518 197.55 118.944 192.214C122.644 200.703 122.244 203.106 122.244 203.106L121.744 203.079C121.481 203.484 101.976 188.791 96.475 184.67C95.644 184.05 95.132 183.67 95.054 183.616C94.454 183.216 96.254 176.616 98.054 175.535C99.854 174.454 109.954 174.519 111.954 175.535C112.864 175.998 119.627 179.181 127.16 182.71C131.46 184.725 136.005 186.851 139.86 188.649C144.101 190.631 147.503 192.215 148.803 192.815C152.649 194.588 174.893 204.131 181.715 207.053L183.69 207.909Z" fill="#FFAF59"/>
<path d="M102.648 176.725L98.886 184.673L96.2 181.824L102.648 176.725Z" fill="#FF9A00"/>
<path d="M150.598 163.125C149.789 162.899 174.029 162.479 175.226 163.679C176.423 164.879 162.053 166.323 150.598 163.125Z" fill="#FF9A00"/>
<path d="M173.115 207.9H173.108C166.034 207.423 159.017 206.307 152.144 204.564C142.626 198.763 134.172 191.373 127.151 182.716C125.621 180.839 124.106 178.842 122.629 176.724C121.629 175.298 129.546 181.414 139.849 188.655C150.855 196.39 164.589 205.409 173.115 207.9Z" fill="#FF9A00"/>
<path d="M122.245 203.109C122.257 202.815 122.545 197.483 122.545 197.483C122.545 197.483 141.816 201.602 142.12 201.7C142.424 201.798 136.284 195.217 134.062 194.217C131.84 193.217 121.71 189.752 119.444 188.885C117.178 188.018 116.244 191.551 116.644 192.551C117.044 193.551 121.744 203.082 121.744 203.082L122.245 203.109Z" fill="#FFAF59"/>
<path d="M104.947 172.526C103.863 172.799 113.067 167.843 118.447 172.526L123.823 177.209C123.823 177.209 116.044 169.727 104.947 172.526Z" fill="#FF9A00"/>
<path d="M164.231 66.065C164.318 64.8221 164.85 63.6523 165.731 62.771C166.643 61.877 167.91 61.171 169.103 62.334C171.303 64.484 168.396 73.692 165.841 72.007C164.151 70.895 164.082 67.944 164.231 66.065Z" fill="url(#paint8_linear_2_2116)"/>
<path d="M167.467 63.129C167.59 62.991 165.878 66.187 165.698 67.787C165.518 69.387 165.798 70.211 166.582 70.049C167.366 69.887 167.463 69.986 166.556 69.209C165.649 68.432 167.117 63.52 167.467 63.129Z" fill="url(#paint9_linear_2_2116)"/>
<path d="M168.783 65.757C168.783 65.757 169.483 62.157 167.467 63.129C167.467 63.129 168.583 63.244 168.783 65.757Z" fill="url(#paint10_linear_2_2116)"/>
<path d="M96.776 149.525C96.733 149.532 96.709 149.532 96.704 149.525C96.728 149.527 96.7521 149.527 96.776 149.525Z" fill="#382729"/>
<path d="M144.849 80.656C144.849 80.656 148.527 81.514 152.58 77.079C152.58 77.079 150.211 87.609 144.849 80.656Z" fill="white"/>
<path d="M149.618 145.295L150.506 159.69C163.246 161.835 176.325 160.626 188.456 156.182C188.456 156.182 186.935 148.065 187.307 142.535C187.679 137.005 180.987 137.542 180.987 137.542L150.582 145.509C150.582 145.509 147.798 145.309 149.618 145.295Z" fill="#652C42"/>
<path d="M154.177 45.124C154.077 44.751 151.791 40.899 154.177 36.924C156.563 32.949 164.536 33.569 165.645 36.924C165.995 37.788 166.161 38.7153 166.133 39.647C166.133 39.647 168.733 36.655 172.033 39.647C175.333 42.639 171.547 47.397 167.473 47.69C163.399 47.983 154.177 45.124 154.177 45.124Z" fill="#382729"/>
<path d="M179.539 93.335C177.253 105.244 163.312 107.04 163.312 107.04C163.312 107.04 162.344 111.046 161.93 112.256C161.516 113.466 160.854 107.505 160.854 107.505C160.854 107.505 161.783 107.689 155.816 105.639C151.301 104.085 149.849 99.703 149.416 97.665C151.129 97.0794 152.883 96.6199 154.663 96.29C155.275 95.3572 155.726 94.3283 155.998 93.246L156.004 93.239C156.035 93.0942 156.056 92.9476 156.068 92.8C160.676 90.4752 165.521 88.6517 170.518 87.361C171.894 89.813 173.288 91.953 174.358 93.561C176.075 93.3323 177.809 93.2566 179.539 93.335Z" fill="url(#paint11_linear_2_2116)"/>
<path d="M156.312 73.46C156.463 74.633 155.144 75.769 153.367 75.997C151.59 76.225 150.027 75.458 149.877 74.285C149.727 73.112 151.045 71.977 152.822 71.749C154.599 71.521 156.162 72.287 156.312 73.46Z" fill="url(#paint12_linear_2_2116)"/>
<path d="M142.538 75.643C142.505 76.0196 142.367 76.3793 142.139 76.6812C141.912 76.983 141.604 77.2148 141.251 77.35C140.888 76.159 140.595 74.987 140.36 73.834C140.255 73.7577 140.161 73.6679 140.079 73.567C140.162 73.58 140.239 73.599 140.315 73.611C140.491 73.6493 140.663 73.7005 140.831 73.764C141.275 73.8625 141.677 74.096 141.983 74.4325C142.289 74.769 142.482 75.1918 142.538 75.643Z" fill="url(#paint13_linear_2_2116)"/>
<path d="M153.772 87.094C153.772 87.094 163.219 81.847 165.484 74.204C165.484 74.204 163.455 87.468 155.443 90.419L153.772 87.094Z" fill="#FF6A2F"/>
<path d="M98.487 294.765V306.254H96.64V294.122C97.226 294.339 97.843 294.555 98.487 294.765Z" fill="#FFF4EF"/>
<path d="M251.792 310.147H249.949V324.458H251.792V310.147Z" fill="#FFF4EF"/>
<path d="M260.724 312.396H258.881V326.707H260.724V312.396Z" fill="#FFF4EF"/>
<path d="M282.34 313.979H280.497V328.29H282.34V313.979Z" fill="#FFF4EF"/>
<path d="M336.821 308.552H334.978V322.863H336.821V308.552Z" fill="#FFF4EF"/>
<path d="M294.208 313.979H292.365V328.29H294.208V313.979Z" fill="#FFF4EF"/>
<path d="M304.501 314.725H302.658V329.036H304.501V314.725Z" fill="#FFF4EF"/>
<path d="M314.794 313.979H312.951V328.29H314.794V313.979Z" fill="#FFF4EF"/>
<path d="M106.098 296.88V308.674H104.251V296.447C104.849 296.593 105.466 296.74 106.098 296.88Z" fill="#FFF4EF"/>
<path d="M112.911 298.128V310.26H111.064V297.841C111.669 297.943 112.281 298.039 112.911 298.128Z" fill="#FFF4EF"/>
<path d="M131.552 298.909V310.264H128.915V299.009C129.782 298.988 130.66 298.949 131.552 298.909Z" fill="#FFF4EF"/>
<path d="M141.156 297.981V309.636H139.309V298.223C139.92 298.153 140.532 298.071 141.156 297.981Z" fill="#FFF4EF"/>
<path d="M149.67 296.472V308.254H147.83V296.854C148.435 296.733 149.053 296.609 149.67 296.472Z" fill="#FFF4EF"/>
<path d="M158.122 294.37V306.254H156.281V294.88C156.892 294.714 157.504 294.542 158.122 294.37Z" fill="#FFF4EF"/>
<path d="M175.826 288.078V300.287H173.979V288.849C174.591 288.601 175.208 288.346 175.826 288.078Z" fill="#FFF4EF"/>
<path d="M184.608 284.06V295.51H182.768V284.945C183.379 284.658 183.991 284.359 184.608 284.06Z" fill="#FFF4EF"/>
<path d="M193.804 279.22V291.409H191.964V280.239C192.575 279.909 193.187 279.564 193.804 279.22Z" fill="#FFF4EF"/>
<path d="M203.128 273.679V286.372H201.281V274.825C201.892 274.45 202.51 274.067 203.128 273.679Z" fill="#FFF4EF"/>
<path d="M221.508 260.923V274.009H219.661V262.309C220.272 261.853 220.89 261.388 221.508 260.923Z" fill="#FFF4EF"/>
<path d="M229.882 254.309V267.428H228.035V255.803C228.647 255.309 229.264 254.815 229.882 254.309Z" fill="#FFF4EF"/>
<path d="M266.52 223.202V236.92H264.674V224.266C265.259 223.915 265.877 223.559 266.52 223.202Z" fill="#FFF4EF"/>
<path d="M274.882 219.253V232.57H273.035V220.009C273.634 219.757 274.252 219.502 274.882 219.253Z" fill="#FFF4EF"/>
<path d="M284.187 216.228V229.762H282.34V216.725C282.945 216.553 283.556 216.388 284.187 216.228Z" fill="#FFF4EF"/>
<path d="M294.211 214.286V227.876H292.364V214.553C292.969 214.458 293.587 214.369 294.211 214.286Z" fill="#FFF4EF"/>
<path d="M238.582 246.925V259.7H236.735V248.536C237.346 248.009 237.964 247.466 238.582 246.925Z" fill="#FFF4EF"/>
<path d="M247.523 238.779V252.001H245.683V240.509C246.298 239.939 246.912 239.359 247.523 238.779Z" fill="#FFF4EF"/>
<path d="M121.483 298.902V319.314H119.643V298.822C120.248 298.855 120.859 298.883 121.483 298.902Z" fill="#FFF4EF"/>
<path d="M271.57 313.47H269.727V343.11H271.57V313.47Z" fill="#FFF4EF"/>
<path d="M326.91 311.796H325.067V341.436H326.91V311.796Z" fill="#FFF4EF"/>
<path d="M166.764 291.609V317.309H164.923V292.248C165.535 292.039 166.146 291.829 166.764 291.609Z" fill="#FFF4EF"/>
<path d="M212.713 267.323V295.023H210.866V268.6C211.484 268.183 212.098 267.756 212.713 267.323Z" fill="#FFF4EF"/>
<path d="M257.098 229.628V256.628H255.248V231.303C255.586 230.972 256.198 230.392 257.098 229.628Z" fill="#FFF4EF"/>
<path d="M289.909 135.641C295.578 128.847 291.138 115.799 279.992 106.5C268.846 97.1999 255.214 95.1692 249.545 101.964C243.876 108.759 248.316 121.806 259.462 131.106C270.608 140.406 284.239 142.436 289.909 135.641Z" fill="#F7E7DA"/>
<path d="M182.411 243.358L185.669 223.202L188.531 243.358H182.411Z" fill="#2E1030"/>
<path d="M122.014 328.067C122.014 328.354 121.929 328.635 121.77 328.873C121.611 329.112 121.384 329.298 121.119 329.408C120.854 329.518 120.562 329.547 120.281 329.491C119.999 329.435 119.74 329.297 119.537 329.094C119.334 328.892 119.196 328.633 119.14 328.352C119.084 328.07 119.113 327.778 119.222 327.513C119.332 327.248 119.518 327.021 119.757 326.862C119.995 326.702 120.276 326.617 120.563 326.617C120.948 326.617 121.317 326.77 121.589 327.042C121.861 327.314 122.014 327.682 122.014 328.067Z" fill="#FFF4EF"/>
<path d="M166.764 328.068C167.565 328.068 168.215 327.418 168.215 326.617C168.215 325.816 167.565 325.166 166.764 325.166C165.963 325.166 165.313 325.816 165.313 326.617C165.313 327.418 165.963 328.068 166.764 328.068Z" fill="#FFF4EF"/>
<path d="M214.163 307.709C214.163 307.996 214.078 308.277 213.918 308.515C213.759 308.754 213.532 308.94 213.267 309.05C213.002 309.159 212.71 309.188 212.429 309.132C212.147 309.076 211.889 308.938 211.686 308.735C211.483 308.532 211.345 308.273 211.289 307.992C211.233 307.71 211.262 307.418 211.372 307.153C211.482 306.888 211.668 306.661 211.907 306.502C212.145 306.343 212.426 306.258 212.713 306.258C213.098 306.258 213.466 306.411 213.738 306.683C214.01 306.955 214.163 307.324 214.163 307.709Z" fill="#FFF4EF"/>
<path d="M259.073 268.774C259.073 269.061 258.988 269.342 258.828 269.58C258.669 269.819 258.442 270.005 258.177 270.115C257.912 270.224 257.62 270.253 257.339 270.197C257.057 270.141 256.799 270.003 256.596 269.8C256.393 269.597 256.255 269.339 256.199 269.057C256.143 268.776 256.172 268.484 256.281 268.219C256.391 267.954 256.577 267.727 256.816 267.568C257.054 267.408 257.335 267.323 257.622 267.323C258.007 267.323 258.376 267.476 258.648 267.748C258.92 268.02 259.073 268.389 259.073 268.774Z" fill="#FFF4EF"/>
<path d="M272.098 350.131C272.098 350.418 272.013 350.699 271.853 350.937C271.694 351.176 271.467 351.362 271.202 351.472C270.937 351.581 270.645 351.61 270.364 351.554C270.082 351.498 269.824 351.36 269.621 351.157C269.418 350.954 269.28 350.696 269.224 350.414C269.168 350.133 269.197 349.841 269.306 349.576C269.416 349.311 269.602 349.084 269.841 348.924C270.08 348.765 270.36 348.68 270.647 348.68C271.032 348.68 271.401 348.833 271.673 349.105C271.945 349.377 272.098 349.746 272.098 350.131Z" fill="#FFF4EF"/>
<path d="M327.439 347.935C327.439 348.222 327.354 348.503 327.194 348.741C327.035 348.98 326.808 349.166 326.543 349.276C326.278 349.385 325.986 349.414 325.705 349.358C325.423 349.302 325.165 349.164 324.962 348.961C324.759 348.758 324.621 348.5 324.565 348.218C324.509 347.937 324.538 347.645 324.647 347.38C324.757 347.115 324.943 346.888 325.182 346.729C325.42 346.569 325.701 346.484 325.988 346.484C326.179 346.484 326.367 346.521 326.543 346.594C326.72 346.667 326.88 346.774 327.014 346.909C327.149 347.044 327.256 347.203 327.329 347.38C327.402 347.556 327.439 347.744 327.439 347.935Z" fill="#FFF4EF"/>
<path d="M254.48 349.709C256.628 350.114 268.48 338.451 296.895 339.445C296.895 339.445 303.619 341.237 306.264 345.187C308.909 349.137 265.576 348.498 259.781 353.167C253.986 357.836 252.24 349.282 254.48 349.709Z" fill="#7D8044"/>
<path d="M256.89 350.709C258.798 351.776 273.74 344.483 300.369 354.455C300.369 354.455 306.175 358.29 307.428 362.877C308.681 367.464 267.796 353.087 260.818 355.677C253.84 358.267 254.898 349.593 256.89 350.709Z" fill="#7D8044"/>
<path d="M109.726 353.518L87.542 356.174C87.542 356.174 93.013 393.466 128.466 398.14C130.814 398.45 177.292 405.631 186.473 356.174L109.726 353.518Z" fill="#944B69"/>
<path d="M186.475 356.175C186.475 358.975 182.775 361.562 176.533 363.645C167.503 366.651 153.161 368.6 137.01 368.6C120.01 368.6 105.015 366.447 96.105 363.161C90.698 361.167 87.539 358.761 87.539 356.175C87.539 349.309 109.689 343.75 137.01 343.75C164.331 343.75 186.475 349.309 186.475 356.175Z" fill="#DEB9B0"/>
<path d="M176.916 361.403C176.709 362.135 176.581 362.886 176.533 363.645C167.503 366.651 153.161 368.6 137.01 368.6C120.01 368.6 105.015 366.447 96.105 363.161C96.0798 362.872 96.0926 362.581 96.143 362.295C96.143 362.295 95.997 357.276 99.226 356.971C102.455 356.666 100.219 359.11 105.193 354.41C110.167 349.71 114.638 346.673 116.625 349.43C118.612 352.187 118.115 355.818 118.612 354.63C119.109 353.442 120.35 347.548 124.076 347.886C127.802 348.224 128.553 352.248 129.546 351.974C130.539 351.7 132.03 346.306 135.265 346.395C138.5 346.484 147.194 348.516 147.442 351.108C147.69 353.7 150.187 351.751 153.161 351.974C156.135 352.197 158.472 352.019 159.542 354.343C160.612 356.667 163.3 355.432 166.306 356.178C169.312 356.924 172.54 356.037 172.789 357.846C173.038 359.655 178.807 354.703 176.916 361.403Z" fill="white"/>
<path d="M50.411 317.96C51.376 318.56 51.435 314.884 51.435 314.884C51.435 314.884 52.702 315.449 54.235 316.296C55.8176 317.154 57.2943 318.195 58.635 319.396C62.305 323.719 53.191 340.845 46.502 340.201C45.0344 339.937 43.6099 339.473 42.268 338.823C40.6532 338.079 39.1477 337.118 37.793 335.966C46.72 321.937 49.939 317.664 50.411 317.96Z" fill="#652C42"/>
<path d="M49.5695 328.538C53.2511 322.666 54.0859 316.557 51.434 314.895C48.7822 313.232 43.6478 316.645 39.9662 322.518C36.2846 328.39 35.4498 334.499 38.1017 336.161C40.7536 337.824 45.8879 334.411 49.5695 328.538Z" fill="#944B69"/>
<path d="M23.949 306.931C24.669 307.223 46.625 317.4 47.884 322.883C47.7569 323.927 47.4206 324.936 46.895 325.847C46.3694 326.759 45.6653 327.555 44.825 328.188C44.825 328.188 36.799 327.354 21.174 314.75L23.949 306.931Z" fill="#652C42"/>
<path d="M19.589 298.89C20.553 299.49 20.613 295.815 20.613 295.815C20.613 295.815 21.88 296.379 23.413 297.226C24.9977 298.083 26.4761 299.124 27.818 300.326C31.489 304.649 22.374 321.776 15.686 321.131C14.2185 320.867 12.7939 320.403 11.452 319.753C9.83692 319.009 8.33099 318.048 6.97601 316.896C15.898 302.867 19.116 298.594 19.589 298.89Z" fill="#652C42"/>
<path d="M18.7514 309.462C22.4326 303.587 23.266 297.476 20.6128 295.814C17.9597 294.152 12.8247 297.567 9.14345 303.443C5.46224 309.318 4.62884 315.429 7.28199 317.091C9.93515 318.753 15.0702 315.338 18.7514 309.462Z" fill="#944B69"/>
<path d="M255.249 372.326C243.665 378.478 172.458 394.692 161.931 395.253C156.378 395.545 153.174 392.96 152.894 389.343C152.652 386.254 154.543 382.42 158.925 379C159.148 378.822 159.371 378.65 159.606 378.478C160.167 378.07 160.842 377.578 161.619 377.007C174.165 367.849 213.707 339.572 240.619 340.216C242.949 340.255 245.267 340.557 247.529 341.116C275.539 348.278 266.827 366.174 255.249 372.326Z" fill="#FFAF59"/>
<path d="M255.249 372.326C243.665 378.478 172.458 394.692 161.931 395.253C156.378 395.545 153.174 392.96 152.894 389.343C177.317 392.374 196.694 372.886 229.883 358.78C251.301 349.68 246.626 343.47 240.614 340.216C242.944 340.255 245.262 340.557 247.524 341.116C275.539 348.278 266.827 366.174 255.249 372.326Z" fill="#FF9A00"/>
<path d="M210.71 367.739C212.617 367.739 214.163 367.249 214.163 366.645C214.163 366.041 212.617 365.551 210.71 365.551C208.803 365.551 207.257 366.041 207.257 366.645C207.257 367.249 208.803 367.739 210.71 367.739Z" fill="#FF9A00"/>
<path d="M211.789 356.19C213.696 356.19 215.242 355.7 215.242 355.096C215.242 354.492 213.696 354.002 211.789 354.002C209.882 354.002 208.336 354.492 208.336 355.096C208.336 355.7 209.882 356.19 211.789 356.19Z" fill="#FF9A00"/>
<path d="M235.282 347.935C235.282 348.535 233.736 349.029 231.828 349.029C229.92 349.029 228.375 348.539 228.375 347.935C228.375 347.331 229.921 346.84 231.828 346.84C233.735 346.84 235.282 347.33 235.282 347.935Z" fill="#FF9A00"/>
<path d="M189.431 367.739C191.338 367.739 192.884 367.249 192.884 366.645C192.884 366.041 191.338 365.551 189.431 365.551C187.524 365.551 185.978 366.041 185.978 366.645C185.978 367.249 187.524 367.739 189.431 367.739Z" fill="#FF9A00"/>
<path d="M164.109 378.051C164.109 378.656 162.561 379.151 160.657 379.151C160.076 379.155 159.497 379.106 158.925 379.005C159.148 378.827 159.371 378.655 159.606 378.483C160.167 378.075 160.842 377.583 161.619 377.012C163.058 377.14 164.109 377.554 164.109 378.051Z" fill="#FF9A00"/>
<path d="M178.356 380.242C180.263 380.242 181.809 379.752 181.809 379.148C181.809 378.544 180.263 378.054 178.356 378.054C176.449 378.054 174.903 378.544 174.903 379.148C174.903 379.752 176.449 380.242 178.356 380.242Z" fill="#FF9A00"/>
<path d="M130.367 356.053C130.367 356.465 129.408 356.799 128.224 356.799C127.04 356.799 126.08 356.465 126.08 356.053C126.08 355.641 127.04 355.308 128.224 355.308C129.408 355.308 130.367 355.642 130.367 356.053Z" fill="#DEB9B0"/>
<path d="M114.41 357.197C114.533 357.589 113.717 358.197 112.587 358.549C111.457 358.901 110.442 358.871 110.319 358.478C110.196 358.085 111.012 357.478 112.142 357.126C113.272 356.774 114.287 356.804 114.41 357.197Z" fill="#DEB9B0"/>
<path d="M147.349 359.209C147.085 359.525 146.135 359.166 145.226 358.409C144.317 357.652 143.794 356.779 144.057 356.463C144.32 356.147 145.272 356.506 146.181 357.263C147.09 358.02 147.613 358.895 147.349 359.209Z" fill="#DEB9B0"/>
<path d="M140.035 362.209C140.117 362.469 139.577 362.869 138.83 363.103C138.083 363.337 137.41 363.317 137.33 363.057C137.25 362.797 137.788 362.396 138.536 362.157C139.284 361.918 139.954 361.945 140.035 362.209Z" fill="#DEB9B0"/>
<path d="M162.155 360.464C162.236 360.724 161.696 361.124 160.949 361.358C160.202 361.592 159.529 361.572 159.449 361.312C159.369 361.052 159.907 360.651 160.655 360.412C161.403 360.173 162.073 360.209 162.155 360.464Z" fill="#DEB9B0"/>
<path d="M123.746 361.109C123.703 361.378 123.046 361.498 122.268 361.376C121.49 361.254 120.901 360.937 120.944 360.668C120.987 360.399 121.644 360.28 122.421 360.401C123.198 360.522 123.788 360.839 123.746 361.109Z" fill="#DEB9B0"/>
<path d="M124.498 408.009L119.05 406.423C119.05 406.423 142.299 401.114 145.345 402.674C145.345 402.674 128.21 409.09 124.498 408.009Z" fill="#652C42"/>
<path d="M81.831 404.023C78.849 398.554 113.177 405.198 119.049 406.423C124.921 407.648 137.633 405.064 145.344 402.674C145.344 402.674 144.409 411.056 133.834 412.241C123.259 413.426 119.358 407.691 119.358 407.691C119.358 407.691 84.143 408.264 81.831 404.023Z" fill="#DEB9B0"/>
<path d="M269.198 372.316C270.539 372.268 268.165 368.636 268.165 368.636C268.165 368.636 269.775 368.35 271.833 368.162C272.341 368.116 276.523 367.817 278.185 368.28C284.627 370.074 287.051 392.821 280.095 396.614C278.487 397.326 276.79 397.815 275.05 398.067C272.981 398.409 270.876 398.465 268.792 398.236C268.225 378.639 268.542 372.339 269.198 372.316Z" fill="#652C42"/>
<path d="M269.229 398.208C272.917 398.075 275.669 391.347 275.375 383.18C275.08 375.013 271.852 368.5 268.163 368.633C264.475 368.766 261.724 375.494 262.018 383.661C262.312 391.828 265.541 398.341 269.229 398.208Z" fill="#944B69"/>
<path d="M236.073 379.043C236.973 378.852 265.132 374.272 269.986 378.793C270.553 379.896 270.891 381.103 270.98 382.34C271.07 383.577 270.909 384.819 270.508 385.993C270.508 385.993 262.12 390.485 238.533 388.509L236.073 379.043Z" fill="#652C42"/>
<path d="M226.498 374.074C227.839 374.027 225.465 370.395 225.465 370.395C225.465 370.395 227.075 370.109 229.133 369.921C229.641 369.874 233.823 369.576 235.486 370.039C241.927 371.833 244.351 394.58 237.395 398.372C235.787 399.084 234.09 399.573 232.35 399.826C230.281 400.167 228.176 400.224 226.092 399.995C225.526 380.397 225.843 374.098 226.498 374.074Z" fill="#652C42"/>
<path d="M226.53 399.966C230.218 399.833 232.97 393.105 232.676 384.938C232.381 376.771 229.153 370.258 225.464 370.391C221.776 370.524 219.025 377.252 219.319 385.419C219.613 393.586 222.842 400.099 226.53 399.966Z" fill="#944B69"/>
<path d="M101.386 383.429C101.387 385.519 100.692 387.549 99.4115 389.201C98.1307 390.852 96.3368 392.03 94.3125 392.549C92.2882 393.068 90.1488 392.899 88.2315 392.067C86.3142 391.236 84.7281 389.79 83.7233 387.958C82.7185 386.126 82.3521 384.011 82.682 381.947C83.0119 379.884 84.0192 377.989 85.5452 376.561C87.0712 375.133 89.0289 374.254 91.1099 374.062C93.1908 373.87 95.2764 374.376 97.038 375.5C98.3706 376.35 99.4674 377.522 100.227 378.908C100.987 380.294 101.386 381.848 101.386 383.429Z" fill="#E85B55"/>
<path d="M101.386 383.429C101.388 384.707 101.129 385.973 100.625 387.148C100.122 388.323 99.3837 389.383 98.4566 390.263C97.5296 391.144 96.4329 391.826 95.2335 392.268C94.034 392.711 92.7569 392.904 91.4803 392.836C90.2036 392.769 88.9542 392.442 87.8082 391.875C86.6622 391.308 85.6437 390.514 84.8149 389.541C83.9861 388.567 83.3644 387.435 82.9877 386.213C82.611 384.992 82.4873 383.706 82.624 382.435C88.89 384.735 103.119 388.788 97.047 375.518C97.047 375.509 97.038 375.509 97.038 375.5C98.3721 376.348 99.4701 377.52 100.23 378.906C100.99 380.292 101.388 381.848 101.386 383.429Z" fill="#E53131"/>
<path d="M94.677 377.542C94.577 377.917 93.503 377.968 92.268 377.654C91.033 377.34 90.109 376.782 90.204 376.406C90.299 376.03 91.378 375.979 92.613 376.293C93.848 376.607 94.772 377.166 94.677 377.542Z" fill="#E53131"/>
<path d="M87.277 377.621C87.87 377.279 88.461 377.194 88.598 377.431C88.735 377.668 88.365 378.137 87.773 378.48C87.181 378.823 86.589 378.907 86.453 378.67C86.317 378.433 86.685 377.963 87.277 377.621Z" fill="white"/>
<path d="M72.288 386.962C72.8317 389.397 72.3858 391.948 71.0485 394.054C69.7112 396.161 67.592 397.649 65.157 398.193C62.722 398.737 60.1708 398.291 58.0646 396.954C55.9584 395.616 54.4697 393.497 53.926 391.062C53.854 390.738 53.7989 390.41 53.761 390.08C53.4872 387.687 54.1419 385.28 55.5902 383.355C57.0385 381.43 59.17 380.134 61.5454 379.734C63.9208 379.334 66.359 379.861 68.3577 381.205C70.3564 382.55 71.7631 384.611 72.288 386.962Z" fill="#E85B55"/>
<path d="M72.288 386.962C72.8317 389.397 72.3858 391.948 71.0485 394.054C69.7112 396.161 67.5919 397.649 65.157 398.193C62.722 398.737 60.1708 398.291 58.0646 396.954C55.9584 395.616 54.4697 393.497 53.926 391.062C53.854 390.738 53.7989 390.41 53.761 390.08C60.377 390.956 75.149 391.813 66.33 380.18C66.33 380.172 66.319 380.174 66.317 380.165C67.8045 380.703 69.132 381.608 70.1759 382.796C71.2198 383.985 71.9464 385.418 72.288 386.962Z" fill="#E53131"/>
<path d="M64.458 382.678C64.446 383.066 63.405 383.351 62.131 383.314C60.857 383.277 59.831 382.933 59.845 382.545C59.859 382.157 60.898 381.873 62.172 381.91C63.446 381.947 64.469 382.291 64.458 382.678Z" fill="#E53131"/>
<path d="M57.254 384.369C57.754 383.906 58.316 383.694 58.501 383.896C58.686 384.098 58.428 384.636 57.924 385.096C57.42 385.556 56.862 385.771 56.677 385.569C56.492 385.367 56.75 384.832 57.254 384.369Z" fill="white"/>
<path d="M161.453 234.975L160.765 235.797L157.715 233.243C157.893 232.931 158.084 232.632 158.288 232.333L161.453 234.975Z" fill="#2E1030"/>
<path d="M165.854 229.97L165.054 230.683L162.354 227.652C162.615 227.416 162.889 227.18 163.169 226.952L165.854 229.97Z" fill="#2E1030"/>
<path d="M171.579 226.416L170.618 226.887L168.818 223.257C169.13 223.092 169.455 222.939 169.78 222.786L171.579 226.416Z" fill="#2E1030"/>
<path d="M178.827 224.06L177.769 224.238L177.113 220.283C177.464 220.207 177.813 220.137 178.164 220.067L178.827 224.06Z" fill="#2E1030"/>
<path d="M213.854 233.638L210.918 236.09L210.23 235.268L213.299 232.708C213.491 233.014 213.682 233.32 213.854 233.638Z" fill="#2E1030"/>
<path d="M209.313 227.957L206.625 230.976L205.825 230.263L208.513 227.244C208.791 227.473 209.058 227.715 209.313 227.957Z" fill="#2E1030"/>
<path d="M202.919 223.455L201.066 227.187L200.11 226.709L201.963 222.977C202.288 223.132 202.606 223.291 202.919 223.455Z" fill="#2E1030"/>
<path d="M194.598 220.372L193.911 224.531L192.853 224.353L193.553 220.143C193.902 220.213 194.25 220.289 194.598 220.372Z" fill="#2E1030"/>
<path d="M186.125 221.601L185.055 221.64L184.972 219.353C185.208 219.347 185.437 219.347 185.672 219.347H186.041L186.125 221.601Z" fill="#2E1030"/>
<path d="M92.94 104.297H81.683C81.2932 104.297 80.9153 104.163 80.6119 103.919C80.3085 103.674 80.0979 103.333 80.015 102.952L73.498 72.926C73.444 72.6769 73.4464 72.4189 73.5051 72.1708C73.5638 71.9228 73.6773 71.6911 73.8373 71.4927C73.9973 71.2942 74.1996 71.1342 74.4296 71.0242C74.6595 70.9142 74.9111 70.857 75.166 70.857H86.423C86.8128 70.857 87.1909 70.9905 87.4943 71.2352C87.7978 71.4799 88.0083 71.8211 88.091 72.202L94.609 102.228C94.6631 102.477 94.6607 102.735 94.6019 102.983C94.5431 103.232 94.4295 103.463 94.2694 103.662C94.1094 103.86 93.9068 104.02 93.6768 104.13C93.4467 104.24 93.195 104.297 92.94 104.297Z" fill="#F7E9D9"/>
<path d="M91.623 105.609H80.367C79.9772 105.609 79.599 105.476 79.2954 105.232C78.9917 104.987 78.7809 104.646 78.698 104.265L72.181 74.239C72.1268 73.9899 72.1291 73.7317 72.1877 73.4836C72.2464 73.2354 72.3598 73.0035 72.5198 72.805C72.6798 72.6064 72.8822 72.4462 73.1123 72.3362C73.3423 72.2261 73.5941 72.169 73.849 72.169H85.105C85.4948 72.169 85.8729 72.3025 86.1763 72.5472C86.4798 72.7919 86.6904 73.1331 86.773 73.514L93.291 103.54C93.3451 103.789 93.3427 104.047 93.2839 104.295C93.2252 104.543 93.1117 104.775 92.9518 104.973C92.7918 105.172 92.5894 105.332 92.3595 105.442C92.1295 105.552 91.8779 105.609 91.623 105.609Z" fill="#E1CCB5"/>
<defs>
<linearGradient id="paint0_linear_2_2116" x1="-7.20201" y1="363.005" x2="412.802" y2="-61.8213" gradientUnits="userSpaceOnUse">
<stop stop-color="#FF315D"/>
<stop offset="1" stop-color="#F7931E"/>
</linearGradient>
<linearGradient id="paint1_linear_2_2116" x1="121.153" y1="75.0582" x2="198.057" y2="312.353" gradientUnits="userSpaceOnUse">
<stop stop-color="#EEEEEE"/>
<stop offset="1" stop-color="#EEEEEE" stop-opacity="0"/>
</linearGradient>
<linearGradient id="paint2_linear_2_2116" x1="320.473" y1="19.9601" x2="272.347" y2="-109.446" gradientUnits="userSpaceOnUse">
<stop stop-color="#FD7A44"/>
<stop offset="0.557" stop-color="#FFAF86"/>
</linearGradient>
<linearGradient id="paint3_linear_2_2116" x1="268.516" y1="283.766" x2="144.696" y2="95.7317" gradientUnits="userSpaceOnUse">
<stop stop-color="#FD7A44"/>
<stop offset="0.557" stop-color="#FFAF86"/>
</linearGradient>
<linearGradient id="paint4_linear_2_2116" x1="-600.611" y1="1361.41" x2="-541.075" y2="1063.88" gradientUnits="userSpaceOnUse">
<stop stop-color="#FD7A44"/>
<stop offset="0.557" stop-color="#FFAF86"/>
</linearGradient>
<linearGradient id="paint5_linear_2_2116" x1="74.7086" y1="430.059" x2="216.854" y2="184.427" gradientUnits="userSpaceOnUse">
<stop stop-color="#FD7A44"/>
<stop offset="0.557" stop-color="#FFAF86"/>
</linearGradient>
<linearGradient id="paint6_linear_2_2116" x1="145.32" y1="75.7083" x2="177.914" y2="88.2534" gradientUnits="userSpaceOnUse">
<stop stop-color="#FD7A44"/>
<stop offset="0.557" stop-color="#FFAF86"/>
</linearGradient>
<linearGradient id="paint7_linear_2_2116" x1="151.578" y1="38.7782" x2="154.692" y2="77.2385" gradientUnits="userSpaceOnUse">
<stop stop-color="#FD7A44"/>
<stop offset="0.557" stop-color="#FFAF86"/>
</linearGradient>
<linearGradient id="paint8_linear_2_2116" x1="173.752" y1="55.7064" x2="156.227" y2="64.0981" gradientUnits="userSpaceOnUse">
<stop stop-color="#FD7A44"/>
<stop offset="0.867" stop-color="#FFAF86"/>
</linearGradient>
<linearGradient id="paint9_linear_2_2116" x1="141.983" y1="54.6178" x2="322.008" y2="60.6226" gradientUnits="userSpaceOnUse">
<stop stop-color="#FD7A44"/>
<stop offset="0.867" stop-color="#FFAF86"/>
</linearGradient>
<linearGradient id="paint10_linear_2_2116" x1="146.521" y1="53.7768" x2="305.969" y2="73.9688" gradientUnits="userSpaceOnUse">
<stop stop-color="#FD7A44"/>
<stop offset="0.867" stop-color="#FFAF86"/>
</linearGradient>
<linearGradient id="paint11_linear_2_2116" x1="162.52" y1="130.635" x2="164.835" y2="70.3829" gradientUnits="userSpaceOnUse">
<stop stop-color="#FD7A44"/>
<stop offset="0.557" stop-color="#FFAF86"/>
</linearGradient>
<linearGradient id="paint12_linear_2_2116" x1="445.46" y1="-277.166" x2="442.504" y2="-238.295" gradientUnits="userSpaceOnUse">
<stop stop-color="#FD7A44"/>
<stop offset="0.557" stop-color="#FFAF86"/>
</linearGradient>
<linearGradient id="paint13_linear_2_2116" x1="143.381" y1="62.426" x2="131.847" y2="91.212" gradientUnits="userSpaceOnUse">
<stop stop-color="#FD7A44"/>
<stop offset="0.557" stop-color="#FFAF86"/>
</linearGradient>
</defs>
</svg>
