<svg width="117" height="178" viewBox="0 0 117 178" fill="none" xmlns="http://www.w3.org/2000/svg">
<path d="M8.1756 0H16.1756C42.6972 0 68.1326 10.5357 86.8863 29.2893C105.64 48.043 116.176 73.4784 116.176 100V170C116.176 172.122 115.333 174.157 113.832 175.657C112.332 177.157 110.297 178 108.176 178H8.1756C6.05387 178 4.01903 177.157 2.51874 175.657C1.01845 174.157 0.175598 172.122 0.175598 170V8C0.175598 5.87827 1.01845 3.84344 2.51874 2.34315C4.01903 0.842855 6.05387 0 8.1756 0Z" fill="url(#paint0_linear_84_150)"/>
<g style="mix-blend-mode:overlay" opacity="0.2">
<path d="M0.175598 36.2251V8.00012C0.175598 5.87839 1.01845 3.84356 2.51874 2.34327C4.01903 0.84298 6.05387 0.000125295 8.1756 0.000125295H16.1756C36.587 -0.0322511 56.515 6.2107 73.2596 17.8831C70.4982 26.8905 64.9199 34.7744 57.3446 40.3756C49.7693 45.9767 40.5968 48.9998 31.1756 49.0001C19.5583 49.015 8.40949 44.4206 0.175598 36.2251Z" fill="white"/>
</g>
<defs>
<linearGradient id="paint0_linear_84_150" x1="0.175598" y1="0" x2="163.018" y2="106.122" gradientUnits="userSpaceOnUse">
<stop stop-color="#888DE9"/>
<stop offset="1" stop-color="#1A0D5D"/>
</linearGradient>
</defs>
</svg>
