<svg width="51" height="45" viewBox="0 0 51 45" fill="none" xmlns="http://www.w3.org/2000/svg">
<path d="M44.415 35.375V35.205C43.935 35.295 43.445 35.395 42.965 35.495C42.8299 35.5247 42.6929 35.5447 42.555 35.5549C41.3671 35.7332 40.1539 35.627 39.015 35.245C37.4387 34.7916 36.0217 33.9042 34.9254 32.6842C33.8291 31.4642 33.0979 29.9606 32.815 28.345C32.4591 26.6252 32.655 24.8369 33.375 23.235L33.585 22.695H33.385C32.345 22.685 31.285 22.6749 30.245 22.6549C29.445 22.6649 28.645 22.6749 27.855 22.6749C27.6584 22.6707 27.4667 22.6124 27.3009 22.5066C27.1352 22.4008 27.0017 22.2515 26.915 22.075C26.4214 21.2295 25.71 20.5319 24.855 20.0549C24.425 19.8849 23.995 19.7149 23.555 19.5449C22.6616 19.3695 21.7392 19.4107 20.865 19.6649C19.913 19.9542 19.0654 20.5134 18.425 21.2749C18.335 21.3749 18.275 21.5249 18.095 21.5149C18.1131 21.567 18.112 21.624 18.0918 21.6753C18.0717 21.7267 18.0338 21.7691 17.985 21.7949C17.955 21.8649 17.915 21.925 17.885 21.985V21.995C17.8526 22.0296 17.8225 22.0663 17.795 22.105C17.7337 22.283 17.615 22.4357 17.4575 22.5388C17.3 22.642 17.1127 22.6899 16.925 22.6749C16.135 22.6949 15.345 22.6649 14.545 22.6649H11.315C10.375 22.6649 9.425 22.7149 8.485 22.6649C8.05194 22.6388 7.63141 22.5094 7.25847 22.2877C6.88552 22.0661 6.57096 21.7584 6.34102 21.3905C6.11108 21.0226 5.9724 20.6051 5.93657 20.1727C5.90073 19.7404 5.96879 19.3057 6.13502 18.9049C6.93941 16.6971 8.18465 14.6762 9.795 12.965C12.1128 10.4679 15.1257 8.72285 18.445 7.95497C20.0543 7.54615 21.7198 7.40422 23.375 7.53493C26.6154 7.72326 29.7368 8.82282 32.3798 10.7069C35.0229 12.591 37.0802 15.1831 38.315 18.185C38.335 18.235 38.365 18.295 38.385 18.355C39.548 17.9369 40.7798 17.7434 42.015 17.7849C42.2237 17.7918 42.4314 17.8187 42.635 17.865C42.635 17.865 42.635 17.855 42.645 17.865C42.7672 17.8855 42.8876 17.9155 43.005 17.955C43.4809 18.0058 43.9523 18.0928 44.415 18.215V18.0349C44.425 13.8049 44.4283 9.57499 44.425 5.34499C44.4315 4.71187 44.3091 4.08407 44.0653 3.49977C43.8214 2.91547 43.4612 2.38694 43.0065 1.94631C42.5519 1.50567 42.0123 1.1621 41.4206 0.936662C40.829 0.711228 40.1976 0.608546 39.565 0.634904H8.28502C7.82502 0.634904 7.36502 0.644914 6.91502 0.644914C6.89502 0.764914 6.83502 0.794977 6.72502 0.834977C5.72559 1.10651 4.84919 1.71188 4.24156 2.55055C3.63393 3.38923 3.33167 4.41067 3.38502 5.44496C3.38502 16.945 3.38168 28.445 3.37501 39.945C3.35375 40.9747 3.67516 41.9823 4.28877 42.8095C4.90238 43.6367 5.7734 44.2365 6.765 44.5149C6.885 44.5549 6.99502 44.555 7.00502 44.705C7.48502 44.705 7.955 44.715 8.425 44.715H39.115C39.623 44.7149 40.1306 44.6849 40.635 44.625C41.5761 44.4467 42.4384 43.9803 43.103 43.2907C43.7676 42.601 44.2016 41.7219 44.345 40.7749C44.505 38.9749 44.405 37.165 44.415 35.375ZM23.375 25.815C23.2129 25.9502 23.0253 26.0514 22.8233 26.1127C22.6213 26.1739 22.4091 26.1939 22.1992 26.1715C21.9893 26.1491 21.786 26.0848 21.6015 25.9823C21.417 25.8798 21.2549 25.7413 21.125 25.575C20.8642 25.2586 20.7206 24.8618 20.7188 24.4518C20.717 24.0418 20.857 23.6436 21.115 23.325C21.3982 23.0177 21.7829 22.8231 22.1982 22.7771C22.6136 22.7312 23.0315 22.837 23.375 23.075C23.605 23.222 23.7943 23.4245 23.9254 23.664C24.0565 23.9034 24.1252 24.172 24.1252 24.445C24.1252 24.7179 24.0565 24.9865 23.9254 25.226C23.7943 25.4654 23.605 25.6679 23.375 25.815Z" fill="#FF315D"/>
<path d="M6.91199 0.645947C6.89999 0.759947 6.83101 0.797836 6.72501 0.832836C5.72652 1.1061 4.8513 1.71219 4.24426 2.55073C3.63723 3.38927 3.33478 4.41004 3.38699 5.44392C3.38699 16.9446 3.38467 28.4446 3.38 39.9439C3.35782 40.974 3.67887 41.9821 4.2926 42.8096C4.90633 43.6372 5.77786 44.237 6.76999 44.5148C6.88499 44.5468 6.997 44.5539 7.009 44.7039C5.83907 44.8038 4.66072 44.7238 3.51498 44.4669C2.63604 44.1772 1.86463 43.6297 1.30106 42.8956C0.73748 42.1615 0.407813 41.2749 0.35498 40.3509C0.34698 40.1719 0.35498 39.9918 0.35498 39.8118C0.35498 28.3818 0.381991 16.9519 0.334991 5.52192C0.310076 4.87059 0.420405 4.22115 0.658996 3.61457C0.897587 3.008 1.25927 2.45745 1.72125 1.99763C2.18323 1.53781 2.73548 1.17869 3.34317 0.942944C3.95086 0.707199 4.60077 0.599911 5.25198 0.62788C5.79998 0.65988 6.35699 0.641947 6.91199 0.645947Z" fill="#DD2C5B"/>
<path d="M23.38 7.53696C23.1 7.83196 22.711 7.70792 22.38 7.76792C19.3737 8.31196 16.5646 9.64101 14.2374 11.6203C11.9102 13.5997 10.1475 16.1589 9.12799 19.0389C8.99649 19.4073 8.9469 19.7998 8.98267 20.1893C9.01844 20.5788 9.13869 20.9558 9.33508 21.294C9.53148 21.6323 9.79928 21.9237 10.1198 22.1478C10.4403 22.3719 10.8059 22.5235 11.191 22.5919C11.2365 22.6078 11.2791 22.6311 11.317 22.6609C10.372 22.6659 9.425 22.7099 8.482 22.6679C8.04963 22.6407 7.63001 22.5108 7.25791 22.2889C6.8858 22.0671 6.57193 21.7596 6.34238 21.3922C6.11282 21.0248 5.9742 20.6079 5.93796 20.1762C5.90172 19.7445 5.96892 19.3104 6.134 18.9099C6.9357 16.6995 8.18047 14.6762 9.79199 12.964C12.1108 10.466 15.1252 8.72045 18.446 7.95286C20.0571 7.54688 21.7237 7.40647 23.38 7.53696Z" fill="#549FFD"/>
<path d="M14.55 22.6609C14.8344 21.6047 15.335 20.6193 16.0201 19.7667C16.7052 18.9141 17.5599 18.213 18.53 17.7079C20.0719 16.8344 21.8669 16.5168 23.615 16.808C23.6754 16.8271 23.7329 16.8543 23.786 16.8889C22.0086 17.2768 20.4078 18.2373 19.229 19.6229C18.7006 20.1492 18.3101 20.7978 18.092 21.511V21.5039C17.964 21.5699 17.992 21.6879 17.987 21.7989V21.7939C17.903 21.8309 17.887 21.9069 17.881 21.9859L17.789 22.1009C17.7277 22.2779 17.6091 22.4293 17.4521 22.5315C17.2952 22.6336 17.1086 22.6806 16.922 22.6649C16.132 22.6899 15.341 22.6659 14.55 22.6609Z" fill="#348DEE"/>
<path d="M38.385 18.355C36.3264 19.1953 34.6278 20.7311 33.585 22.6949H33.385C32.345 22.6849 31.285 22.6749 30.245 22.6549C30.0569 21.7295 29.6449 20.8642 29.045 20.1349C28.2846 18.9909 27.1975 18.1024 25.925 17.585C25.6881 17.4583 25.4444 17.3448 25.195 17.245C24.9592 17.153 24.7189 17.0728 24.475 17.0049C24.2587 16.908 24.0207 16.8701 23.785 16.8949C23.7325 16.8602 23.6752 16.8333 23.615 16.8149C21.8665 16.5223 20.0705 16.8364 18.525 17.705C17.556 18.2133 16.7023 18.9162 16.0175 19.7697C15.3326 20.6231 14.8313 21.6088 14.545 22.6649H11.315C11.2797 22.6343 11.239 22.6106 11.195 22.595C10.8093 22.5261 10.4432 22.374 10.1221 22.1494C9.80105 21.9248 9.5327 21.6329 9.33574 21.2942C9.13877 20.9555 9.01791 20.5779 8.98152 20.1877C8.94513 19.7976 8.9941 19.4042 9.12501 19.0349C10.1514 16.1577 11.9172 13.6015 14.2449 11.6232C16.5725 9.64484 19.38 8.31412 22.385 7.76489C22.715 7.70489 23.105 7.83491 23.375 7.53491C26.6154 7.72324 29.7368 8.8228 32.3798 10.7069C35.0229 12.591 37.0802 15.1831 38.315 18.1849C38.335 18.2349 38.365 18.295 38.385 18.355Z" fill="#89C1FE"/>
<path d="M29.045 20.1348C28.2846 18.9908 27.1974 18.1023 25.925 17.5849C25.6881 17.4582 25.4444 17.3447 25.195 17.2449C24.9592 17.1529 24.7189 17.0727 24.475 17.0048C24.2587 16.908 24.0207 16.87 23.785 16.8948C22.0067 17.2799 20.4044 18.2393 19.225 19.6249C18.6983 20.1482 18.31 20.7942 18.095 21.5048V21.5148C18.275 21.5248 18.335 21.3748 18.425 21.2748C19.0654 20.5134 19.913 19.9541 20.865 19.6649C21.7392 19.4106 22.6616 19.3695 23.555 19.5449C23.995 19.7149 24.425 19.8849 24.855 20.0549C25.71 20.5318 26.4214 21.2294 26.915 22.0749C27.0017 22.2514 27.1352 22.4007 27.3009 22.5065C27.4667 22.6123 27.6584 22.6706 27.855 22.6749C28.645 22.6749 29.445 22.6648 30.245 22.6548C30.0569 21.7294 29.6449 20.8642 29.045 20.1348Z" fill="#549FFD"/>
<path d="M23.379 25.8149C23.2163 25.9503 23.028 26.0515 22.8254 26.1127C22.6228 26.1738 22.41 26.1937 22.1996 26.171C21.9891 26.1484 21.7854 26.0836 21.6005 25.9807C21.4155 25.8778 21.2532 25.7388 21.123 25.5719C20.8623 25.2568 20.7191 24.861 20.718 24.452C20.7169 24.0431 20.858 23.6464 21.117 23.33C21.3991 23.0227 21.7824 22.8274 22.1968 22.78C22.6113 22.7326 23.0289 22.8362 23.373 23.0719C23.3181 23.1506 23.2583 23.2258 23.194 23.297C23.0197 23.4638 22.8845 23.667 22.7979 23.8922C22.7113 24.1174 22.6756 24.3589 22.6933 24.5995C22.711 24.8401 22.7816 25.0738 22.9001 25.2839C23.0187 25.4941 23.1822 25.6754 23.379 25.8149Z" fill="#2E3C47"/>
<path d="M23.379 25.8149C23.1822 25.6754 23.0187 25.4941 22.9001 25.2839C22.7816 25.0738 22.711 24.8401 22.6933 24.5995C22.6756 24.3589 22.7113 24.1174 22.7979 23.8922C22.8845 23.667 23.0197 23.4638 23.194 23.297C23.2583 23.2258 23.3181 23.1506 23.373 23.0719C23.6031 23.219 23.7925 23.4215 23.924 23.6609C24.0554 23.9002 24.1246 24.1687 24.1252 24.4418C24.1258 24.7148 24.0577 24.9837 23.9274 25.2236C23.797 25.4636 23.6084 25.6669 23.379 25.8149Z" fill="#3E4B5A"/>
<path d="M17.986 21.8009C17.986 21.6899 17.963 21.572 18.091 21.506C18.1107 21.5597 18.1109 21.6185 18.0918 21.6724C18.0726 21.7262 18.0352 21.7717 17.986 21.8009Z" fill="#549FFD"/>
<path d="M17.883 21.9879C17.891 21.9089 17.905 21.8329 17.989 21.7959L17.883 21.9879Z" fill="#549FFD"/>
<path d="M41.576 35.8249C46.6123 35.8249 50.695 31.7422 50.695 26.7059C50.695 21.6696 46.6123 17.5869 41.576 17.5869C36.5397 17.5869 32.457 21.6696 32.457 26.7059C32.457 31.7422 36.5397 35.8249 41.576 35.8249Z" fill="#F7931E"/>
<g style="mix-blend-mode:multiply" opacity="0.5">
<path d="M38.317 18.1868C39.5037 17.7583 40.7608 17.5582 42.022 17.5969C42.3676 17.6101 42.7097 17.6704 43.039 17.7759C41.3164 18.0932 39.7223 18.9017 38.4489 20.1043C37.1754 21.3069 36.2769 22.8522 35.8617 24.5538C35.4464 26.2554 35.5321 28.0408 36.1085 29.6948C36.6848 31.3488 37.7272 32.8008 39.11 33.8759C40.2583 34.7501 41.5829 35.3642 42.992 35.6758C41.6497 35.9364 40.263 35.8491 38.964 35.4219C37.3554 34.9587 35.9093 34.0525 34.7908 32.8071C33.6723 31.5616 32.9263 30.0269 32.638 28.3779C32.2715 26.6235 32.4689 24.7983 33.202 23.1629C33.281 22.9809 33.348 22.7929 33.421 22.6079C34.4859 20.6071 36.2183 19.0428 38.317 18.1868Z" fill="#F7931E"/>
</g>
<path d="M38.65 24.131C39.086 23.502 39.54 22.885 39.986 22.264C40.432 21.643 40.857 21.0069 41.295 20.3799C41.473 20.1229 41.656 20.1179 41.841 20.3799C42.747 21.6549 43.658 22.926 44.557 24.206C44.793 24.541 44.595 24.6589 44.273 24.6609C43.639 24.6659 43.006 24.6609 42.373 24.6609C42.373 26.9423 42.3693 29.2233 42.362 31.504C42.362 32.104 42.083 32.4519 41.599 32.4679C41.085 32.4849 40.779 32.137 40.776 31.503C40.776 29.388 40.762 27.275 40.785 25.16C40.785 24.735 40.665 24.611 40.254 24.643C39.805 24.6665 39.355 24.6665 38.906 24.643C38.469 24.636 38.396 24.497 38.65 24.131Z" fill="#E4E7F4"/>
<path d="M25.924 17.5869C25.659 18.2619 25.395 18.9379 25.124 19.6119C25.06 19.7729 25.024 19.9589 24.856 20.0569L23.556 19.548C23.8633 18.6993 24.17 17.8503 24.476 17.001C25.0606 15.523 25.6457 14.0443 26.231 12.5649C26.397 12.1419 26.554 11.715 26.723 11.293C26.7478 11.1843 26.7962 11.0824 26.8647 10.9946C26.9333 10.9068 27.0203 10.8352 27.1197 10.7848C27.219 10.7344 27.3282 10.7066 27.4396 10.7031C27.551 10.6997 27.6617 10.7207 27.764 10.7649C27.8631 10.8026 27.953 10.8612 28.0276 10.9365C28.1022 11.0119 28.1598 11.1023 28.1966 11.2018C28.2333 11.3012 28.2483 11.4074 28.2407 11.5132C28.233 11.6189 28.2028 11.7218 28.152 11.8149C27.419 13.7419 26.669 15.6629 25.924 17.5869Z" fill="#E1E8F7"/>
</svg>
