<?xml version="1.0" encoding="UTF-8"?>
<svg id="Layer_2" data-name="Layer 2" xmlns="http://www.w3.org/2000/svg" viewBox="0 0 22.77 22.61">
  <defs>
    <style>
      .cls-1 {
        fill: #fff;
        stroke-width: 0px;
      }
    </style>
  </defs>
  <g id="Home">
    <path class="cls-1" d="m22.77,9.03c0-1.34-.58-2.45-1.68-3.23-1.68-1.16-3.37-2.3-5.05-3.45-.75-.52-1.51-1.03-2.25-1.55-1.44-1.03-3.16-1.07-4.63-.08-.71.48-1.42.97-2.14,1.47-1.77,1.19-3.52,2.4-5.27,3.6C.61,6.56.03,7.67,0,9.03,0,12.23,0,15.45,0,18.67c0,.47.08.92.26,1.36.56,1.48,2.01,2.59,3.77,2.59,2.45-.01,4.9,0,7.35,0s4.88,0,7.31-.01c1.25,0,2.29-.45,3.11-1.41.63-.73.94-1.59.96-2.53,0-3.22,0-6.42-.01-9.63h.01Zm-8.85,9.86h-4.97c-.58,0-.88-.3-.86-.88.01-.44.31-.77.78-.78h5.08c.48.01.77.34.77.86-.01.49-.3.79-.79.79Z"/>
  </g>
</svg>