<?xml version="1.0" encoding="UTF-8"?>
<svg id="Layer_2" data-name="Layer 2" xmlns="http://www.w3.org/2000/svg" viewBox="0 0 24.45 24.48">
  <defs>
    <style>
      .cls-1 {
        fill: #fff;
        stroke-width: 0px;
      }
    </style>
  </defs>
  <g id="Item_Select" data-name="Item Select">
    <g>
      <path class="cls-1" d="m10.09,24.48c-1.49-.02-2.95-.25-4.37-.7-1.24-.39-2.4-.94-3.48-1.65-.64-.42-1.26-.88-1.81-1.42-.11-.11-.23-.2-.34-.3-.1-.09-.1-.17,0-.26.16-.15.31-.31.46-.46.48-.48.95-.95,1.43-1.43.15-.15.18-.14.21.07.1.57.4.99.87,1.33,1.6,1.16,3.37,1.89,5.33,2.17.59.09,1.12-.02,1.57-.41.1-.08.18-.09.27,0,.46.42,1.01.49,1.6.4,1.96-.29,3.75-1.02,5.34-2.2.44-.33.76-.75.83-1.33.03-.26.05-.27.31-.31.58-.08.99-.4,1.33-.86.69-.94,1.23-1.95,1.62-3.04.31-.86.53-1.75.6-2.66.03-.42-.13-.8-.39-1.14-.14-.19-.14-.19-.01-.39.32-.49.46-1.01.36-1.6-.18-1.09-.48-2.14-.93-3.14-.35-.78-.79-1.52-1.3-2.21-.3-.41-.71-.66-1.2-.77-.05-.01-.11-.02-.16-.04-.08-.02-.08-.07-.03-.12.04-.04.08-.08.12-.12.48-.48.95-.95,1.43-1.43.15-.15.31-.28.46-.42.09-.09.17-.08.25,0,.18.2.37.4.55.6.82.95,1.52,1.98,2.06,3.11.69,1.43,1.13,2.94,1.33,4.52.11.89.12,1.79.07,2.68-.05,1.09-.25,2.16-.57,3.21-.24.82-.55,1.6-.94,2.36-.55,1.09-1.24,2.09-2.04,3.01-1.11,1.27-2.42,2.3-3.89,3.12-1.53.85-3.17,1.38-4.89,1.63-.66.1-1.34.11-2.01.16Z"/>
      <path class="cls-1" d="m18.07,16.94c-.26,0-.47-.08-.65-.27-1.59-1.59-3.18-3.18-4.77-4.77-.2-.2-.3-.42-.22-.69.08-.29.28-.48.58-.54.17-.03.35-.06.52-.06,2.07,0,4.15,0,6.22,0,.12,0,.24.01.36.03.5.09.76.44.69.95-.13.99-.41,1.94-.81,2.86-.34.77-.76,1.49-1.27,2.17-.17.22-.37.35-.65.33Z"/>
      <path class="cls-1" d="m10.61,16.6c0-1.07,0-2.14,0-3.22,0-.24.04-.46.19-.66.18-.24.46-.35.74-.24.17.07.36.16.49.29,1.53,1.52,3.06,3.05,4.58,4.58.13.13.24.31.3.48.1.27.03.53-.17.73-.13.13-.27.25-.42.35-1.37.95-2.87,1.57-4.52,1.84-.04,0-.08.01-.12.02-.67.08-1.06-.27-1.06-.94,0-1.08,0-2.16,0-3.24Z"/>
      <path class="cls-1" d="m16.61,9.55c-1.08,0-2.16,0-3.24,0-.17,0-.34-.02-.49-.07-.39-.13-.57-.5-.41-.88.07-.17.18-.33.3-.46,1.51-1.52,3.03-3.04,4.55-4.55.07-.07.16-.14.24-.2.4-.28.85-.21,1.15.18.77,1.03,1.36,2.15,1.71,3.39.14.48.23.98.35,1.47.02.09.02.19.03.29.03.49-.37.85-.84.84-1.11-.02-2.22,0-3.34,0Z"/>
      <path class="cls-1" d="m9.55,16.61c0,1.09,0,2.18,0,3.26,0,.35-.12.64-.44.82-.17.1-.35.11-.54.08-1.52-.21-2.93-.72-4.23-1.54-.26-.16-.51-.33-.75-.52-.44-.33-.5-.8-.16-1.24.04-.06.09-.11.14-.16,1.5-1.5,3.01-3.01,4.51-4.52.18-.18.39-.3.64-.34.32-.05.62.11.73.42.06.16.08.34.08.52,0,1.07,0,2.14,0,3.22Z"/>
      <path class="cls-1" d="m11.97,10.08c-.03.05-.05.1-.08.15-.23.3-.36.64-.41,1.01-.02.14-.06.22-.22.24-.36.04-.68.17-.97.38-.21.15-.22.14-.42,0-.26-.19-.56-.31-.88-.37-.18-.03-.18-.06-.06-.19.78-.79,1.57-1.57,2.36-2.36.13-.13.17-.12.2.05.06.34.19.66.4.94.03.04.05.1.08.15Z"/>
    </g>
  </g>
</svg>