<svg width="274" height="273" viewBox="0 0 274 273" fill="none" xmlns="http://www.w3.org/2000/svg">
<path d="M273.005 14.65V258.13C273.005 260.055 272.626 261.96 271.889 263.738C271.152 265.516 270.072 267.131 268.71 268.492C267.349 269.852 265.733 270.931 263.954 271.667C262.176 272.403 260.27 272.781 258.345 272.78H14.8755C10.9901 272.78 7.26399 271.236 4.51664 268.489C1.76929 265.741 0.225729 262.015 0.225464 258.13L0.225464 14.65C0.225729 10.7647 1.76929 7.03853 4.51664 4.29118C7.26399 1.54383 10.9901 0.000266856 14.8755 1.67231e-06H258.345C260.27 -0.000917782 262.176 0.377315 263.954 1.1131C265.733 1.84888 267.349 2.9278 268.71 4.28823C270.072 5.64866 271.152 7.26395 271.889 9.04185C272.626 10.8197 273.005 12.7254 273.005 14.65Z" fill="#E8ECFF"/>
<path d="M273.005 13.442V173.4C253.576 181.952 232.322 185.524 211.165 183.793C190.007 182.062 169.616 175.083 151.835 163.487C134.054 151.891 119.446 136.045 109.331 117.382C99.2162 98.7184 93.9148 77.8278 93.9064 56.6C93.8775 36.9659 98.3999 17.5922 107.118 1.33906e-06L259.554 1.33906e-06C261.32 -0.000786749 263.069 0.346298 264.701 1.02143C266.333 1.69657 267.815 2.68652 269.064 3.93477C270.313 5.18301 271.304 6.66509 271.981 8.29636C272.657 9.92762 273.005 11.6761 273.005 13.442Z" fill="#474AD9"/>
<path d="M163.396 119.5C154.746 119.5 147.706 126.54 147.706 135.19C147.706 143.84 154.746 150.88 163.396 150.88C172.046 150.88 179.086 143.84 179.086 135.19C179.086 126.54 172.046 119.5 163.396 119.5ZM163.396 144.89C158.046 144.89 153.706 140.54 153.706 135.2C153.706 129.86 158.056 125.51 163.396 125.51C168.736 125.51 173.086 129.86 173.086 135.2C173.086 140.54 168.736 144.89 163.396 144.89Z" fill="#3D3FD2"/>
<path d="M157.425 113.92C162.885 112.79 167.575 109.59 170.635 104.93C173.695 100.27 174.755 94.7 173.615 89.24C172.485 83.78 169.285 79.09 164.625 76.03C163.235 75.12 161.375 75.51 160.475 76.89C159.565 78.28 159.955 80.14 161.335 81.04C164.655 83.22 166.935 86.56 167.735 90.45C168.545 94.34 167.785 98.31 165.605 101.63C163.425 104.95 160.085 107.23 156.195 108.03C152.305 108.84 148.335 108.08 145.015 105.9C143.635 104.99 141.775 105.38 140.865 106.76C139.955 108.15 140.345 110 141.725 110.91C145.165 113.17 149.105 114.34 153.125 114.34C154.555 114.34 155.985 114.19 157.415 113.9L157.425 113.92Z" fill="#3D3FD2"/>
<path d="M253.105 5.16C254.195 7.96 255.695 11.8 260.405 13.11C265.105 14.42 268.375 11.92 270.765 10.09C271.315 9.67 271.795 9.31 272.235 9.02C271.555 7.09 270.465 5.35 269.045 3.93C268.345 4.39 267.705 4.88 267.125 5.33C264.795 7.12 263.675 7.8 262.025 7.33C260.375 6.87 259.775 5.71 258.705 2.97C258.345 2.05 257.935 1.02 257.395 0H248.475C248.835 0.36 249.275 0.65 249.795 0.8C251.445 1.26 252.045 2.42 253.115 5.16H253.105Z" fill="#3D3FD2"/>
<path d="M188.805 3.36001C188.925 3.36001 189.045 3.36001 189.165 3.34001C190.805 3.14001 191.975 1.65001 191.785 0.0100098H185.775C185.785 0.24001 185.805 0.47001 185.825 0.72001C186.005 2.24001 187.305 3.36001 188.795 3.36001H188.805Z" fill="#3D3FD2"/>
<path d="M218.655 83.12C214.535 80.5 210.675 81.95 207.865 83.01C205.115 84.04 203.855 84.37 202.405 83.45C200.955 82.53 200.715 81.24 200.485 78.32C200.245 75.32 199.925 71.21 195.805 68.59C191.685 65.97 187.825 67.42 185.015 68.48C182.265 69.51 181.005 69.84 179.555 68.92C178.105 68 177.865 66.71 177.635 63.79C177.395 60.79 177.075 56.68 172.955 54.06C171.555 53.17 169.705 53.58 168.815 54.98C167.925 56.38 168.335 58.23 169.735 59.12C171.185 60.04 171.425 61.32 171.655 64.25C171.895 67.25 172.215 71.36 176.335 73.98C180.455 76.6 184.315 75.15 187.125 74.09C189.875 73.06 191.135 72.73 192.585 73.65C194.035 74.57 194.275 75.85 194.505 78.78C194.745 81.78 195.065 85.89 199.185 88.51C203.305 91.13 207.165 89.68 209.975 88.62C212.725 87.59 213.985 87.26 215.435 88.18C216.885 89.1 217.125 90.39 217.355 93.31C217.595 96.31 217.915 100.42 222.035 103.04C222.535 103.36 223.095 103.51 223.645 103.51C224.635 103.51 225.605 103.02 226.175 102.12C227.065 100.72 226.655 98.87 225.255 97.98C223.805 97.06 223.565 95.77 223.335 92.85C223.095 89.85 222.775 85.74 218.655 83.12Z" fill="#3D3FD2"/>
<path d="M238.445 92.29C238.395 90.64 237.025 89.32 235.365 89.38C233.705 89.43 232.405 90.8 232.445 92.46C232.465 93.02 232.935 106.29 242.755 115.43C248.645 120.91 256.535 123.67 266.235 123.67C267.035 123.67 267.845 123.65 268.665 123.61C270.325 123.53 271.605 122.13 271.525 120.48C271.445 118.82 270.045 117.53 268.395 117.62C259.275 118.03 252.035 115.83 246.885 111.07C238.905 103.69 238.445 92.41 238.445 92.29Z" fill="#3D3FD2"/>
<path d="M235.825 17.26C234.905 15.89 233.045 15.52 231.665 16.44C230.285 17.36 229.915 19.22 230.835 20.6C231.005 20.85 234.995 26.75 242.815 30.62C246.445 32.42 251.275 33.95 257.205 33.95C261.815 33.95 267.095 33.02 272.985 30.59V24.02C248.645 35.56 236.355 18.06 235.815 17.26H235.825Z" fill="#3D3FD2"/>
<path d="M203.445 14.35C203.625 14.38 203.805 14.4 203.985 14.4C205.405 14.4 206.675 13.38 206.935 11.94L209.105 0.0200195H203.005L201.035 10.87C200.735 12.5 201.825 14.06 203.455 14.36L203.445 14.35Z" fill="#3D3FD2"/>
<path d="M216.555 17.24C216.935 17.4 217.325 17.47 217.705 17.47C218.875 17.47 219.995 16.78 220.475 15.63L226.955 0.11001L244.395 15.62C245.635 16.72 247.525 16.61 248.635 15.37C249.735 14.13 249.625 12.24 248.385 11.13L235.875 0.0100098H220.495L214.935 13.31C214.295 14.84 215.015 16.6 216.545 17.23L216.555 17.24Z" fill="#3D3FD2"/>
<path d="M228.735 54.73L266.535 61.33C266.705 61.36 266.886 61.38 267.056 61.38C268.485 61.38 269.755 60.35 270.005 58.9C270.295 57.27 269.195 55.71 267.565 55.43L229.765 48.83C228.135 48.55 226.575 49.64 226.295 51.27C226.005 52.9 227.105 54.46 228.735 54.74V54.73Z" fill="#3D3FD2"/>
<path d="M230.215 41.17L268.015 47.77C268.185 47.8 268.365 47.82 268.535 47.82C269.965 47.82 271.235 46.79 271.485 45.34C271.775 43.71 270.675 42.15 269.045 41.87L231.245 35.27C229.615 34.98 228.055 36.08 227.775 37.71C227.485 39.34 228.585 40.9 230.215 41.18V41.17Z" fill="#3D3FD2"/>
<path d="M193.165 57.48C193.165 59.14 194.505 60.48 196.165 60.48H218.635C219.535 60.48 220.385 60.08 220.955 59.38C221.525 58.69 221.755 57.77 221.575 56.89L215.575 26.74C215.255 25.12 213.675 24.06 212.045 24.38C210.425 24.7 209.365 26.28 209.685 27.91L214.975 54.47H196.155C194.495 54.47 193.155 55.81 193.155 57.47L193.165 57.48Z" fill="#3D3FD2"/>
<path d="M133.315 46.18C133.895 46.71 134.615 46.97 135.345 46.97C136.155 46.97 136.965 46.64 137.555 46L152.865 29.35L167.355 44.82C167.975 45.48 168.855 45.83 169.755 45.76C170.655 45.7 171.475 45.23 171.995 44.49L189.385 19.79L198.095 43.78C198.665 45.34 200.385 46.14 201.935 45.58C203.495 45.01 204.295 43.29 203.735 41.74L193.065 12.34C192.685 11.29 191.745 10.54 190.645 10.39C189.535 10.24 188.435 10.72 187.795 11.64L169.215 38.03L155.035 22.9C154.465 22.29 153.675 21.95 152.845 21.95H152.835C152.005 21.95 151.205 22.3 150.645 22.92L133.145 41.94C132.025 43.16 132.105 45.06 133.325 46.18H133.315Z" fill="#3D3FD2"/>
<path d="M225.366 79.1C225.726 79.24 226.095 79.31 226.465 79.31C227.665 79.31 228.796 78.59 229.256 77.41L233.155 67.5L266.446 74.21C268.066 74.54 269.656 73.49 269.976 71.86C270.306 70.24 269.255 68.65 267.625 68.33L231.866 61.12C230.436 60.83 229.015 61.61 228.485 62.96L223.666 75.21C223.056 76.75 223.815 78.49 225.355 79.1H225.366Z" fill="#3D3FD2"/>
<path d="M171.345 16.37C173.005 16.37 174.345 15.03 174.345 13.37V0.0100098H168.345V13.37C168.345 15.03 169.685 16.37 171.345 16.37Z" fill="#3D3FD2"/>
<path d="M135.585 2.58C135.655 3.62 136.265 4.55 137.185 5.03L155.685 14.73C156.125 14.96 156.605 15.07 157.075 15.07C158.155 15.07 159.195 14.49 159.735 13.46C160.505 11.99 159.935 10.18 158.475 9.41L144.285 1.97L147.045 0H136.755C135.965 0.61 135.515 1.57 135.585 2.57V2.58Z" fill="#3D3FD2"/>
<path d="M272.995 97.49V82.29L243.145 76.72C241.515 76.41 239.945 77.49 239.645 79.12C239.345 80.75 240.415 82.32 242.045 82.62L271.575 88.13L262.365 103.64C261.865 104.48 261.805 105.51 262.205 106.4C262.605 107.29 263.405 107.93 264.365 108.12L272.995 109.82V103.71L269.695 103.06L272.995 97.5V97.49Z" fill="#3D3FD2"/>
<path d="M272.275 148.84C272.365 148.89 272.455 148.93 272.555 148.97C272.695 149.03 272.845 149.06 272.995 149.1V139.99L270.915 145.06C270.325 146.5 270.935 148.13 272.275 148.84Z" fill="#3D3FD2"/>
<path d="M260.135 137.08L220.105 114.58C218.665 113.77 216.835 114.28 216.015 115.73C215.195 117.18 215.715 119 217.165 119.82L257.195 142.32C257.655 142.58 258.165 142.71 258.665 142.71C259.715 142.71 260.735 142.16 261.285 141.18C262.095 139.74 261.585 137.91 260.135 137.09V137.08Z" fill="#3D3FD2"/>
<path d="M157.205 99.01C158.265 99.01 159.295 98.45 159.835 97.45C160.635 96 160.105 94.17 158.645 93.38L143.315 84.96L159.795 56.58C160.625 55.15 160.145 53.31 158.705 52.48C157.275 51.65 155.435 52.13 154.605 53.57L136.575 84.6C136.165 85.3 136.065 86.13 136.275 86.91C136.495 87.69 137.015 88.35 137.725 88.74L155.755 98.64C156.215 98.89 156.705 99.01 157.195 99.01H157.205Z" fill="#3D3FD2"/>
<path d="M201.045 131.44C202.005 131.44 202.955 130.98 203.535 130.12C204.465 128.75 204.105 126.88 202.725 125.95L185.565 114.35H206.575C207.895 114.35 209.065 113.49 209.445 112.22C209.825 110.96 209.345 109.59 208.245 108.85L187.555 95.01C186.175 94.09 184.315 94.46 183.395 95.83C182.475 97.21 182.845 99.07 184.225 99.99L196.705 108.34H175.775C174.455 108.34 173.295 109.2 172.905 110.46C172.515 111.72 173.005 113.09 174.095 113.82L199.365 130.9C199.885 131.25 200.465 131.41 201.045 131.41V131.44Z" fill="#3D3FD2"/>
<path d="M213.985 125.7C212.345 125.48 210.835 126.63 210.605 128.27L207.905 148.07C207.745 149.24 208.285 150.39 209.275 151.01C209.765 151.32 210.315 151.47 210.875 151.47C211.435 151.47 212.025 151.31 212.525 150.98L229.765 139.65C231.145 138.74 231.535 136.88 230.625 135.5C229.715 134.11 227.855 133.73 226.475 134.64L214.745 142.35L216.555 129.08C216.775 127.44 215.625 125.93 213.985 125.7Z" fill="#3D3FD2"/>
<path d="M244.825 143.85C243.835 143.21 242.565 143.21 241.575 143.85L224.195 154.96C222.795 155.85 222.395 157.71 223.285 159.1C224.175 160.5 226.035 160.9 227.425 160.01L239.246 152.45L237.276 165.69C237.036 167.33 238.166 168.86 239.806 169.1C239.956 169.12 240.105 169.13 240.255 169.13C241.715 169.13 242.995 168.06 243.215 166.57L246.155 146.81C246.325 145.65 245.805 144.49 244.815 143.85H244.825Z" fill="#3D3FD2"/>
<path d="M106.495 109.7L117.035 95.32L119.415 110.05C119.535 110.81 119.945 111.49 120.565 111.96L139.105 126.05C139.645 126.46 140.285 126.66 140.915 126.66C141.825 126.66 142.715 126.25 143.305 125.48C144.305 124.16 144.055 122.28 142.735 121.28L125.155 107.91L121.825 87.28C121.635 86.09 120.745 85.12 119.565 84.84C118.385 84.56 117.155 85.01 116.445 85.98L103.095 104.2C103.935 106.29 104.835 108.35 105.775 110.38C106.045 110.19 106.305 109.97 106.505 109.69L106.495 109.7Z" fill="#3D3FD2"/>
<path d="M119.365 58.98L138.745 61.84C140.385 62.08 141.905 60.95 142.155 59.31C142.395 57.67 141.265 56.15 139.625 55.9L113.885 52.1C112.735 51.93 111.585 52.44 110.945 53.41C110.305 54.38 110.285 55.64 110.895 56.63L125.295 80.11C125.865 81.03 126.845 81.54 127.855 81.54C128.385 81.54 128.935 81.4 129.425 81.1C130.835 80.23 131.275 78.39 130.415 76.97L119.375 58.97L119.365 58.98Z" fill="#3D3FD2"/>
<path d="M118.745 46.76C119.105 46.9 119.475 46.97 119.845 46.97C121.045 46.97 122.175 46.25 122.635 45.07L134.005 16.28C134.615 14.74 133.855 13 132.315 12.39C130.775 11.78 129.035 12.54 128.425 14.08L117.055 42.87C116.445 44.41 117.205 46.15 118.745 46.76Z" fill="#3D3FD2"/>
<path d="M121.555 7.14001C121.705 7.16001 121.845 7.17001 121.985 7.17001C123.455 7.17001 124.735 6.09001 124.955 4.60001L125.615 0.0100098H119.555L119.015 3.74001C118.775 5.38001 119.915 6.90001 121.555 7.14001Z" fill="#3D3FD2"/>
<path d="M104.066 38.87C104.216 38.87 104.376 38.86 104.526 38.83C105.816 38.63 106.826 37.62 107.036 36.33L112.766 0.0100098H107.106C106.896 0.44001 106.696 0.87001 106.486 1.30001L102.566 26.14L99.3255 19.66C98.4555 22.55 97.6855 25.49 97.0155 28.46L101.376 37.2C101.886 38.23 102.936 38.86 104.056 38.86L104.066 38.87Z" fill="#3D3FD2"/>
<path d="M131.755 130.3C130.445 129.29 128.565 129.52 127.545 130.83L122.585 137.23C123.875 138.81 125.205 140.36 126.575 141.88L132.285 134.5C133.295 133.19 133.065 131.31 131.755 130.29V130.3Z" fill="#3D3FD2"/>
<path d="M121.616 121.9C120.306 120.88 118.426 121.12 117.406 122.43L114.516 126.17C115.666 127.93 116.856 129.66 118.086 131.36L122.156 126.11C123.166 124.8 122.936 122.92 121.626 121.9H121.616Z" fill="#3D3FD2"/>
<path d="M143.675 153.11C142.405 152.05 140.515 152.21 139.445 153.48L139.025 153.98C140.555 155.27 142.105 156.53 143.695 157.75L144.055 157.33C145.115 156.06 144.955 154.17 143.685 153.1L143.675 153.11Z" fill="#3D3FD2"/>
<path d="M175.385 169.65C176.435 169.79 177.475 169.36 178.135 168.53L195.305 146.63C196.325 145.33 196.095 143.44 194.795 142.42C193.495 141.4 191.605 141.63 190.585 142.93L174.465 163.49L157.595 161.31C156.535 161.17 155.485 161.61 154.835 162.46L153.275 164.49C154.975 165.57 156.695 166.61 158.455 167.6L158.545 167.49L175.395 169.67L175.385 169.65Z" fill="#3D3FD2"/>
<path d="M260.135 154.89C260.255 153.24 259.015 151.8 257.365 151.68C255.705 151.56 254.275 152.8 254.155 154.45L252.675 174.55C252.585 175.72 253.185 176.82 254.215 177.39C254.665 177.64 255.175 177.77 255.675 177.77C256.295 177.77 256.915 177.58 257.445 177.19L273.005 165.84V158.41L259.145 168.52L260.145 154.88L260.135 154.89Z" fill="#3D3FD2"/>
<path d="M231.975 175.16L203.205 156.64C201.915 155.81 200.205 156.09 199.245 157.29L188.475 170.71C187.435 172 187.645 173.89 188.935 174.93C190.225 175.97 192.115 175.76 193.155 174.47L202.235 163.16L228.735 180.22C229.235 180.54 229.795 180.7 230.355 180.7C231.345 180.7 232.305 180.21 232.885 179.32C233.785 177.93 233.375 176.07 231.985 175.17L231.975 175.16Z" fill="#3D3FD2"/>
<path d="M208.195 175.43C206.885 174.66 205.176 174.98 204.256 176.24C203.336 177.49 203.526 179.22 204.656 180.24C204.736 180.31 204.806 180.37 204.896 180.43L209.256 183.64C212.846 183.98 216.476 184.17 220.146 184.21L208.456 175.6C208.376 175.54 208.285 175.48 208.195 175.43Z" fill="#3D3FD2"/>
<path d="M108.805 78.67L97.3755 46.36C96.9355 45.11 95.7455 44.35 94.4855 44.37C94.1655 47.74 93.9755 51.15 93.9255 54.6L102.595 79.12L97.2855 85.94C97.8655 88.39 98.5155 90.82 99.2255 93.21L108.335 81.5C108.965 80.69 109.135 79.62 108.795 78.66L108.805 78.67Z" fill="#3D3FD2"/>
<path d="M46.9455 268.39C46.9455 269.87 46.8655 271.34 46.7255 272.78H14.8755C10.9901 272.78 7.26399 271.236 4.51664 268.489C1.76929 265.741 0.225729 262.015 0.225464 258.13L0.225464 226.08C1.62103 225.939 3.02282 225.869 4.42546 225.87C15.7021 225.871 26.5167 230.351 34.4905 238.325C42.4643 246.299 46.9444 257.113 46.9455 268.39Z" fill="#474AD9"/>
<path d="M46.6315 263.3C46.1284 259.079 44.991 254.958 43.2575 251.077V258.096L27.6155 263.266C27.1802 263.41 26.7837 263.652 26.4565 263.973C26.1292 264.294 25.8799 264.685 25.7276 265.118C25.5753 265.55 25.5242 266.012 25.5781 266.467C25.6319 266.922 25.7895 267.359 26.0385 267.744L29.2995 272.784H36.4465L33.1855 267.744L46.6315 263.3Z" fill="#3D3FD2"/>
<path d="M31.2985 249.078C31.5265 248.666 31.6545 248.207 31.6722 247.737C31.6899 247.267 31.5967 246.799 31.4003 246.372C31.2039 245.944 30.9097 245.569 30.5414 245.276C30.1732 244.983 29.7412 244.781 29.2805 244.686L21.3575 243.049L10.8435 240.874C10.1368 240.728 9.40111 240.841 8.7713 241.194C8.1415 241.546 7.65978 242.113 7.41447 242.792L0.639465 261.533C1.2626 264.161 2.60181 266.566 4.50847 268.479L12.1735 247.279L21.3575 249.179L28.0655 250.567C28.6923 250.697 29.3442 250.623 29.9259 250.355C30.5075 250.088 30.9885 249.642 31.2985 249.082" fill="#3D3FD2"/>
<path d="M1.57446 230.795C1.21638 230.377 0.749355 230.068 0.225464 229.9L0.225464 235.876L1.22546 235.027C1.83222 234.512 2.20975 233.778 2.27501 232.985C2.34027 232.192 2.08792 231.406 1.57346 230.799" fill="#3D3FD2"/>
<path d="M16.1035 272.78H16.8695C16.6152 272.747 16.3577 272.747 16.1035 272.78Z" fill="#3D3FD2"/>
<path d="M17.6255 234.965C17.7623 235.339 17.972 235.681 18.2425 235.973C18.3547 236.095 18.4771 236.207 18.6085 236.308C19.0159 236.624 19.4983 236.828 20.0085 236.902C20.4595 236.969 20.9085 237.017 21.3585 237.055C21.9375 237.102 22.5155 237.129 23.0905 237.129C25.9089 237.128 28.6972 236.549 31.2835 235.429C29.2399 233.759 27.0455 232.283 24.7285 231.019C24.4945 231.046 24.2595 231.066 24.0225 231.082C23.8225 231.095 23.6195 231.104 23.4135 231.109C23.1901 231.114 22.9661 231.114 22.7415 231.109C22.3945 231.101 22.0465 231.092 21.6975 231.06H21.6405C21.5495 231.051 21.4575 231.037 21.3655 231.027C21.2165 231.01 21.0655 230.994 20.9185 230.973H20.8895C20.8295 230.964 20.7695 230.961 20.7095 230.956C20.6675 230.956 20.6255 230.946 20.5835 230.944H20.5605C20.4665 230.944 20.3745 230.944 20.2825 230.944C20.2683 230.946 20.2542 230.948 20.2405 230.952C20.0126 230.968 19.7874 231.011 19.5695 231.079L19.4625 231.114C19.2524 231.188 19.0512 231.286 18.8625 231.404C18.8325 231.423 18.8045 231.443 18.7755 231.463C18.5867 231.59 18.413 231.738 18.2575 231.904C18.2405 231.922 18.2275 231.942 18.2105 231.96C18.0494 232.141 17.9104 232.34 17.7965 232.554C17.7352 232.668 17.6821 232.786 17.6375 232.908V232.913C17.6305 232.934 17.6255 232.956 17.6185 232.978C17.5598 233.148 17.5166 233.324 17.4895 233.502C17.4744 233.603 17.4648 233.706 17.4605 233.808C17.4427 234.203 17.5036 234.598 17.6395 234.97" fill="#3D3FD2"/>
</svg>
