<?xml version="1.0" encoding="UTF-8"?>
<svg id="Layer_2" data-name="Layer 2" xmlns="http://www.w3.org/2000/svg" viewBox="0 0 8.28 8.39">
  <defs>
    <style>
      .cls-1 {
        fill: #6f8fea;
        stroke-width: 0px;
      }
    </style>
  </defs>
  <g id="Item_Select" data-name="Item Select">
    <g id="Group_37" data-name="Group 37">
      <path class="cls-1" d="m7.16,1.4c-.05-.09-.19-.09-.23-.09-.19.05-.24.23-.28.42-.19.79-.42.79-.52.79-.23-.04-.28-.18-.37-.56-.15-.7-.59-1.31-1.21-1.68-.28-.18-1.07-.37-1.31-.23-.04.09-.09.14-.04.23v.05c.18.51.65,1.87-.1,2.15-.41.23-.97-.14-1.44-.98-.05-.11-.16-.18-.28-.19-.14-.01-.26.07-.33.19C-.17,2.89-.34,4.91.63,6.48c.76,1.2,2.08,1.92,3.5,1.91.4.01.79-.06,1.17-.18,1.77-.52,2.99-2.16,2.98-4.01.01-1.04-.39-2.05-1.12-2.8Zm-3.54,5.92c-.35,0-.69-.09-.98-.28-.38-.18-.71-.48-.93-.84-.05-.05-.09-.11-.1-.18-.07-.13-.03-.28.1-.35.01-.01.03-.02.04-.03.13-.07.28-.02.36.1,0,.01.01.03.02.04.04.05.04.1.09.14.17.28.41.5.7.66.21.12.45.19.7.18.16.02.29.16.28.33,0,.14-.1.23-.28.23Z"/>
    </g>
  </g>
</svg>