<svg width="162" height="169" viewBox="0 0 162 169" fill="none" xmlns="http://www.w3.org/2000/svg">
<path d="M80.8691 31.2234C56.1691 31.2234 36.1491 51.2434 36.1491 75.9434C36.1491 100.643 56.1691 120.663 80.8691 120.663C105.569 120.663 125.589 100.643 125.589 75.9434C125.589 51.2434 105.569 31.2234 80.8691 31.2234ZM80.8691 104.483C65.1091 104.483 52.3291 91.7034 52.3291 75.9434C52.3291 60.1834 65.1091 47.4034 80.8691 47.4034C96.6291 47.4034 109.409 60.1834 109.409 75.9434C109.409 91.7034 96.6291 104.483 80.8691 104.483Z" fill="#474AD9"/>
<path d="M107.629 0.243404C107.249 0.233404 106.869 0.223404 106.479 0.223404C91.1691 0.223404 78.5391 11.7134 76.7391 26.5434C77.6291 26.6234 78.5291 26.6734 79.4491 26.6734C94.4391 26.6734 106.699 14.9934 107.629 0.243404Z" fill="url(#paint0_linear_244_114)"/>
<path d="M56.2291 14.5134C60.8391 21.1634 68.2391 25.7434 76.7391 26.5534C77.2591 22.2534 78.6891 18.2434 80.8291 14.7034C77.4791 11.8734 73.1491 10.1634 68.4191 10.1634C63.6891 10.1634 59.5491 11.7934 56.2291 14.5134Z" fill="url(#paint1_linear_244_114)"/>
<path d="M5.62913 151.773C4.06913 150.893 2.82913 149.683 1.91913 148.133C0.999133 146.583 0.549133 144.833 0.549133 142.893C0.549133 140.953 1.00913 139.203 1.91913 137.653C2.83913 136.103 4.06913 134.893 5.62913 134.023C7.18913 133.153 8.89913 132.723 10.7691 132.723C12.6391 132.723 14.3491 133.153 15.8991 134.023C17.4491 134.893 18.6791 136.103 19.5891 137.653C20.4991 139.203 20.9491 140.953 20.9491 142.893C20.9491 144.833 20.4991 146.583 19.5891 148.133C18.6791 149.683 17.4491 150.903 15.8891 151.773C14.3291 152.653 12.6191 153.093 10.7691 153.093C8.91913 153.093 7.18913 152.653 5.62913 151.773ZM13.6291 146.093C14.2991 145.303 14.6391 144.233 14.6391 142.883C14.6391 141.533 14.2991 140.443 13.6291 139.643C12.9591 138.853 11.9991 138.453 10.7691 138.453C9.53913 138.453 8.55913 138.853 7.87913 139.643C7.20913 140.433 6.86913 141.513 6.86913 142.883C6.86913 144.253 7.20913 145.303 7.87913 146.093C8.54913 146.883 9.50913 147.283 10.7691 147.283C12.0291 147.283 12.9591 146.883 13.6291 146.093Z" fill="#6F8FEA"/>
<path d="M33.1691 152.893L29.4391 145.773H29.4091V152.893H23.1891V133.043H32.4391C34.0491 133.043 35.4191 133.333 36.5591 133.903C37.6991 134.473 38.5491 135.253 39.1291 136.233C39.6991 137.213 39.9891 138.323 39.9891 139.553C39.9891 140.883 39.6191 142.053 38.8791 143.083C38.1391 144.113 37.0791 144.853 35.6991 145.293L40.0191 152.893H33.1791H33.1691ZM29.4091 141.623H31.8791C32.4791 141.623 32.9291 141.483 33.2291 141.213C33.5291 140.943 33.6791 140.513 33.6791 139.933C33.6791 139.413 33.5291 139.003 33.2191 138.703C32.9091 138.403 32.4691 138.253 31.8891 138.253H29.4191V141.613L29.4091 141.623Z" fill="#6F8FEA"/>
<path d="M54.6992 149.893H48.0792L47.0992 152.893H40.5692L47.8292 133.043H55.0092L62.2392 152.893H55.6792L54.6992 149.893ZM53.1892 145.213L51.3992 139.693L49.6092 145.213H53.1992H53.1892Z" fill="#6F8FEA"/>
<path d="M82.6691 152.893H76.4491L69.8591 142.913V152.893H63.6391V133.043H69.8591L76.4491 143.193V133.043H82.6691V152.893Z" fill="#6F8FEA"/>
<path d="M97.6391 139.833C97.3991 139.443 97.0491 139.133 96.5991 138.923C96.1491 138.713 95.6091 138.603 94.9691 138.603C93.7691 138.603 92.8491 138.993 92.1991 139.763C91.5491 140.543 91.2191 141.603 91.2191 142.943C91.2191 144.493 91.5791 145.653 92.3091 146.423C93.0391 147.193 94.1591 147.573 95.6691 147.573C97.1791 147.573 98.2691 146.993 99.1491 145.833H94.1891V141.433H104.309V147.653C103.449 149.133 102.259 150.393 100.749 151.453C99.2391 152.513 97.3191 153.033 94.9991 153.033C92.9391 153.033 91.1591 152.613 89.6291 151.753C88.1091 150.903 86.9391 149.713 86.1291 148.183C85.3191 146.653 84.9091 144.903 84.9091 142.943C84.9091 140.983 85.3191 139.233 86.1291 137.703C86.9391 136.173 88.1091 134.983 89.6191 134.133C91.1291 133.283 92.9091 132.853 94.9491 132.853C97.5491 132.853 99.6591 133.483 101.299 134.733C102.929 135.983 103.899 137.683 104.199 139.833H97.6391Z" fill="#6F8FEA"/>
<path d="M112.779 138.003V140.443H118.949V145.123H112.779V147.923H119.789V152.883H106.559V133.033H119.789V137.993H112.779V138.003Z" fill="#6F8FEA"/>
<path d="M132.119 152.893L128.389 145.773H128.359V152.893H122.139V133.043H131.389C132.999 133.043 134.369 133.333 135.509 133.903C136.649 134.473 137.499 135.253 138.079 136.233C138.649 137.213 138.939 138.323 138.939 139.553C138.939 140.883 138.569 142.053 137.829 143.083C137.089 144.113 136.029 144.853 134.649 145.293L138.969 152.893H132.129H132.119ZM128.359 141.623H130.829C131.429 141.623 131.879 141.483 132.179 141.213C132.479 140.943 132.629 140.513 132.629 139.933C132.629 139.413 132.479 139.003 132.169 138.703C131.859 138.403 131.419 138.253 130.839 138.253H128.369V141.613L128.359 141.623Z" fill="#6F8FEA"/>
<path d="M153.649 149.893H147.029L146.049 152.893H139.519L146.779 133.043H153.959L161.189 152.893H154.629L153.649 149.893ZM152.139 145.213L150.349 139.693L148.559 145.213H152.149H152.139Z" fill="#6F8FEA"/>
<path d="M33.5491 167.933H32.7991L28.6291 161.603V167.933H27.8791V160.403H28.6291L32.7991 166.723V160.403H33.5491V167.933Z" fill="#2F2F51"/>
<path d="M38.6791 160.403V165.143C38.6791 165.893 38.8591 166.443 39.2091 166.803C39.5691 167.163 40.0491 167.343 40.6691 167.343C41.2891 167.343 41.7691 167.163 42.1191 166.813C42.4691 166.453 42.6391 165.903 42.6391 165.153V160.413H43.3891V165.143C43.3891 166.093 43.1391 166.813 42.6291 167.293C42.1191 167.773 41.4691 168.013 40.6491 168.013C39.8291 168.013 39.1791 167.773 38.6691 167.293C38.1591 166.813 37.9091 166.093 37.9091 165.143V160.413H38.6591L38.6791 160.403Z" fill="#2F2F51"/>
<path d="M52.1691 160.403V161.023H50.0791V167.923H49.3291V161.023H47.2291V160.403H52.1691Z" fill="#2F2F51"/>
<path d="M60.0591 167.933L58.1991 164.793H56.8091V167.933H56.0591V160.403H58.3191C59.1591 160.403 59.7991 160.603 60.2291 161.003C60.6591 161.403 60.8791 161.933 60.8791 162.583C60.8791 163.133 60.7191 163.593 60.4091 163.973C60.0991 164.353 59.6391 164.603 59.0291 164.723L60.9691 167.923H60.0691L60.0591 167.933ZM56.8091 164.173H58.3291C58.9191 164.173 59.3591 164.033 59.6591 163.743C59.9591 163.453 60.1091 163.073 60.1091 162.593C60.1091 162.113 59.9691 161.713 59.6791 161.443C59.3891 161.173 58.9391 161.043 58.3191 161.043H56.8091V164.173Z" fill="#2F2F51"/>
<path d="M65.819 160.403V167.933H65.069V160.403H65.819Z" fill="#2F2F51"/>
<path d="M74.6291 160.403V161.023H72.5391V167.923H71.7891V161.023H69.6891V160.403H74.6291Z" fill="#2F2F51"/>
<path d="M79.2691 160.403V167.933H78.5191V160.403H79.2691Z" fill="#2F2F51"/>
<path d="M85.159 167.513C84.589 167.183 84.149 166.733 83.819 166.143C83.489 165.553 83.329 164.893 83.329 164.153C83.329 163.413 83.489 162.753 83.819 162.163C84.149 161.583 84.589 161.123 85.159 160.793C85.729 160.463 86.359 160.303 87.049 160.303C87.739 160.303 88.389 160.463 88.959 160.793C89.529 161.123 89.969 161.573 90.289 162.163C90.609 162.753 90.769 163.413 90.769 164.153C90.769 164.893 90.609 165.553 90.289 166.143C89.969 166.723 89.519 167.183 88.959 167.513C88.389 167.843 87.759 168.003 87.049 168.003C86.339 168.003 85.719 167.843 85.159 167.513ZM88.559 166.963C89.009 166.703 89.359 166.333 89.619 165.853C89.879 165.373 90.009 164.803 90.009 164.163C90.009 163.523 89.879 162.963 89.619 162.483C89.359 162.003 89.009 161.633 88.559 161.373C88.109 161.113 87.609 160.983 87.049 160.983C86.489 160.983 85.989 161.113 85.539 161.373C85.089 161.633 84.739 162.003 84.479 162.483C84.219 162.963 84.089 163.523 84.089 164.163C84.089 164.803 84.219 165.363 84.479 165.853C84.739 166.333 85.089 166.713 85.539 166.963C85.979 167.223 86.489 167.353 87.049 167.353C87.609 167.353 88.109 167.223 88.559 166.963Z" fill="#2F2F51"/>
<path d="M100.519 167.933H99.7691L95.5991 161.603V167.933H94.8491V160.403H95.5991L99.7691 166.723V160.403H100.519V167.933Z" fill="#2F2F51"/>
<path d="M114.929 166.143H111.509L110.849 167.933H110.049L112.799 160.503H113.649L116.379 167.933H115.579L114.919 166.143H114.929ZM114.699 165.523L113.209 161.453L111.719 165.523H114.689H114.699Z" fill="#2F2F51"/>
<path d="M124.449 164.123C124.029 164.513 123.389 164.713 122.539 164.713H121.019V167.923H120.269V160.393H122.539C123.379 160.393 124.009 160.593 124.439 160.983C124.869 161.373 125.079 161.903 125.079 162.553C125.079 163.203 124.869 163.723 124.439 164.113L124.449 164.123ZM124.309 162.563C124.309 162.063 124.169 161.683 123.889 161.423C123.609 161.163 123.159 161.033 122.539 161.033H121.019V164.073H122.539C123.719 164.073 124.309 163.573 124.309 162.563Z" fill="#2F2F51"/>
<path d="M133.219 164.123C132.799 164.513 132.159 164.713 131.309 164.713H129.789V167.923H129.039V160.393H131.309C132.149 160.393 132.779 160.593 133.209 160.983C133.639 161.373 133.849 161.903 133.849 162.553C133.849 163.203 133.639 163.723 133.209 164.113L133.219 164.123ZM133.079 162.563C133.079 162.063 132.939 161.683 132.659 161.423C132.379 161.163 131.929 161.033 131.309 161.033H129.789V164.073H131.309C132.489 164.073 133.079 163.573 133.079 162.563Z" fill="#2F2F51"/>
<defs>
<linearGradient id="paint0_linear_244_114" x1="76.7391" y1="13.4534" x2="107.629" y2="13.4534" gradientUnits="userSpaceOnUse">
<stop stop-color="#22B573"/>
<stop offset="1" stop-color="#22B533"/>
</linearGradient>
<linearGradient id="paint1_linear_244_114" x1="56.2291" y1="18.3534" x2="80.8291" y2="18.3534" gradientUnits="userSpaceOnUse">
<stop stop-color="#1C805D"/>
<stop offset="1" stop-color="#1C995D"/>
</linearGradient>
</defs>
</svg>
