<svg width="117" height="178" viewBox="0 0 117 178" fill="none" xmlns="http://www.w3.org/2000/svg">
<path d="M8.62601 0H16.626C43.1477 0 68.583 10.5357 87.3367 29.2893C106.09 48.043 116.626 73.4784 116.626 100V170C116.626 172.122 115.783 174.157 114.283 175.657C112.783 177.157 110.748 178 108.626 178H8.62601C6.50428 178 4.46944 177.157 2.96915 175.657C1.46886 174.157 0.626007 172.122 0.626007 170V8C0.626007 5.87827 1.46886 3.84344 2.96915 2.34315C4.46944 0.842855 6.50428 0 8.62601 0Z" fill="url(#paint0_linear_84_178)"/>
<g style="mix-blend-mode:overlay" opacity="0.2">
<path d="M0.626007 36.2251V8.00012C0.626007 5.87839 1.46886 3.84356 2.96915 2.34327C4.46944 0.84298 6.50428 0.000125295 8.62601 0.000125295H16.626C37.0374 -0.0322511 56.9654 6.2107 73.71 17.8831C70.9487 26.8905 65.3703 34.7744 57.795 40.3756C50.2197 45.9767 41.0472 48.9998 31.626 49.0001C20.0087 49.015 8.8599 44.4206 0.626007 36.2251Z" fill="white"/>
</g>
<defs>
<linearGradient id="paint0_linear_84_178" x1="0.626007" y1="0" x2="163.468" y2="106.122" gradientUnits="userSpaceOnUse">
<stop stop-color="#7D99EC"/>
<stop offset="1" stop-color="#5A5DDD"/>
</linearGradient>
</defs>
</svg>
