<svg width="51" height="45" viewBox="0 0 51 45" fill="none" xmlns="http://www.w3.org/2000/svg">
<path d="M44.264 35.375V35.2049C43.784 35.2949 43.294 35.395 42.814 35.495C42.6786 35.5247 42.5413 35.5447 42.403 35.5549C41.2151 35.733 40.0018 35.6269 38.863 35.245C37.2867 34.7915 35.8696 33.9042 34.7734 32.6842C33.6771 31.4641 32.9459 29.9605 32.663 28.3449C32.3075 26.6251 32.5035 24.837 33.223 23.2349C33.294 23.0549 33.363 22.8749 33.433 22.6949H33.233C32.193 22.6849 31.133 22.6749 30.093 22.6549C29.293 22.6649 28.493 22.6749 27.703 22.6749C27.5065 22.6706 27.315 22.6124 27.1494 22.5066C26.9838 22.4007 26.8505 22.2514 26.764 22.0749C26.2699 21.2294 25.5583 20.5318 24.703 20.0549C24.274 19.8849 23.843 19.7149 23.403 19.5449C22.5096 19.3695 21.5872 19.4106 20.713 19.6649C19.7613 19.9541 18.914 20.5134 18.274 21.2749C18.183 21.3749 18.123 21.5249 17.943 21.5149C17.9612 21.5669 17.9602 21.6237 17.9402 21.675C17.9203 21.7264 17.8826 21.7689 17.834 21.7949C17.803 21.8649 17.764 21.9249 17.734 21.9849V21.995C17.7016 22.0295 17.6715 22.0663 17.644 22.1049C17.5829 22.2829 17.4644 22.4355 17.3071 22.5387C17.1497 22.6419 16.9626 22.6897 16.775 22.6749C15.984 22.6949 15.194 22.6649 14.394 22.6649H11.164C10.224 22.6649 9.27502 22.7149 8.33502 22.6649C7.90187 22.6388 7.48117 22.5097 7.10809 22.288C6.73502 22.0664 6.42036 21.7589 6.19031 21.391C5.96025 21.023 5.82147 20.6054 5.78558 20.1729C5.74969 19.7405 5.81775 19.3057 5.98401 18.9049C6.78877 16.6973 8.03397 14.6764 9.64398 12.9649C11.9621 10.4678 14.9754 8.72273 18.295 7.95492C19.9039 7.5461 21.5691 7.40417 23.224 7.53488C26.4644 7.72309 29.5859 8.82263 32.2289 10.7068C34.872 12.5909 36.9293 15.183 38.164 18.1849C38.184 18.2349 38.214 18.2949 38.234 18.3549C39.397 17.9369 40.6288 17.7434 41.864 17.7849C42.0728 17.7917 42.2804 17.8186 42.484 17.865C42.484 17.865 42.484 17.855 42.495 17.865C42.6171 17.8857 42.7375 17.9157 42.855 17.9549C43.3309 18.0059 43.8022 18.0928 44.265 18.2149V18.0349C44.275 13.8049 44.2784 9.57493 44.275 5.34493C44.2826 4.60615 44.1146 3.87612 43.785 3.21493C43.3888 2.40434 42.7635 1.72786 41.9865 1.26925C41.2095 0.810642 40.3151 0.589991 39.414 0.634852H8.13397C7.67397 0.634852 7.21401 0.644862 6.76501 0.644862C6.74501 0.764862 6.68397 0.794925 6.57397 0.834925C5.57454 1.10645 4.69815 1.71182 4.09051 2.5505C3.48288 3.38918 3.18065 4.41062 3.23401 5.44491C3.23401 16.9449 3.23066 28.4449 3.224 39.9449C3.2029 40.9746 3.52436 41.9821 4.13794 42.8093C4.75152 43.6365 5.6225 44.2363 6.61401 44.5149C6.73401 44.5549 6.84398 44.5549 6.85498 44.7049C7.33498 44.7049 7.80402 44.7149 8.27502 44.7149H38.964C39.472 44.7148 39.9795 44.6848 40.484 44.625C41.4252 44.4469 42.2877 43.9807 42.9523 43.291C43.617 42.6013 44.0509 41.722 44.194 40.7749C44.357 38.9749 44.257 37.165 44.264 35.375ZM23.223 25.8149C23.0609 25.9501 22.8733 26.0514 22.6713 26.1126C22.4693 26.1739 22.2571 26.1939 22.0472 26.1715C21.8373 26.1491 21.6341 26.0847 21.4495 25.9823C21.265 25.8798 21.103 25.7413 20.973 25.5749C20.712 25.2586 20.5684 24.8618 20.5665 24.4517C20.5647 24.0417 20.7048 23.6435 20.963 23.3249C21.2462 23.0176 21.6309 22.823 22.0462 22.7771C22.4615 22.7311 22.8795 22.8369 23.223 23.0749C23.453 23.2219 23.6423 23.4245 23.7734 23.6639C23.9045 23.9033 23.9732 24.1719 23.9732 24.4449C23.9732 24.7179 23.9045 24.9865 23.7734 25.2259C23.6423 25.4653 23.453 25.6679 23.223 25.8149Z" fill="#FF315D"/>
<path d="M6.75699 0.645947C6.74499 0.759947 6.67598 0.797836 6.56998 0.832836C5.5715 1.1061 4.6963 1.71219 4.08926 2.55073C3.48223 3.38927 3.17975 4.41004 3.23196 5.44392C3.23196 16.9446 3.22961 28.4446 3.22495 39.9439C3.20276 40.974 3.52381 41.9821 4.13754 42.8096C4.75127 43.6372 5.62283 44.237 6.61496 44.5148C6.73096 44.5468 6.84197 44.5539 6.85397 44.7039C5.68404 44.8038 4.50569 44.7238 3.35996 44.4669C2.48112 44.1771 1.70986 43.6295 1.14645 42.8955C0.583048 42.1614 0.253582 41.2748 0.200959 40.3509C0.192959 40.1719 0.194977 39.9918 0.194977 39.8118C0.194977 28.3818 0.221958 16.9519 0.174958 5.52192C0.150042 4.87059 0.260341 4.22115 0.498932 3.61457C0.737523 3.008 1.09921 2.45745 1.56119 1.99763C2.02317 1.53781 2.57545 1.17869 3.18314 0.942944C3.79082 0.707199 4.44074 0.599911 5.09195 0.62788C5.64895 0.65988 6.20499 0.641947 6.75699 0.645947Z" fill="#DD2C5B"/>
<path d="M23.228 7.53696C22.949 7.83196 22.559 7.70792 22.228 7.76792C19.2217 8.31173 16.4128 9.64072 14.0857 11.6201C11.7586 13.5995 9.99612 16.1589 8.97702 19.0389C8.84551 19.4073 8.79593 19.7998 8.8317 20.1893C8.86746 20.5788 8.98772 20.9558 9.18411 21.294C9.38051 21.6323 9.64831 21.9237 9.96884 22.1478C10.2894 22.3719 10.6549 22.5235 11.04 22.5919C11.0853 22.6082 11.1279 22.6315 11.166 22.6609C10.22 22.6659 9.27305 22.7099 8.33005 22.6679C7.89777 22.6405 7.47827 22.5103 7.10629 22.2884C6.73431 22.0665 6.42052 21.7592 6.19101 21.3918C5.9615 21.0245 5.82281 20.6077 5.78647 20.1761C5.75012 19.7445 5.81717 19.3104 5.98202 18.9099C6.78374 16.6992 8.02889 14.6759 9.64102 12.964C11.9595 10.4656 14.9741 8.71999 18.295 7.95285C19.9058 7.54688 21.572 7.40648 23.228 7.53696Z" fill="#549FFD"/>
<path d="M14.398 22.6609C14.6829 21.605 15.1837 20.6197 15.8687 19.7672C16.5538 18.9147 17.4082 18.2134 18.378 17.7079C19.9199 16.8344 21.715 16.5168 23.463 16.808C23.5235 16.8269 23.581 16.8541 23.634 16.8889C21.8569 17.2769 20.2564 18.2374 19.078 19.6229C18.5496 20.1494 18.1588 20.7979 17.94 21.511V21.5039C17.813 21.5699 17.84 21.6879 17.84 21.7989V21.7939C17.756 21.8309 17.74 21.9069 17.74 21.9859L17.649 22.1009C17.5875 22.278 17.4687 22.4295 17.3116 22.5316C17.1544 22.6337 16.9678 22.6806 16.781 22.6649C15.981 22.6899 15.189 22.6659 14.398 22.6609Z" fill="#348DEE"/>
<path d="M38.233 18.355C36.1744 19.1953 34.4758 20.7311 33.433 22.6949H33.233C32.193 22.6849 31.133 22.6749 30.093 22.6549C29.9049 21.7295 29.4929 20.8642 28.893 20.1349C28.1328 18.9912 27.046 18.1027 25.774 17.585C25.537 17.4585 25.2933 17.345 25.044 17.245C24.8079 17.1528 24.5672 17.0726 24.323 17.0049C24.1067 16.908 23.8687 16.8701 23.633 16.8949C23.5805 16.86 23.5233 16.8331 23.463 16.8149C21.7145 16.5223 19.9184 16.8364 18.373 17.705C17.404 18.2134 16.5505 18.9163 15.8656 19.7698C15.1808 20.6232 14.6795 21.6088 14.393 22.6649H11.163C11.1281 22.6343 11.0877 22.6107 11.044 22.595C10.6582 22.5262 10.2919 22.3742 9.97075 22.1497C9.64956 21.9251 9.38113 21.6333 9.18406 21.2946C8.987 20.9558 8.86602 20.5782 8.82957 20.188C8.79312 19.7978 8.84209 19.4043 8.973 19.0349C9.99942 16.1577 11.7652 13.6015 14.0929 11.6232C16.4205 9.64484 19.2279 8.31412 22.233 7.76489C22.564 7.70489 22.953 7.83491 23.223 7.53491C26.4634 7.72313 29.5848 8.82266 32.2279 10.7068C34.871 12.5909 36.9283 15.1831 38.163 18.1849C38.183 18.2349 38.213 18.295 38.233 18.355Z" fill="#89C1FE"/>
<path d="M30.094 22.6549C29.294 22.6649 28.494 22.6749 27.704 22.6749C27.5074 22.6706 27.3157 22.6124 27.1499 22.5066C26.9841 22.4007 26.8506 22.2515 26.764 22.0749C26.2703 21.2295 25.559 20.5319 24.704 20.0549C24.274 19.8849 23.844 19.7149 23.404 19.5449C23.384 19.5449 23.364 19.5349 23.344 19.5349C22.8094 19.4401 22.2642 19.4199 21.724 19.4749C21.3811 19.4985 21.0421 19.5622 20.714 19.6649C19.762 19.9541 18.9144 20.5134 18.274 21.2749C18.184 21.3749 18.124 21.5249 17.944 21.5149V21.5048C18.159 20.7942 18.5473 20.1483 19.074 19.625C19.8085 18.7657 20.7101 18.0647 21.724 17.5649C22.2412 17.3106 22.7844 17.1128 23.344 16.9749C23.4389 16.9424 23.5358 16.9156 23.634 16.8949C23.8696 16.87 24.1077 16.9079 24.324 17.0048C24.5678 17.0727 24.8082 17.153 25.044 17.245C25.2934 17.3448 25.5371 17.4582 25.774 17.5849C27.0464 18.1024 28.1336 18.9908 28.894 20.1348C29.4939 20.8642 29.9059 21.7294 30.094 22.6549Z" fill="#549FFD"/>
<path d="M23.227 25.8149C23.0643 25.9503 22.876 26.0515 22.6734 26.1127C22.4708 26.1738 22.258 26.1937 22.0476 26.171C21.8371 26.1484 21.6334 26.0836 21.4485 25.9807C21.2636 25.8778 21.1012 25.7388 20.971 25.5719C20.7105 25.2567 20.5674 24.8609 20.5663 24.452C20.5652 24.0431 20.7061 23.6465 20.965 23.33C21.247 23.0227 21.6305 22.8274 22.0449 22.78C22.4593 22.7326 22.8769 22.8362 23.221 23.0719C23.1661 23.1506 23.1063 23.2258 23.042 23.297C22.8679 23.4639 22.7328 23.6672 22.6463 23.8923C22.5598 24.1175 22.5241 24.3589 22.5418 24.5995C22.5595 24.84 22.6301 25.0737 22.7485 25.2838C22.867 25.4939 23.0303 25.6753 23.227 25.8149Z" fill="#2E3C47"/>
<path d="M23.227 25.8149C23.0303 25.6753 22.867 25.4939 22.7485 25.2838C22.6301 25.0737 22.5595 24.84 22.5418 24.5995C22.5241 24.3589 22.5598 24.1175 22.6463 23.8923C22.7328 23.6672 22.8679 23.4639 23.042 23.297C23.1063 23.2258 23.1661 23.1506 23.221 23.0719C23.4511 23.219 23.6406 23.4215 23.772 23.6609C23.9034 23.9002 23.9726 24.1687 23.9732 24.4418C23.9737 24.7148 23.9058 24.9837 23.7754 25.2236C23.645 25.4636 23.4564 25.6669 23.227 25.8149Z" fill="#3E4B5A"/>
<path d="M17.835 21.8009C17.835 21.6899 17.812 21.572 17.935 21.506C17.9549 21.5591 17.9558 21.6175 17.9376 21.6713C17.9194 21.725 17.8832 21.7708 17.835 21.8009Z" fill="#549FFD"/>
<path d="M17.732 21.9879C17.739 21.9089 17.753 21.8329 17.832 21.7959L17.732 21.9879Z" fill="#549FFD"/>
<path d="M23.344 10.5449V19.5349C22.8094 19.4401 22.2642 19.42 21.724 19.475V10.5449C21.724 10.3301 21.8093 10.1241 21.9612 9.97217C22.1131 9.82026 22.3192 9.73499 22.534 9.73499C22.7488 9.73499 22.9548 9.82026 23.1068 9.97217C23.2587 10.1241 23.344 10.3301 23.344 10.5449Z" fill="#E1E8F7"/>
<path d="M41.424 35.8239C46.4603 35.8239 50.543 31.7412 50.543 26.7049C50.543 21.6687 46.4603 17.5859 41.424 17.5859C36.3877 17.5859 32.305 21.6687 32.305 26.7049C32.305 31.7412 36.3877 35.8239 41.424 35.8239Z" fill="#F7931E"/>
<g style="mix-blend-mode:multiply" opacity="0.5">
<path d="M32.905 29.964C32.477 28.7788 32.2768 27.5234 32.315 26.2639C32.3278 25.9181 32.3877 25.5756 32.493 25.246C32.8106 26.9683 33.6195 28.562 34.8221 29.8352C36.0247 31.1084 37.5698 32.0067 39.2713 32.4219C40.9727 32.8371 42.7579 32.7515 44.4118 32.1754C46.0657 31.5993 47.5177 30.5573 48.593 29.1749C49.4679 28.027 50.0821 26.7023 50.393 25.293C50.6539 26.6352 50.5668 28.0219 50.14 29.3209C49.6767 30.9297 48.7705 32.3759 47.5248 33.4944C46.2791 34.6129 44.7442 35.3588 43.095 35.647C41.341 36.0141 39.5159 35.8166 37.881 35.0829C37.698 35.0039 37.511 34.9369 37.326 34.8639C35.3241 33.7985 33.7595 32.0645 32.905 29.964Z" fill="#F7931E"/>
</g>
<path d="M43.241 23.766C43.87 24.202 44.487 24.656 45.108 25.102C45.729 25.548 46.365 25.9729 46.992 26.4109C47.249 26.5889 47.254 26.7719 46.992 26.9569C45.717 27.8629 44.446 28.774 43.166 29.673C42.831 29.909 42.713 29.7109 42.711 29.3889C42.706 28.755 42.711 28.1219 42.711 27.4889L35.868 27.4779C35.268 27.4779 34.92 27.199 34.904 26.715C34.887 26.201 35.235 25.895 35.869 25.892C37.984 25.892 40.097 25.878 42.212 25.901C42.637 25.901 42.761 25.781 42.729 25.37C42.7055 24.921 42.7055 24.471 42.729 24.022C42.736 23.585 42.876 23.515 43.241 23.766Z" fill="#E4E7F4"/>
</svg>
