<?xml version="1.0" encoding="UTF-8"?>
<svg id="Layer_2" data-name="Layer 2" xmlns="http://www.w3.org/2000/svg" viewBox="0 0 17.43 17.43">
  <defs>
    <style>
      .cls-1 {
        fill: #6f8fea;
        stroke-width: 0px;
      }
    </style>
  </defs>
  <g id="Item_Select" data-name="Item Select">
    <path class="cls-1" d="m15.3,12.4c3.03-3.03,2.82-8.07-.62-10.83-2.61-2.09-6.41-2.09-9.03,0-2.97,2.38-3.53,6.45-1.68,9.47l-.15.15-2.42,2.42.3-.3-1.21,1.21c-.67.67-.67,1.75,0,2.42h0c.67.67,1.75.67,2.42,0l1.21-1.21-.3.3,2.42-2.42.15-.15c2.8,1.71,6.49,1.36,8.91-1.06Zm-7.86-2.42c-1.5-1.5-1.5-3.94,0-5.44s3.94-1.5,5.44,0,1.5,3.94,0,5.44-3.94,1.5-5.44,0Z"/>
  </g>
</svg>