<svg width="360" height="383" viewBox="0 0 360 383" fill="none" xmlns="http://www.w3.org/2000/svg">
<path d="M359.998 0V297.29C358.858 298.26 357.718 299.23 356.568 300.18C355.298 301.24 354.028 302.29 352.738 303.32C351.808 304.08 350.878 304.82 349.938 305.57C349.658 305.8 349.368 306.02 349.078 306.24C348.218 306.93 347.348 307.6 346.478 308.27C346.449 308.302 346.415 308.329 346.378 308.35C346.208 308.49 346.028 308.63 345.848 308.76C344.958 309.45 344.058 310.14 343.158 310.81C340.338 312.943 337.488 315.033 334.608 317.08C333.597 317.79 332.581 318.5 331.558 319.21C327.887 321.77 324.16 324.257 320.378 326.67C320.338 326.7 320.298 326.72 320.258 326.75H320.248C319.348 327.33 318.438 327.9 317.538 328.47C316.638 329.04 315.728 329.59 314.828 330.15C314.718 330.22 314.608 330.29 314.498 330.35C311.838 331.99 309.151 333.59 306.438 335.15C306.058 335.37 305.678 335.59 305.288 335.81C303.578 336.79 301.847 337.76 300.117 338.71C299.338 339.15 298.548 339.58 297.758 340C297.478 340.15 297.208 340.3 296.928 340.45C296.038 340.93 295.148 341.4 294.258 341.87C294.218 341.89 294.168 341.92 294.128 341.94C293.218 342.42 292.308 342.89 291.387 343.36C291.258 343.43 291.128 343.5 290.987 343.57C290.567 343.79 290.136 344.01 289.707 344.23C289.703 344.234 289.698 344.237 289.693 344.239C289.688 344.24 289.682 344.241 289.677 344.24L289.616 344.27C289.136 344.52 288.647 344.76 288.167 345C287.156 345.51 286.147 346.01 285.136 346.51C284.977 346.59 284.807 346.67 284.647 346.75C284.636 346.75 284.636 346.76 284.627 346.76C284.047 347.04 283.477 347.32 282.897 347.6C282.027 348.02 281.136 348.44 280.257 348.86C279.989 348.987 279.72 349.108 279.452 349.234C279.42 349.248 279.388 349.266 279.357 349.28L278.449 349.7C277.769 350.016 277.091 350.337 276.406 350.65C276.397 350.66 276.377 350.66 276.357 350.67C275.377 351.12 274.397 351.57 273.406 352C273.167 352.11 272.927 352.21 272.687 352.32C272.217 352.54 271.737 352.75 271.257 352.95C271.189 352.987 271.119 353.021 271.047 353.05C270.977 353.08 270.917 353.11 270.847 353.14C270.538 353.27 270.228 353.41 269.918 353.54C269.838 353.57 269.758 353.61 269.678 353.64C269.468 353.73 269.268 353.82 269.058 353.91C268.617 354.1 268.178 354.29 267.738 354.47C267.157 354.72 266.578 354.97 265.998 355.21C265.788 355.3 265.568 355.39 265.358 355.48H265.347C265.282 355.511 265.215 355.538 265.147 355.56C262.357 356.73 259.547 357.86 256.717 358.95C255.267 359.51 253.81 360.06 252.346 360.6C250.886 361.15 249.427 361.68 247.957 362.2C246.487 362.72 245.017 363.24 243.547 363.74C240.587 364.76 237.614 365.733 234.627 366.66C233.136 367.13 231.636 367.58 230.136 368.03H230.127C229.116 368.33 228.096 368.63 227.077 368.93C226.325 369.149 225.567 369.35 224.815 369.562L223.282 369.99C222.59 370.181 221.903 370.382 221.207 370.57C220.096 370.87 218.987 371.16 217.866 371.45C216.837 371.72 215.807 371.98 214.766 372.24C212.966 372.7 211.155 373.14 209.345 373.55C208.976 373.64 208.615 373.73 208.245 373.81C206.675 374.17 205.105 374.52 203.525 374.87C202.125 375.17 200.725 375.46 199.325 375.74C198.355 375.94 197.375 376.13 196.404 376.32C195.654 376.47 194.904 376.61 194.154 376.75C193.364 376.9 192.565 377.05 191.775 377.19C190.325 377.45 188.875 377.71 187.425 377.95C186.344 378.13 185.255 378.31 184.165 378.48C183.005 378.67 181.835 378.85 180.665 379.02C180.475 379.05 180.275 379.08 180.075 379.11C178.945 379.28 177.805 379.44 176.675 379.59C175.645 379.73 174.614 379.87 173.575 380C173.525 380.01 173.465 380.01 173.415 380.02C172.645 380.12 171.884 380.21 171.125 380.3C171.075 380.31 171.035 380.31 170.985 380.32C170.634 380.37 170.275 380.41 169.925 380.45C169.065 380.55 168.215 380.65 167.364 380.74C166.375 380.85 165.395 380.96 164.404 381.06L160.665 381.42C159.575 381.52 158.475 381.61 157.375 381.7C156.735 381.76 156.105 381.81 155.465 381.85C154.614 381.92 153.755 381.98 152.904 382.04C152.555 382.07 152.195 382.09 151.844 382.11C151.665 382.12 151.485 382.13 151.305 382.15C150.305 382.217 149.305 382.277 148.305 382.33C146.955 382.41 145.614 382.48 144.265 382.54H144.195C142.935 382.6 141.665 382.65 140.395 382.7C139.475 382.73 138.565 382.76 137.645 382.78C136.654 382.81 135.665 382.83 134.665 382.85C134.384 382.86 134.105 382.86 133.825 382.87C133.355 382.88 132.875 382.88 132.404 382.89C131.933 382.9 131.475 382.9 131.004 382.9C129.894 382.91 128.774 382.92 127.664 382.92C126.554 382.92 125.434 382.91 124.324 382.9C123.534 382.9 122.744 382.89 121.954 382.87C121.194 382.86 120.434 382.85 119.684 382.83C119.544 382.83 119.394 382.82 119.254 382.82C117.854 382.79 116.464 382.75 115.064 382.7C113.734 382.66 112.394 382.6 111.064 382.54C111.007 382.542 110.95 382.539 110.894 382.53C109.604 382.48 108.324 382.41 107.034 382.34C106.104 382.28 105.184 382.23 104.254 382.17L103.504 382.12L101.644 381.99C101.214 381.96 100.774 381.93 100.344 381.89C99.535 381.83 98.725 381.77 97.915 381.7C95.594 381.51 93.295 381.3 90.995 381.07L90.725 381.04C89.864 380.95 89.005 380.86 88.145 380.76C87.605 380.71 87.065 380.65 86.525 380.58C85.985 380.52 85.445 380.45 84.904 380.39C83.835 380.27 82.755 380.13 81.675 379.99C79.015 379.65 76.375 379.28 73.735 378.88C73.565 378.85 73.395 378.83 73.225 378.8C72.404 378.68 71.585 378.55 70.765 378.42C70.685 378.41 70.594 378.39 70.515 378.38C69.575 378.23 68.634 378.08 67.695 377.91C66.864 377.78 66.035 377.64 65.205 377.48C64.455 377.36 63.705 377.22 62.955 377.08C62.285 376.96 61.614 376.84 60.955 376.71C59.904 376.51 58.844 376.31 57.795 376.1C56.895 375.93 55.995 375.74 55.095 375.55C54.856 375.5 54.626 375.45 54.385 375.4C53.885 375.31 53.396 375.2 52.905 375.09C52.095 374.93 51.286 374.75 50.476 374.57C49.776 374.42 49.076 374.26 48.376 374.1C48.266 374.08 48.166 374.05 48.056 374.03C46.576 373.7 45.106 373.35 43.635 372.99C42.776 372.79 41.926 372.58 41.066 372.37L40.696 372.28L40.356 372.19C39.385 371.95 38.426 371.7 37.456 371.45C35.396 370.92 33.345 370.36 31.306 369.79C30.286 369.51 29.266 369.22 28.246 368.92C27.226 368.63 26.206 368.33 25.196 368.03H25.186C24.115 367.71 23.056 367.39 21.986 367.06C20.916 366.73 19.865 366.4 18.806 366.07C17.536 365.66 16.276 365.25 15.016 364.83C14.166 364.55 13.326 364.27 12.486 363.98C11.676 363.71 10.865 363.43 10.056 363.15C6.676 361.98 3.32264 360.757 -0.00402832 359.48V0H359.998Z" fill="url(#paint0_linear_2_1380)"/>
<path opacity="0.12" d="M352.422 296.445C331.157 353.851 213.708 382.054 99.422 325.511C0.975014 276.803 10.668 205.111 92.438 116.619C131.008 74.8751 185.367 59.619 209.063 54.792C214.404 53.6645 219.962 54.1936 224.995 56.3081C230.028 58.4226 234.296 62.022 237.229 66.626C241.211 73.02 242.803 81.626 236.734 92.404C236.709 92.455 236.677 92.499 236.652 92.55C229.468 104.905 229.544 120.597 243.383 143.842C263.613 177.82 373.686 239.046 352.422 296.445Z" fill="url(#paint1_linear_2_1380)"/>
<path d="M346.189 340.794C340.536 336.406 334.023 333.254 327.074 331.544C324.911 333.707 322.274 336.244 322.274 336.244L322.63 330.661C297.801 326.817 275.311 341.291 275.311 341.291C288.775 351.968 300.83 355.818 311.016 356.1C311.825 354.221 312.987 351.413 312.987 351.413L314.287 356.07C318.817 355.854 323.286 354.936 327.535 353.348C326.842 350.93 326.135 348.175 326.135 348.175L331.181 351.813C336.863 349.168 341.964 345.423 346.189 340.794Z" fill="#DBDBDB"/>
<path d="M285.139 346.51C283.86 347.14 282.58 347.76 281.29 348.36C280.65 348.67 280.01 348.98 279.36 349.28C277.15 350.31 274.93 351.33 272.69 352.32C272.15 352.57 271.599 352.81 271.05 353.05C270.59 353.25 270.139 353.45 269.68 353.64C268.24 354.27 266.8 354.883 265.36 355.48C253.848 360.278 242.091 364.467 230.139 368.03H230.13C226.07 369.24 221.983 370.38 217.869 371.45C216.84 371.72 215.81 371.98 214.769 372.24C212.969 372.7 211.158 373.14 209.348 373.55C208.979 373.64 208.618 373.73 208.248 373.81C205.288 374.49 202.315 375.133 199.328 375.74C194.308 376.76 189.255 377.673 184.168 378.48C183.008 378.67 181.838 378.85 180.668 379.02C180.478 379.05 180.278 379.08 180.078 379.11C178.948 379.28 177.808 379.44 176.678 379.59C175.648 379.73 174.617 379.87 173.578 380C172.708 380.11 171.847 380.22 170.988 380.32C170.637 380.37 170.278 380.41 169.928 380.45C169.068 380.55 168.218 380.65 167.367 380.74C166.378 380.85 165.398 380.96 164.407 381.06L160.668 381.42C159.578 381.52 158.478 381.61 157.378 381.7C156.738 381.76 156.108 381.81 155.468 381.85C154.617 381.92 153.758 381.98 152.907 382.04C152.558 382.07 152.198 382.09 151.847 382.11C150.668 382.19 149.488 382.27 148.308 382.33C146.958 382.41 145.617 382.48 144.268 382.54H144.198C142.938 382.6 141.668 382.65 140.398 382.7C139.478 382.73 138.568 382.76 137.648 382.78C136.657 382.81 135.668 382.83 134.668 382.85C134.387 382.86 134.108 382.86 133.828 382.87C132.887 382.88 131.948 382.9 131.008 382.9C129.898 382.91 128.778 382.92 127.668 382.92C126.558 382.92 125.438 382.91 124.328 382.9C123.538 382.9 122.748 382.89 121.958 382.87C121.198 382.86 120.438 382.85 119.688 382.83C118.148 382.8 116.608 382.76 115.068 382.7C113.738 382.66 112.398 382.6 111.068 382.54C111.011 382.542 110.954 382.539 110.898 382.53C109.608 382.48 108.328 382.41 107.038 382.34C106.108 382.28 105.188 382.23 104.258 382.17L101.648 381.99C101.218 381.96 100.778 381.93 100.348 381.89C99.539 381.83 98.729 381.77 97.919 381.7C95.598 381.51 93.299 381.3 90.999 381.07C90.049 380.97 89.099 380.87 88.149 380.76C87.069 380.65 85.989 380.52 84.908 380.39C83.827 380.26 82.759 380.13 81.679 379.99C79.019 379.65 76.379 379.28 73.739 378.88C72.669 378.72 71.589 378.56 70.519 378.38C66.2523 377.7 62.0123 376.94 57.799 376.1C56.658 375.88 55.519 375.65 54.388 375.4C53.888 375.31 53.399 375.2 52.908 375.09C51.289 374.76 49.669 374.4 48.059 374.03C46.579 373.7 45.109 373.35 43.638 372.99C42.658 372.76 41.679 372.52 40.699 372.28L40.359 372.19C39.388 371.95 38.429 371.7 37.459 371.45C35.399 370.92 33.348 370.36 31.309 369.79C30.289 369.51 29.269 369.22 28.249 368.92C27.229 368.63 26.209 368.33 25.199 368.03H25.189C16.649 365.49 8.25233 362.64 -0.00100708 359.48V350.17C3.02362 348.15 6.52127 346.951 10.149 346.69C17.859 345.98 22.469 347.91 27.519 349.8C33.699 352.12 40.549 354.4 54.598 351.72C80.118 346.87 92.998 327.56 133.189 330.44C173.38 333.32 167.329 348.67 207.559 350.19C247.789 351.71 253.929 339 275.279 343.37C278.669 344.059 281.975 345.112 285.139 346.51Z" fill="url(#paint2_linear_2_1380)"/>
<path opacity="0.2" d="M331.56 319.21C316.796 329.466 301.278 338.592 285.139 346.51C278.659 349.69 272.066 352.68 265.36 355.48C253.619 355.13 241.86 354.4 230.17 353.88C205.74 352.8 181.24 352.66 156.76 352.52C124.16 352.34 91.48 352.15 58.99 354.08C48.7 354.7 24.77 360.63 27.52 349.8C27.52 349.78 27.53 349.77 27.53 349.75C28.36 346.59 30.5 344.42 30.31 341.02C30.05 336.12 27.19 331.4 26.93 326.48C26.59 320.03 30 313.75 33.92 307.82C38.86 300.36 44.98 292.91 54.82 287.88C70.75 279.76 94.7299 278.81 106.869 268.3C111.269 264.49 113.59 259.77 118.26 256.1C126.76 249.44 141.05 247.53 154.21 246.09C157.73 245.71 169.68 247.43 171.86 248.44C178.389 251.47 184.73 254.8 192.139 256.81C199.548 258.82 208.439 259.33 215.389 256.73C220 255 223.25 252.12 226.889 249.6C233.441 245.02 241.002 242.09 248.93 241.06C257.48 240 267.08 241.57 272.71 245.87C281.34 252.47 278.659 263.06 286.96 269.83C292.98 274.74 303.4 276.47 310.4 280.81C322.97 288.6 320.93 301.75 326.81 312.35C328.232 314.744 329.819 317.036 331.56 319.21Z" fill="white"/>
<path d="M76.582 358.267C76.582 358.267 109.302 330.117 98.03 320.777C98.03 320.777 96.609 316.622 84.343 327.339C84.343 327.339 78.222 327.852 79.469 321.191C80.716 314.53 92.425 306.738 87.843 299.612C83.261 292.486 77.743 302.025 73.089 302.977C68.435 303.929 76.679 278.155 71.542 273.954C66.405 269.753 62.354 279.73 58.814 280.163C55.274 280.596 52.961 247.72 36.064 249.698C19.167 251.676 34.19 267.361 39.957 276.226C45.724 285.091 31.273 277.465 27.505 286.142C23.737 294.819 52.947 294.074 48.357 302.291C43.767 310.508 37.092 303.61 34.057 309.842C29.148 319.917 58.804 316.18 56.442 323.36C54.559 329.085 45.607 322.889 43.478 327.154C41.349 331.419 54.574 351.682 76.582 358.267Z" fill="url(#paint3_linear_2_1380)"/>
<g style="mix-blend-mode:color-dodge" opacity="0.1">
<path d="M98.774 321.49C98.68 321.39 98.581 321.283 98.474 321.182C97.674 322.469 96.732 323.858 95.646 325.282C91.657 330.499 84.836 337.199 74.958 339.616C73.7546 333.777 72.1909 328.019 70.276 322.373C75.783 309.629 82.22 303.312 86.65 300.256C87.033 299.991 87.408 299.747 87.775 299.52C87.697 299.401 87.618 299.287 87.539 299.177C87.182 299.399 86.818 299.636 86.439 299.893C82.005 302.944 75.589 309.214 70.075 321.786L70.049 321.709C67.936 315.467 65.33 308.878 62.258 302.001C62.7226 297.588 63.484 293.212 64.537 288.901C65.721 284.08 67.655 278.042 70.626 273.358C70.5028 273.294 70.3763 273.237 70.247 273.186C67.262 277.913 65.322 283.966 64.134 288.802C63.1376 292.902 62.3979 297.059 61.919 301.251C59.5623 296.015 56.9413 290.624 54.056 285.077C46.018 269.63 37.836 256.706 33.524 250.161C33.38 250.197 33.24 250.236 33.103 250.275C37.388 256.775 45.61 269.745 53.688 285.268C55.046 287.879 56.435 290.631 57.824 293.495C54.0389 291.895 50.1589 290.53 46.206 289.407C40.1175 287.626 33.8533 286.513 27.524 286.088C27.515 286.109 27.505 286.129 27.496 286.15C27.446 286.266 27.402 286.381 27.363 286.493C33.706 286.908 39.9843 288.019 46.085 289.804C50.1801 290.96 54.1944 292.385 58.102 294.069C61.169 300.424 64.225 307.31 66.937 314.396C57.66 310.924 41.649 310.587 33.718 310.657C33.671 310.798 33.633 310.937 33.601 311.072C41.562 310.997 57.933 311.325 67.136 314.916C71.0131 324.748 73.8252 334.968 75.524 345.399C67.213 344.792 58.564 338.976 52.744 334.172C49.7543 331.69 46.9124 329.035 44.233 326.221C44.1229 326.305 44.0199 326.398 43.925 326.499C46.6164 329.327 49.4713 331.994 52.475 334.487C58.364 339.349 67.135 345.24 75.586 345.82C76.1879 349.921 76.4491 354.065 76.367 358.21L76.573 358.275L76.784 358.091C76.8585 352.024 76.272 345.968 75.035 340.028C75.679 339.871 76.318 339.695 76.952 339.499C80.724 338.315 84.2644 336.492 87.419 334.109C90.6537 331.657 93.5343 328.769 95.979 325.528C97.054 324.12 97.98 322.76 98.774 321.49Z" fill="white"/>
</g>
<path d="M80.428 354.436C80.428 354.436 75.548 328.036 46.298 311.903L47.107 321.735L42.926 310.635C42.926 310.635 25.544 301.979 11.82 299.185C11.82 299.185 28.32 326.639 33.76 331.467L43.399 333.99L35.276 337.413C35.276 337.413 44.118 352.913 58.754 359.702C73.39 366.491 80.428 354.436 80.428 354.436Z" fill="#A8D96B"/>
<path d="M72.32 359.27C69.6076 360.17 66.8424 360.901 64.04 361.46C53.3 363.71 34.04 365.71 18.07 356.41L21.34 349.31C21.099 349.45 17.2 351.71 13.95 353.7C11.3833 351.792 9.03268 349.609 6.93997 347.19C4.19884 344.029 1.86715 340.535 0 336.79V334.37C6.21106 330.376 13.091 327.534 20.31 325.98L23.61 332.47C23.61 332.47 24.32 328.65 24.86 325.28C25.54 325.21 26.23 325.15 26.93 325.11C27.46 325.08 27.98 325.06 28.51 325.05C32.3592 324.933 36.2045 325.388 39.92 326.4L38.849 332.8L38.83 332.9C38.8559 332.872 38.8794 332.842 38.9 332.81C39.349 332.27 41.67 329.46 43.3 327.52C43.31 327.53 43.33 327.53 43.34 327.54C44.28 327.89 45.22 328.3 46.159 328.75C46.55 328.94 46.95 329.13 47.34 329.33C47.34 329.33 47.349 329.35 47.36 329.35C52.1625 331.918 56.4507 335.348 60.01 339.47C60.32 339.81 60.63 340.16 60.92 340.51C62.9733 342.95 64.845 345.537 66.52 348.25C67.55 349.9 68.5566 351.66 69.54 353.53C69.99 354.39 70.44 355.27 70.88 356.18C71.3693 357.18 71.8493 358.21 72.32 359.27Z" fill="url(#paint4_linear_2_1380)"/>
<path d="M72.32 359.27C72.32 359.27 63.67 358.21 51.72 355.54C51.12 355.41 50.51 355.27 49.889 355.12C47.03 354.47 44.01 353.72 40.889 352.87C36.65 351.72 32.23 350.39 27.8 348.87C17.94 345.48 8.04 341.12 0 335.6V334.37C6.21106 330.376 13.091 327.534 20.31 325.98L23.61 332.47C23.61 332.47 24.32 328.65 24.86 325.28C25.54 325.21 26.23 325.15 26.93 325.11C27.46 325.08 27.98 325.06 28.51 325.05C32.3592 324.933 36.2045 325.388 39.92 326.4L38.849 332.8L38.83 332.9C38.8559 332.872 38.8794 332.842 38.9 332.81C39.349 332.27 41.67 329.46 43.3 327.52C43.31 327.53 43.33 327.53 43.34 327.54C44.28 327.89 45.22 328.3 46.159 328.75C46.55 328.94 46.95 329.13 47.34 329.33C47.34 329.33 47.349 329.35 47.36 329.35C52.1625 331.918 56.4507 335.348 60.01 339.47C60.32 339.81 60.63 340.16 60.92 340.51C62.9733 342.95 64.845 345.537 66.52 348.25C67.55 349.9 68.5566 351.66 69.54 353.53C69.99 354.39 70.44 355.27 70.88 356.18C71.3693 357.18 71.8493 358.21 72.32 359.27Z" fill="url(#paint5_linear_2_1380)"/>
<path d="M304.74 221.44C299.63 227.05 290.03 222.56 286.05 220.31C279.736 225.542 274.301 231.75 269.95 238.7C276.43 236.53 279.75 229.97 284.21 230.1C289.21 230.25 294.5 234.29 287.95 241.49C282.74 247.22 272.85 242.42 269.03 240.23C266.82 243.852 265.044 247.722 263.74 251.76C262.198 257.079 260.973 262.486 260.07 267.95C266.57 265.04 269.08 257.56 273.59 257.06C278.51 256.52 284.15 259.85 278.58 267.99C274.119 274.5 263.8 270.99 259.849 269.32C258.487 278.107 257.972 287.005 258.31 295.89C259.68 292.573 260.442 289.037 260.56 285.45C260.76 278.42 262.8 274.6 268.51 275.6C274.15 276.59 280.11 291.37 258.369 297.27C258.802 306.483 260.141 315.63 262.369 324.58C262.879 320.056 262.849 315.487 262.28 310.97C261.04 302.54 267.42 300.62 271.49 303.14C275.42 305.57 276.7 317.51 263.21 327.76C265.517 336.251 268.694 344.481 272.69 352.32C272.15 352.57 271.599 352.81 271.05 353.05C266.758 344.632 263.402 335.769 261.04 326.62C261.031 326.566 261.018 326.512 261 326.46C256.99 325.52 238.48 320.54 240.25 309.21C240.7 306.32 242.95 304.24 245.7 304.54L246.139 304.6C249.75 305.25 253.8 309.67 255.49 313.53C256.55 315.97 258.8 320.59 260.29 323.63C258.188 314.843 256.926 305.876 256.52 296.85C252.09 294.68 237.659 286.8 239.21 276.75C239.314 275.917 239.615 275.12 240.088 274.426C240.561 273.732 241.192 273.161 241.93 272.76C243.639 271.88 246.26 271.48 249.07 274.48C253.36 279.04 253.61 289.36 256.46 295.28C256.144 286.231 256.7 277.173 258.119 268.23C254.57 265.4 246.24 257.8 248.019 249.8C250.259 239.68 255.899 243.04 258.439 248.02C260.569 252.16 257.799 258.15 258.658 265.11C259.519 260.352 260.628 255.642 261.979 251C262.624 248.846 263.436 246.747 264.408 244.72C261.479 241.78 253.289 232.64 256.239 224.77C259.789 215.24 265.019 219.39 266.939 224.64C268.689 229.43 264.249 235.49 265.049 243.4C267.619 238.229 270.795 233.382 274.509 228.96C271.939 225.67 266.069 217.12 269.359 210.77C273.509 202.76 277.839 207.03 279.069 211.89C280.158 216.23 275.789 220.94 275.539 227.75C278.457 224.408 281.645 221.311 285.069 218.49C283.189 213.21 277.009 193.35 290.019 193.72C291.068 193.985 292.039 194.499 292.848 195.218C293.657 195.936 294.282 196.839 294.669 197.85C296.158 201.43 294.839 206.67 292.658 209.53C291.019 211.67 287.839 216.35 286.348 218.56L286.469 218.74C293.129 216.67 296.479 209.91 301.009 210.05C306.01 210.19 311.29 214.24 304.74 221.44Z" fill="url(#paint6_linear_2_1380)"/>
<path d="M253.698 342.427C253.698 342.427 247.598 306.518 277.332 272.32L280.889 285.22L281.039 269.134C281.039 269.134 299.139 249.997 315.323 240.034C315.323 240.034 307.113 282.706 302.436 291.396L291.336 299.107L303.282 299.677C303.282 299.677 299.247 323.542 283.773 339.026C268.299 354.51 253.698 342.427 253.698 342.427Z" fill="#A8D96B"/>
<path d="M337.948 281.814C337.554 294.357 334.348 304.646 329.436 313.084C324.16 312.328 317.861 311.551 317.861 311.551L325.752 318.668C303.716 348.354 259.631 351.219 259.631 351.219C260.036 323.626 268.071 306.559 278.852 296.113C282.263 297.827 287.308 300.435 287.308 300.435L282.475 292.92C287.883 288.653 294.048 285.446 300.646 283.468C303.135 287.389 306.06 291.774 306.06 291.774L306.7 281.918C317.013 279.876 327.622 279.841 337.948 281.814Z" fill="url(#paint7_linear_2_1380)"/>
<path d="M278.852 296.113C282.263 297.827 287.308 300.435 287.308 300.435L282.475 292.92C287.883 288.653 294.048 285.446 300.646 283.468C303.135 287.389 306.06 291.774 306.06 291.774L306.7 281.918C317.013 279.878 327.622 279.844 337.948 281.818C315.248 318.909 259.631 351.223 259.631 351.223C260.036 323.626 268.071 306.559 278.852 296.113Z" fill="url(#paint8_linear_2_1380)"/>
<path d="M345.91 334.986C339.916 331.076 333.168 328.469 326.102 327.334C324.123 329.667 321.697 332.408 321.697 332.408L321.597 326.815C296.537 325.015 275.309 341.287 275.309 341.287C289.602 350.825 301.932 353.674 312.109 353.12C312.762 351.181 313.69 348.287 313.69 348.287L315.366 352.822C319.864 352.235 324.243 350.953 328.347 349.022C327.457 346.669 326.526 343.982 326.526 343.982L331.853 347.194C337.299 344.094 342.077 339.945 345.91 334.986Z" fill="url(#paint9_linear_2_1380)"/>
<path d="M312.104 353.12C312.757 351.181 313.685 348.287 313.685 348.287L315.361 352.822C319.859 352.235 324.238 350.953 328.342 349.022C327.452 346.669 326.521 343.982 326.521 343.982L331.848 347.194C337.296 344.094 342.076 339.944 345.91 334.985C316.765 330.847 275.31 341.285 275.31 341.285C289.598 350.82 301.929 353.674 312.104 353.12Z" fill="url(#paint10_linear_2_1380)"/>
<path d="M37.781 102.399C38.65 98.2172 42.034 95.0991 46.081 95.0991C46.8082 95.0982 47.5319 95.1992 48.231 95.3992C49.1234 93.0949 50.6779 91.1062 52.6986 89.6838C54.7192 88.2615 57.1157 87.4688 59.586 87.406C60.8557 87.4053 62.1166 87.6162 63.317 88.03C64.5707 85.5855 66.4631 83.5262 68.7933 82.0708C71.1234 80.6154 73.8042 79.8183 76.551 79.7642C83.231 79.7642 88.921 84.4531 91.077 91.0161C92.6235 90.0523 94.4087 89.54 96.231 89.5371C102.086 89.5371 106.831 94.786 106.831 101.261C106.831 101.645 106.813 102.024 106.781 102.398L37.781 102.399Z" fill="#E6FCFB"/>
<path d="M287.946 106.113C288.202 104.584 288.977 103.19 290.141 102.166C291.305 101.142 292.786 100.55 294.335 100.491C294.895 100.491 295.452 100.569 295.99 100.724C296.677 98.9501 297.874 97.4191 299.43 96.324C300.986 95.2289 302.831 94.6186 304.733 94.5701C305.71 94.57 306.681 94.7325 307.605 95.051C308.57 93.1689 310.027 91.5834 311.821 90.4629C313.615 89.3424 315.679 88.7286 317.794 88.687C322.937 88.687 327.317 92.2971 328.977 97.3501C330.168 96.6078 331.542 96.2133 332.945 96.2112C337.453 96.2112 341.108 100.252 341.108 105.237C341.108 105.537 341.094 105.825 341.069 106.113H287.946Z" fill="#E6FCFB"/>
<path d="M149.029 48.6631C149.212 47.571 149.765 46.5751 150.596 45.8435C151.427 45.1119 152.486 44.6893 153.592 44.647C153.992 44.6468 154.39 44.703 154.775 44.814C155.265 43.5461 156.12 42.4517 157.231 41.6687C158.342 40.8857 159.66 40.4492 161.019 40.4141C161.717 40.4142 162.41 40.5304 163.07 40.7581C163.759 39.4137 164.8 38.2811 166.082 37.4807C167.363 36.6803 168.837 36.242 170.348 36.2122C172.162 36.2687 173.912 36.8978 175.347 38.0093C176.781 39.1208 177.828 40.6577 178.336 42.4001C179.186 41.8696 180.168 41.5877 181.17 41.5862C184.39 41.5862 187 44.473 187 48.033C187 48.244 186.99 48.4532 186.972 48.6592L149.029 48.6631Z" fill="#E6FCFB"/>
<path d="M233.398 67.2711C230.192 62.7341 228.921 65.1543 226.139 62.4923C223.971 60.4193 222.354 59.7771 220.773 59.8231C219.192 59.7771 217.573 60.4233 215.408 62.4923C212.625 65.1543 211.355 62.7341 208.149 67.2711C204.943 71.8081 212.775 76.5863 212.775 76.5863L220.368 77.9171C220.368 77.9171 220.532 77.1672 220.768 75.9762C221.01 77.1672 221.174 77.9171 221.174 77.9171L228.767 76.5863C228.767 76.5863 236.598 71.8071 233.398 67.2711Z" fill="#00261E"/>
<path d="M221.271 110.586C231.294 110.586 239.419 101.861 239.419 91.0991C239.419 80.3367 231.294 71.6121 221.271 71.6121C211.248 71.6121 203.123 80.3367 203.123 91.0991C203.123 101.861 211.248 110.586 221.271 110.586Z" fill="#00261E"/>
<path d="M205.665 122.014L239.097 122.814L223.28 137.262L205.665 122.014Z" fill="#FDBEB9"/>
<path d="M239.133 186.26H203.398C199.633 190.998 197.274 196.699 196.589 202.712C196.227 205.658 194.853 208.387 192.702 210.431C182.026 220.563 152.009 250.358 157.402 260.172C162.379 269.227 189.765 263.472 202.566 260.206C204.201 259.789 205.598 259.412 206.68 259.112C209.55 258.688 211.561 259.166 212.465 259.753C214.587 261.129 217.687 268.96 219.365 273.573C219.833 274.578 220.584 275.425 221.528 276.008C222.471 276.59 223.565 276.884 224.673 276.852C224.673 276.852 224.594 258.994 224.1 249.452C223.606 239.91 217.128 243.579 211.449 245.757C210.554 246.1 209.422 246.446 208.123 246.797L187.912 247.519C187.912 247.519 206.982 227.919 213.793 224.119C220.604 220.319 223.601 225.638 223.601 225.638L226.12 346.038C226.178 349.638 226.229 354.87 226.057 355.471C225.792 356.398 220.757 364.471 224.204 364.471H238.237C241.679 364.471 236.648 356.395 236.384 355.471C236.219 354.895 236.259 350.071 236.313 346.504C236.313 346.504 240.765 317.384 241.313 295.87C241.861 274.356 244.855 260.685 249.213 230.311C253.571 199.937 239.133 186.26 239.133 186.26Z" fill="#FDBEB9"/>
<path d="M237.019 180.538L238.978 173.191L235.163 169.191L221.247 172.24L207.33 169.191L203.515 173.191L205.474 180.538L203.395 186.26H239.095L237.019 180.538Z" fill="#FDBEB9"/>
<path d="M230.179 124.455C227.366 125.681 224.314 126.26 221.248 126.149C218.182 126.037 215.179 125.239 212.463 123.812C208.608 121.926 204.245 121.345 200.031 122.154C195.817 122.964 191.98 125.122 189.099 128.302C183.308 134.69 177.787 141.027 177.787 141.027C177.787 141.027 189.122 151.013 197.95 152.09C197.95 152.09 202.257 171.899 203.118 173.19C206.609 174.693 210.271 175.76 214.023 176.369C216.291 176.793 218.594 177.007 220.901 177.011C221.038 177.011 221.175 177.011 221.313 177.011C221.451 177.011 221.588 177.011 221.724 177.011C224.032 177.007 226.334 176.793 228.603 176.369C232.355 175.76 236.017 174.693 239.508 173.19C240.369 171.898 244.675 152.09 244.675 152.09C253.503 151.013 262.762 142.571 262.762 142.571C262.762 142.571 258.54 136.771 253.843 130.545C251.156 127.019 247.36 124.501 243.067 123.396C238.774 122.292 234.234 122.664 230.179 124.455Z" fill="url(#paint11_linear_2_1380)"/>
<path d="M204.351 135.054C203.345 136.282 202.412 137.568 201.558 138.906C200.707 140.228 199.964 141.617 199.336 143.058C198.707 144.491 198.25 145.993 197.974 147.533C197.709 149.091 197.671 150.678 197.86 152.247C197.374 150.699 197.215 149.067 197.393 147.454C197.571 145.835 197.993 144.253 198.646 142.761C199.295 141.278 200.11 139.874 201.076 138.575C202.021 137.273 203.121 136.09 204.351 135.054Z" fill="#00261E"/>
<path d="M238.171 135.054C239.177 136.282 240.11 137.568 240.964 138.906C241.815 140.228 242.558 141.617 243.186 143.058C243.815 144.491 244.273 145.993 244.548 147.533C244.813 149.091 244.851 150.678 244.662 152.247C245.149 150.699 245.308 149.067 245.13 147.454C244.952 145.835 244.53 144.253 243.877 142.761C243.227 141.278 242.412 139.874 241.446 138.575C240.502 137.273 239.402 136.09 238.171 135.054Z" fill="#00261E"/>
<path d="M227.275 112.211H216.789V122.697H227.275V112.211Z" fill="#FDBEB9"/>
<path d="M227.275 118.497V112.211H216.789V117.559C219.046 118.772 222.389 119.47 227.275 118.497Z" fill="#F79691"/>
<path d="M242.231 93.49C241.714 93.2531 241.148 93.1415 240.579 93.1641C240.011 93.1866 239.456 93.3429 238.959 93.6201C238.976 91.3251 238.539 89.0494 237.673 86.9241C236.807 84.7988 235.529 82.8658 233.912 81.2368C232.295 79.6078 230.372 78.3149 228.254 77.4326C226.135 76.5503 223.863 76.0962 221.568 76.0962C219.272 76.0962 217 76.5503 214.881 77.4326C212.763 78.3149 210.84 79.6078 209.223 81.2368C207.606 82.8658 206.328 84.7988 205.462 86.9241C204.596 89.0494 204.159 91.3251 204.176 93.6201C203.679 93.3429 203.124 93.1866 202.556 93.1641C201.987 93.1415 201.421 93.2531 200.904 93.49C198.948 94.455 198.341 97.2181 199.546 99.6621C200.751 102.106 203.314 103.305 205.269 102.341C205.535 102.209 205.782 102.041 206.002 101.841C206.455 105.651 208.289 109.163 211.158 111.711C214.027 114.259 217.731 115.667 221.568 115.667C225.404 115.667 229.108 114.259 231.977 111.711C234.846 109.163 236.68 105.651 237.133 101.841C237.353 102.041 237.6 102.209 237.866 102.341C239.821 103.305 242.383 102.106 243.588 99.6621C244.793 97.2181 244.186 94.455 242.231 93.49Z" fill="#FDBEB9"/>
<path d="M218.779 94.0471C218.087 93.7991 217.377 93.6063 216.655 93.4709C215.98 93.3468 215.291 93.3186 214.608 93.3869C213.928 93.4538 213.262 93.6242 212.633 93.8921L212.384 93.9841C212.302 94.0171 212.228 94.066 212.146 94.102L211.656 94.3391C211.327 94.5041 211.022 94.713 210.656 94.876C210.852 94.5392 211.078 94.2213 211.332 93.926C211.603 93.6363 211.904 93.3774 212.232 93.154C212.905 92.6877 213.686 92.4026 214.501 92.3262C215.313 92.2431 216.133 92.3609 216.889 92.6692C217.627 92.9589 218.278 93.4334 218.779 94.0471Z" fill="#00261E"/>
<path d="M224.678 94.0251C225.174 93.4076 225.821 92.9281 226.556 92.633C227.309 92.3185 228.128 92.1944 228.941 92.2719C229.756 92.3421 230.54 92.6211 231.216 93.082C231.545 93.3026 231.849 93.5593 232.122 93.8471C232.378 94.1414 232.607 94.4578 232.806 94.7929C232.44 94.6319 232.133 94.4262 231.806 94.2632L231.315 94.03C231.233 93.994 231.158 93.946 231.075 93.914L230.826 93.823C230.195 93.5598 229.528 93.3948 228.847 93.334C228.164 93.2699 227.475 93.3036 226.801 93.4341C226.079 93.5746 225.369 93.7722 224.678 94.0251Z" fill="#00261E"/>
<path d="M221.837 95.041C221.771 95.8098 221.813 96.584 221.962 97.3411C222.034 97.7291 222.143 98.1094 222.286 98.4771C222.434 98.8799 222.667 99.2461 222.969 99.551L223.112 99.6631L223.239 99.7632C223.299 99.8018 223.356 99.8458 223.408 99.895C223.509 99.9832 223.588 100.094 223.639 100.218C223.688 100.353 223.707 100.497 223.697 100.64C223.687 100.784 223.647 100.923 223.58 101.05C223.219 101.669 222.659 102.149 221.992 102.41C222.4 102.407 222.801 102.307 223.163 102.12C223.525 101.932 223.838 101.663 224.077 101.332C224.211 101.139 224.301 100.918 224.338 100.685C224.376 100.453 224.361 100.215 224.294 99.989C224.258 99.8711 224.205 99.7592 224.136 99.657C224.073 99.5537 223.998 99.459 223.911 99.375C223.827 99.2931 223.736 99.2191 223.639 99.1541C223.604 99.1302 223.571 99.1046 223.539 99.0771L223.46 99.0142C223.234 98.7772 223.05 98.5032 222.916 98.2041C222.762 97.8765 222.627 97.5405 222.51 97.198C222.274 96.497 222.065 95.775 221.837 95.041Z" fill="#F79691"/>
<path d="M273.838 162.496C270.676 156.964 265.004 150.764 259.28 145.274C252.026 150.597 247.518 151.55 245.617 151.948C256.787 159.695 257.556 162.862 257.556 162.862C251.702 164.509 226.821 164.051 226.821 164.051C226.346 162.798 225.733 161.601 224.992 160.484C223.986 159.112 223.528 150.513 222.705 148.226C222.592 147.91 222.45 147.604 222.281 147.314C221.453 146.557 220.923 146.672 220.622 146.906L220.303 147.317C220.167 147.565 220.051 147.824 219.955 148.09C219.132 150.377 218.675 158.976 217.669 160.348C216.928 161.465 216.314 162.662 215.839 163.915C215.839 163.915 190.959 164.373 185.104 162.726C185.104 162.726 185.734 159.648 196.904 151.901C195.022 151.651 190.304 150.232 183.252 145.261C177.528 150.75 171.983 156.828 168.821 162.361C160.772 176.448 211.265 173.704 220.229 170.228C220.435 170.212 220.636 170.151 220.817 170.05C220.997 169.948 221.154 169.809 221.275 169.641C221.397 169.844 221.565 170.015 221.765 170.141C221.966 170.267 222.193 170.343 222.429 170.364C231.398 173.839 281.888 176.583 273.838 162.496Z" fill="#FDBEB9"/>
<path opacity="0.5" d="M224.192 360.615C224.192 360.615 225.792 359.32 226.783 360.615C226.783 360.615 228.976 359.84 229.972 360.327C230.968 360.814 231.666 360.166 233.808 360.615C235.95 361.064 236.449 360.298 237.695 360.615L235.959 356.66C235.837 356.382 235.639 356.143 235.388 355.972C235.138 355.8 234.844 355.703 234.54 355.69L228.127 355.425C227.828 355.412 227.531 355.483 227.269 355.629C227.007 355.775 226.791 355.99 226.644 356.251L224.192 360.615Z" fill="#F79691"/>
<path d="M204.028 231.897C207.874 228.418 211.52 225.383 213.796 224.114C220.607 220.314 223.604 225.633 223.604 225.633L223.893 239.448C231.636 241.265 239.59 242.017 247.536 241.682C248.069 238.149 248.629 234.382 249.214 230.304C253.573 199.929 239.133 186.26 239.133 186.26H203.398C199.633 190.998 197.274 196.699 196.589 202.712C196.227 205.658 194.853 208.387 192.702 210.431C191.202 211.858 189.312 213.674 187.195 215.77C190.217 220.748 195.634 227.702 204.028 231.897Z" fill="#4A3815"/>
<g style="mix-blend-mode:multiply" opacity="0.5">
<path d="M224.065 247.65C224.243 250.08 224.36 252.512 224.456 254.945C224.509 256.161 224.541 257.378 224.583 258.594L224.676 262.244L224.737 265.895C224.745 267.112 224.765 268.329 224.762 269.546C224.768 271.981 224.752 274.415 224.676 276.852C224.497 274.421 224.376 271.989 224.284 269.552C224.23 268.336 224.199 267.119 224.157 265.903L224.064 262.253L224.005 258.602C223.996 257.385 223.977 256.168 223.98 254.951C223.974 252.52 223.989 250.086 224.065 247.65Z" fill="#F79691"/>
</g>
<path d="M187.915 247.52C186.603 248.483 185.222 249.347 183.782 250.106C182.346 250.874 180.868 251.562 179.356 252.166C178.6 252.466 177.831 252.739 177.061 253.007C176.675 253.136 176.282 253.246 175.893 253.367L175.309 253.543C175.109 253.598 174.914 253.643 174.716 253.694L173.531 253.988L172.331 254.221L171.731 254.33L171.131 254.409C170.731 254.461 170.328 254.508 169.921 254.551C170.313 254.444 170.705 254.342 171.098 254.243L171.687 254.098L172.269 253.928L173.435 253.599L174.588 253.235C176.122 252.735 177.642 252.206 179.134 251.597C179.51 251.453 179.885 251.305 180.254 251.145C180.623 250.985 180.998 250.835 181.367 250.671L182.474 250.185C182.838 250.013 183.206 249.846 183.574 249.685C185.033 248.995 186.48 248.273 187.915 247.52Z" fill="#F79691"/>
<path d="M221.247 146.738C221.376 148.646 221.447 150.554 221.492 152.463C221.521 153.417 221.529 154.372 221.547 155.326L221.567 158.189L221.555 161.051C221.539 162.006 221.535 162.96 221.508 163.914C221.465 165.823 221.401 167.731 221.276 169.64C221.146 167.732 221.076 165.823 221.03 163.915C221 162.961 220.993 162.006 220.975 161.052L220.955 158.189L220.969 155.326C220.984 154.372 220.989 153.418 221.016 152.464C221.059 150.555 221.122 148.646 221.247 146.738Z" fill="#F79691"/>
<path d="M185.104 162.726C183.523 162.685 181.94 162.745 180.367 162.908C179.583 162.983 178.806 163.108 178.033 163.256C177.26 163.404 176.497 163.611 175.723 163.812C175.901 163.723 176.081 163.637 176.263 163.552L176.536 163.427L176.817 163.32L177.382 163.114L177.96 162.946C178.06 162.919 178.152 162.888 178.25 162.864L178.543 162.799C178.743 162.757 178.935 162.709 179.132 162.673C179.532 162.607 179.925 162.543 180.324 162.503C181.121 162.419 181.923 162.392 182.724 162.423C183.525 162.448 184.322 162.55 185.104 162.726Z" fill="#F79691"/>
<path d="M257.513 162.859C259.094 162.818 260.677 162.879 262.25 163.041C263.034 163.115 263.811 163.241 264.585 163.388C265.359 163.535 266.12 163.744 266.895 163.945C266.716 163.856 266.536 163.769 266.355 163.685L266.081 163.56L265.801 163.453L265.235 163.247L264.658 163.078C264.558 163.051 264.465 163.021 264.368 162.997L264.074 162.932C263.874 162.89 263.683 162.842 263.485 162.806C263.085 162.74 262.692 162.676 262.293 162.635C261.496 162.551 260.694 162.525 259.893 162.556C259.092 162.581 258.295 162.682 257.513 162.859Z" fill="#F79691"/>
<path d="M204.176 93.5751C204.176 93.5751 209.839 82.0461 215.162 80.6551C220.485 79.2641 219.184 84.9251 227.275 87.1151C235.366 89.3051 232.329 95.1841 238.959 93.5751L239.418 89.8492C239.418 89.8492 236.818 83.3171 236.818 83.0751C235.325 81.2886 233.686 79.6292 231.918 78.1141C231.434 77.9331 227.139 76.2702 226.594 76.1642C226.049 76.0582 220.425 75.0292 220.183 75.0292C219.941 75.0292 215.847 74.7872 214.718 75.4532C213.589 76.1192 209.536 75.9372 208.145 77.5702C206.754 79.2032 205.845 83.1951 205.605 83.7401C205.365 84.2851 203.064 88.0952 203.124 88.8212C203.184 89.5472 204.176 93.5751 204.176 93.5751Z" fill="#00261E"/>
<g style="mix-blend-mode:multiply" opacity="0.3">
<path d="M218.305 105.455C219.021 105.166 219.79 105.035 220.561 105.071C221.332 105.106 222.087 105.307 222.773 105.66C222.773 105.66 224.962 104.011 226.906 105.236C226.719 106.257 226.178 107.179 225.379 107.84C224.58 108.502 223.573 108.861 222.535 108.854C221.529 108.936 220.53 108.63 219.743 107.997C218.956 107.365 218.441 106.455 218.305 105.455Z" fill="#F79691"/>
</g>
<path d="M216.206 104.393C216.663 104.705 217.141 104.983 217.638 105.226C218.126 105.476 218.632 105.691 219.151 105.868C220.177 106.231 221.256 106.421 222.344 106.432C223.429 106.428 224.504 106.214 225.508 105.802C226.516 105.362 227.459 104.784 228.308 104.085C227.929 104.495 227.515 104.873 227.073 105.214C226.622 105.552 226.141 105.847 225.636 106.096C225.124 106.341 224.588 106.53 224.036 106.66C223.48 106.781 222.912 106.845 222.343 106.851C221.207 106.841 220.084 106.609 219.037 106.168C217.996 105.748 217.038 105.147 216.206 104.393Z" fill="#F79691"/>
<path d="M211.498 97.23C211.686 97.517 211.911 97.778 212.168 98.0061C212.045 98.0436 211.919 98.0689 211.791 98.082C211.617 98.096 211.442 98.0899 211.269 98.064C211.181 98.0512 211.095 98.0338 211.009 98.012C210.922 97.99 210.838 97.9611 210.752 97.9351C210.832 97.9731 210.912 98.016 210.995 98.052C211.078 98.088 211.162 98.123 211.251 98.145C211.427 98.1992 211.609 98.2329 211.793 98.2451C211.967 98.2553 212.141 98.2446 212.312 98.2131C212.231 98.275 212.146 98.3305 212.057 98.3792C211.903 98.4605 211.739 98.5236 211.57 98.5671C211.484 98.59 211.398 98.6083 211.31 98.6221C211.222 98.6351 211.133 98.6411 211.043 98.6511C211.132 98.6511 211.222 98.6621 211.313 98.6631C211.404 98.6641 211.495 98.6632 211.585 98.6492C211.768 98.6309 211.949 98.5911 212.123 98.531C212.279 98.4753 212.427 98.4019 212.566 98.312C213.559 98.9069 214.732 99.1248 215.872 98.9255C217.013 98.7263 218.043 98.1233 218.775 97.2271C217.628 97.7304 216.389 97.9905 215.137 97.991C213.884 97.9915 212.645 97.7323 211.498 97.23Z" fill="#333333"/>
<path d="M232.731 97.23C232.543 97.5172 232.318 97.7783 232.062 98.0061C232.185 98.0437 232.311 98.069 232.439 98.082C232.613 98.096 232.788 98.0899 232.961 98.064C233.049 98.0512 233.135 98.0338 233.221 98.012C233.307 97.99 233.392 97.9611 233.478 97.9351C233.397 97.9731 233.317 98.016 233.235 98.052C233.153 98.088 233.067 98.123 232.979 98.145C232.803 98.1991 232.621 98.2328 232.437 98.2451C232.263 98.2554 232.089 98.2446 231.918 98.2131C231.999 98.275 232.084 98.3305 232.173 98.3792C232.327 98.4607 232.491 98.5237 232.66 98.5671C232.746 98.5901 232.832 98.6084 232.92 98.6221C233.008 98.6351 233.097 98.6411 233.187 98.6511C233.097 98.6511 233.007 98.6621 232.917 98.6631C232.827 98.6641 232.735 98.6632 232.645 98.6492C232.461 98.6308 232.28 98.591 232.106 98.531C231.95 98.4751 231.802 98.4017 231.663 98.312C230.67 98.9068 229.497 99.1245 228.357 98.9253C227.217 98.7261 226.187 98.1233 225.455 97.2271C226.602 97.7304 227.84 97.9905 229.093 97.991C230.345 97.9915 231.584 97.7324 232.731 97.23Z" fill="#333333"/>
<path d="M124.698 153.13C124.72 150.359 123.76 147.67 121.988 145.539C120.216 143.408 117.747 141.974 115.018 141.49C104.946 139.234 103.008 150.728 95.635 149.62C95.635 149.62 103.351 158.552 111.952 155.909C118.478 153.904 121.063 154.682 121.931 155.174C122.185 155.329 122.468 155.429 122.763 155.467C123.058 155.505 123.358 155.482 123.643 155.397C124.289 155.182 124.887 154.6 124.698 153.13Z" fill="url(#paint12_linear_2_1380)"/>
<path d="M117.716 154.956C117.67 154.896 117.637 154.827 117.619 154.754C117.601 154.68 117.598 154.604 117.611 154.529C117.624 154.455 117.651 154.384 117.693 154.32C117.734 154.257 117.788 154.203 117.851 154.161C120.02 152.724 122.519 151.864 125.112 151.661C125.187 151.657 125.262 151.669 125.332 151.695C125.402 151.722 125.467 151.762 125.521 151.814C125.575 151.865 125.618 151.928 125.648 151.997C125.678 152.066 125.693 152.14 125.693 152.215C125.693 152.357 125.638 152.493 125.54 152.596C125.442 152.698 125.309 152.759 125.167 152.766C122.772 152.969 120.465 153.768 118.458 155.091C118.34 155.167 118.198 155.195 118.06 155.17C117.923 155.145 117.8 155.068 117.716 154.956Z" fill="url(#paint13_linear_2_1380)"/>
<path d="M112.903 172.026C112.903 172.026 110.017 160.185 116.891 155.751C123.765 151.317 131.051 151.81 136.013 154.466C140.975 157.122 143.947 166.387 141.722 171.68L125.251 166.626L112.903 172.026Z" fill="url(#paint14_linear_2_1380)"/>
<path d="M116.498 191.831L140.298 192.398L129.035 202.685L116.498 191.831Z" fill="#FDBEB9"/>
<path d="M141.005 191.71C138.605 191.548 137.564 191.998 135.291 193.11C133.132 194.214 130.741 194.79 128.316 194.79C125.891 194.79 123.5 194.214 121.341 193.11C119.127 192.025 116.667 191.542 114.207 191.71C115.514 209.765 111.007 212.466 111.007 212.466L114.885 237.577C119.06 239.646 123.656 240.723 128.316 240.723C132.976 240.723 137.572 239.646 141.747 237.577L145.338 211.946C145.338 211.946 139.698 209.765 141.005 191.71Z" fill="#A8D96B"/>
<path d="M130.037 302.081L129.629 282.569C129.276 275.774 124.665 278.388 120.621 279.939C120.376 280.033 120.105 280.127 119.813 280.222C119.669 282.893 119.457 286.604 119.298 289.355C120.014 289.373 120.714 289.563 121.342 289.907C122.853 290.887 125.06 296.462 126.258 299.747C126.591 300.463 127.126 301.066 127.798 301.48C128.469 301.895 129.248 302.104 130.037 302.081Z" fill="#FDBEB9"/>
<path d="M138.325 351.672C138.325 351.672 138.418 351.066 138.573 349.989L130.995 347.889L131.068 351.342C131.108 353.903 131.145 357.63 131.023 358.059C130.834 358.719 127.252 364.469 129.703 364.469H139.698C142.149 364.469 138.567 358.719 138.378 358.059C138.258 357.646 138.287 354.212 138.325 351.672Z" fill="#FDBEB9"/>
<path d="M132.239 184.837H124.127V192.948H132.239V184.837Z" fill="#FDBEB9"/>
<path d="M132.239 189.7V184.837H124.127V188.974C125.874 189.912 128.459 190.452 132.239 189.7Z" fill="#F79691"/>
<path d="M143.809 170.355C143.409 170.172 142.971 170.086 142.531 170.103C142.091 170.12 141.662 170.241 141.277 170.455C141.277 166.887 139.86 163.465 137.337 160.942C134.814 158.419 131.392 157.001 127.823 157.001C124.255 157.001 120.833 158.419 118.31 160.942C115.787 163.465 114.37 166.887 114.37 170.455C113.986 170.241 113.556 170.12 113.116 170.103C112.677 170.085 112.239 170.172 111.839 170.355C110.326 171.101 109.856 173.239 110.789 175.129C111.722 177.019 113.703 177.948 115.216 177.202C115.422 177.099 115.613 176.968 115.783 176.812C116.132 179.76 117.55 182.478 119.77 184.451C121.989 186.423 124.855 187.512 127.824 187.512C130.793 187.512 133.659 186.423 135.878 184.451C138.098 182.478 139.516 179.76 139.865 176.812C140.035 176.968 140.225 177.099 140.431 177.202C141.944 177.948 143.926 177.02 144.859 175.129C145.792 173.238 145.321 171.101 143.809 170.355Z" fill="#FDBEB9"/>
<path d="M125.667 170.786C125.132 170.594 124.582 170.445 124.023 170.34C123.501 170.244 122.968 170.222 122.44 170.276C121.914 170.327 121.398 170.459 120.912 170.666L120.72 170.737C120.656 170.762 120.599 170.8 120.535 170.828L120.157 171.012C119.902 171.139 119.666 171.301 119.384 171.427C119.536 171.167 119.712 170.921 119.908 170.692C120.118 170.466 120.353 170.265 120.608 170.092C121.128 169.731 121.733 169.511 122.363 169.451C122.991 169.387 123.625 169.479 124.21 169.717C124.779 169.943 125.281 170.311 125.667 170.786Z" fill="url(#paint15_linear_2_1380)"/>
<path d="M130.23 170.769C130.614 170.291 131.114 169.92 131.683 169.692C132.266 169.449 132.899 169.353 133.528 169.412C134.159 169.466 134.765 169.683 135.288 170.04C135.543 170.21 135.777 170.409 135.988 170.631C136.186 170.859 136.363 171.104 136.517 171.363C136.234 171.239 135.997 171.079 135.742 170.953L135.362 170.772C135.298 170.745 135.24 170.707 135.176 170.683L134.983 170.613C134.495 170.409 133.979 170.282 133.453 170.234C132.924 170.185 132.391 170.211 131.87 170.311C131.312 170.42 130.764 170.573 130.23 170.769Z" fill="url(#paint16_linear_2_1380)"/>
<path d="M128.032 172.249C127.982 172.844 128.015 173.443 128.132 174.029C128.188 174.329 128.272 174.623 128.382 174.908C128.497 175.219 128.677 175.502 128.911 175.738L129.022 175.825L129.122 175.899C129.168 175.929 129.212 175.962 129.253 175.999C129.331 176.068 129.392 176.153 129.431 176.249C129.469 176.354 129.484 176.465 129.476 176.576C129.469 176.687 129.438 176.795 129.386 176.893C129.106 177.372 128.673 177.743 128.157 177.945C128.472 177.942 128.783 177.865 129.063 177.72C129.343 177.575 129.585 177.367 129.77 177.111C129.874 176.961 129.943 176.79 129.972 176.611C130.001 176.431 129.989 176.247 129.938 176.072C129.91 175.981 129.869 175.894 129.816 175.815C129.767 175.735 129.708 175.662 129.641 175.597C129.577 175.534 129.506 175.477 129.431 175.427C129.387 175.396 129.379 175.385 129.356 175.367L129.294 175.318C129.119 175.135 128.977 174.923 128.874 174.691C128.754 174.438 128.649 174.178 128.559 173.913C128.37 173.375 128.209 172.82 128.032 172.249Z" fill="#F79691"/>
<path opacity="0.5" d="M129.698 361.72C129.698 361.72 130.833 360.798 131.543 361.72C131.543 361.72 133.104 361.168 133.813 361.515C134.522 361.862 135.019 361.401 136.545 361.72C138.071 362.039 138.425 361.494 139.312 361.72L138.076 358.904C137.989 358.706 137.848 358.536 137.67 358.414C137.491 358.292 137.282 358.223 137.066 358.214L132.499 358.025C132.286 358.016 132.075 358.066 131.888 358.17C131.702 358.274 131.548 358.427 131.444 358.613L129.698 361.72Z" fill="#F79691"/>
<g style="mix-blend-mode:multiply" opacity="0.5">
<path d="M129.598 281.288C129.724 283.019 129.808 284.751 129.876 286.488C129.914 287.354 129.937 288.22 129.967 289.088L130.033 291.688L130.076 294.288C130.082 295.154 130.097 296.021 130.094 296.888C130.099 298.622 130.088 300.356 130.033 302.088C129.906 300.357 129.822 298.626 129.754 296.894C129.716 296.028 129.694 295.161 129.663 294.294L129.598 291.694L129.555 289.094C129.549 288.228 129.535 287.361 129.537 286.494C129.537 284.757 129.548 283.02 129.598 281.288Z" fill="#F79691"/>
</g>
<path d="M103.862 281.193C102.928 281.879 101.944 282.494 100.919 283.035C99.8966 283.583 98.8443 284.072 97.767 284.501C97.229 284.718 96.681 284.91 96.134 285.101C95.859 285.193 95.579 285.272 95.302 285.357L94.886 285.483C94.746 285.522 94.604 285.555 94.464 285.591L93.62 285.8L92.766 285.965L92.339 286.043L91.907 286.1C91.6203 286.137 91.3333 286.17 91.046 286.2C91.325 286.123 91.605 286.05 91.884 285.98L92.303 285.88L92.718 285.759L93.548 285.525L94.369 285.266C95.461 284.913 96.544 284.533 97.606 284.099C97.874 283.999 98.14 283.891 98.406 283.777C98.672 283.663 98.935 283.556 99.198 283.44L99.986 283.094C100.245 282.971 100.507 282.853 100.769 282.735C101.808 282.245 102.839 281.731 103.862 281.193Z" fill="#F79691"/>
<path d="M136.373 173.354C136.068 173.796 135.66 174.158 135.184 174.407C134.708 174.657 134.178 174.788 133.641 174.788C133.104 174.788 132.574 174.657 132.098 174.407C131.622 174.158 131.214 173.796 130.909 173.354C131.77 173.731 132.701 173.926 133.641 173.926C134.581 173.926 135.512 173.731 136.373 173.354Z" fill="#333333"/>
<path d="M119.798 173.354C120.103 173.796 120.511 174.158 120.987 174.407C121.463 174.657 121.992 174.788 122.529 174.788C123.067 174.788 123.596 174.657 124.072 174.407C124.548 174.158 124.956 173.796 125.261 173.354C124.4 173.731 123.47 173.926 122.529 173.926C121.589 173.926 120.659 173.731 119.798 173.354Z" fill="#333333"/>
<path d="M141.747 237.577H114.885C59.658 304.017 82.105 295.739 120.325 289.507C120.417 286.377 120.346 283.244 120.115 280.121C119.297 281.021 105.09 281.032 103.862 281.193C106.062 279.714 130.099 251.438 129.399 271.578C129.399 271.572 129.628 282.537 129.629 282.57C129.62 282.406 129.609 282.249 129.595 282.097L129.968 302.079C129.991 302.079 130.014 302.079 130.037 302.079C130.049 303.879 130.089 337.779 130.311 351.206H138.805C140.343 337.772 145.215 312.212 146.771 298.083C149.635 269.55 154.391 252.142 141.747 237.577Z" fill="url(#paint17_linear_2_1380)"/>
<path d="M164.944 220.559C162.693 216.62 141.005 191.71 141.005 191.71C141.005 191.71 142.24 204.503 146.177 209.435L145.338 211.946C151.614 218.756 153.351 220.82 153.351 220.82C149.182 221.992 131.467 221.666 131.467 221.666C131.129 220.774 130.693 219.922 130.167 219.126C129.45 218.149 129.125 212.026 128.539 210.398C128.471 210.208 128.388 210.025 128.291 209.848L128.064 209.555C127.999 209.504 127.924 209.467 127.844 209.447C127.763 209.427 127.679 209.424 127.598 209.439C127.52 209.428 127.44 209.433 127.363 209.453C127.287 209.474 127.215 209.51 127.153 209.559L126.926 209.852C126.83 210.029 126.747 210.213 126.679 210.402C126.093 212.031 125.767 218.153 125.051 219.13C124.524 219.926 124.088 220.778 123.751 221.67C123.751 221.67 106.035 221.996 101.867 220.824C101.867 220.824 102.315 218.632 110.267 213.116L111.879 211.716C115.816 206.785 114.211 191.716 114.211 191.716C114.211 191.716 92.522 216.626 90.271 220.565C84.54 230.595 120.492 228.641 126.871 226.165C127.013 226.153 127.151 226.111 127.276 226.042C127.4 225.974 127.509 225.879 127.595 225.765V225.744C127.681 225.864 127.793 225.963 127.921 226.035C128.05 226.107 128.193 226.15 128.34 226.161C131.033 227.205 138.989 228.161 146.857 228.155C157.639 228.151 168.258 226.358 164.944 220.559Z" fill="#FDBEB9"/>
<path d="M151.119 228.154H142.484C145.325 228.276 148.293 228.29 151.119 228.154Z" fill="#FDBEB9"/>
<path d="M127.598 209.435C127.69 210.794 127.739 212.153 127.773 213.512C127.794 214.191 127.799 214.871 127.812 215.55L127.827 217.589L127.818 219.627C127.807 220.306 127.804 220.986 127.784 221.666C127.754 223.025 127.708 224.383 127.619 225.743C127.527 224.384 127.478 223.025 127.444 221.666C127.423 220.987 127.418 220.307 127.405 219.628L127.391 217.589L127.4 215.551C127.411 214.871 127.415 214.192 127.434 213.512C127.461 212.153 127.507 210.794 127.598 209.435Z" fill="#F79691"/>
<path d="M101.861 220.82C100.735 220.791 99.6084 220.834 98.488 220.949C97.929 221.002 97.376 221.091 96.825 221.197C96.274 221.303 95.732 221.449 95.18 221.597C95.307 221.534 95.436 221.472 95.565 221.412L95.765 221.323L95.965 221.247L96.365 221.1L96.776 220.98C96.845 220.961 96.913 220.939 96.983 220.922L97.192 220.875C97.332 220.846 97.471 220.811 97.611 220.786C97.893 220.739 98.176 220.693 98.46 220.664C99.0279 220.605 99.5994 220.586 100.17 220.608C100.739 220.625 101.305 220.696 101.861 220.82Z" fill="#F79691"/>
<path d="M153.418 220.914C154.544 220.885 155.671 220.928 156.791 221.044C157.349 221.097 157.903 221.186 158.454 221.291C159.005 221.396 159.547 221.544 160.099 221.691C159.972 221.627 159.843 221.565 159.714 221.506L159.514 221.417L159.314 221.34L158.914 221.193L158.503 221.073C158.434 221.054 158.365 221.033 158.296 221.015L158.087 220.969C157.947 220.939 157.808 220.905 157.668 220.879C157.386 220.832 157.103 220.787 156.819 220.758C156.251 220.698 155.68 220.679 155.109 220.701C154.54 220.719 153.974 220.79 153.418 220.914Z" fill="#F79691"/>
<path d="M114.207 191.71C111.339 193.159 108.561 194.779 105.888 196.562C102.769 198.79 102.846 209.296 111.007 212.462C119.168 215.628 117.565 202.084 117.565 202.084L114.207 191.71Z" fill="#A8D96B"/>
<path d="M140.993 191.71C143.861 193.159 146.639 194.779 149.312 196.562C152.431 198.79 152.354 209.296 144.193 212.462C136.032 215.628 137.635 202.084 137.635 202.084L140.993 191.71Z" fill="#A8D96B"/>
<path d="M124.106 179.177C124.506 180.687 126.298 181.796 128.439 181.796C131.113 181.796 132.351 180.615 132.723 179.096L124.106 179.177Z" fill="white"/>
<path d="M114.815 171.098C114.815 171.098 124.015 167.379 128.915 161.723C128.915 161.723 128.806 164.823 127.773 165.911C128.099 166.128 134.457 163.597 135.93 158.732C137.403 153.867 128.698 155.742 128.698 155.742C128.698 155.742 123.749 154.926 123.531 155.035C123.313 155.144 119.779 157.264 119.616 157.427C119.453 157.59 114.816 164.171 114.816 164.171L113.632 166.618L113.36 169.989L114.815 171.098Z" fill="url(#paint18_linear_2_1380)"/>
<defs>
<linearGradient id="paint0_linear_2_1380" x1="-7.20407" y1="363.008" x2="412.804" y2="-61.8199" gradientUnits="userSpaceOnUse">
<stop stop-color="#FF315D"/>
<stop offset="1" stop-color="#F7931E"/>
</linearGradient>
<linearGradient id="paint1_linear_2_1380" x1="121.153" y1="75.058" x2="198.057" y2="312.353" gradientUnits="userSpaceOnUse">
<stop stop-color="#EEEEEE"/>
<stop offset="1" stop-color="#EEEEEE" stop-opacity="0"/>
</linearGradient>
<linearGradient id="paint2_linear_2_1380" x1="142.569" y1="332.418" x2="142.569" y2="377.221" gradientUnits="userSpaceOnUse">
<stop stop-color="#00CD9D"/>
<stop offset="1" stop-color="#007B5A"/>
</linearGradient>
<linearGradient id="paint3_linear_2_1380" x1="27.1684" y1="303.94" x2="100.393" y2="303.94" gradientUnits="userSpaceOnUse">
<stop stop-color="#004F3B"/>
<stop offset="1" stop-color="#002E1B"/>
</linearGradient>
<linearGradient id="paint4_linear_2_1380" x1="36.7385" y1="403.498" x2="36.5559" y2="343.421" gradientUnits="userSpaceOnUse">
<stop stop-color="#C8CD49"/>
<stop offset="0.507" stop-color="#3D9C4C"/>
<stop offset="1" stop-color="#00804C"/>
</linearGradient>
<linearGradient id="paint5_linear_2_1380" x1="0" y1="342.151" x2="72.32" y2="342.151" gradientUnits="userSpaceOnUse">
<stop stop-color="#C8CD49"/>
<stop offset="0.507" stop-color="#3D9C4C"/>
<stop offset="1" stop-color="#00804C"/>
</linearGradient>
<linearGradient id="paint6_linear_2_1380" x1="239.094" y1="273.382" x2="307.795" y2="273.382" gradientUnits="userSpaceOnUse">
<stop stop-color="#004F3B"/>
<stop offset="1" stop-color="#002E1B"/>
</linearGradient>
<linearGradient id="paint7_linear_2_1380" x1="299.573" y1="394.939" x2="299.06" y2="334.779" gradientUnits="userSpaceOnUse">
<stop stop-color="#C8CD49"/>
<stop offset="0.507" stop-color="#3D9C4C"/>
<stop offset="1" stop-color="#00804C"/>
</linearGradient>
<linearGradient id="paint8_linear_2_1380" x1="259.631" y1="315.793" x2="337.948" y2="315.793" gradientUnits="userSpaceOnUse">
<stop stop-color="#C8CD49"/>
<stop offset="0.507" stop-color="#3D9C4C"/>
<stop offset="1" stop-color="#00804C"/>
</linearGradient>
<linearGradient id="paint9_linear_2_1380" x1="275.309" y1="339.931" x2="345.91" y2="339.931" gradientUnits="userSpaceOnUse">
<stop stop-color="#D3A447"/>
<stop offset="1" stop-color="#329A34"/>
</linearGradient>
<linearGradient id="paint10_linear_2_1380" x1="334.261" y1="376.402" x2="332.194" y2="331.061" gradientUnits="userSpaceOnUse">
<stop stop-color="#D3A447"/>
<stop offset="1" stop-color="#329A34"/>
</linearGradient>
<linearGradient id="paint11_linear_2_1380" x1="177.787" y1="149.405" x2="262.762" y2="149.405" gradientUnits="userSpaceOnUse">
<stop stop-color="#00CD9D"/>
<stop offset="1" stop-color="#007B5A"/>
</linearGradient>
<linearGradient id="paint12_linear_2_1380" x1="129.913" y1="131.405" x2="120.515" y2="167.488" gradientUnits="userSpaceOnUse">
<stop stop-color="#FF9A13"/>
<stop offset="1" stop-color="#FF591B"/>
</linearGradient>
<linearGradient id="paint13_linear_2_1380" x1="117.603" y1="153.419" x2="125.693" y2="153.419" gradientUnits="userSpaceOnUse">
<stop stop-color="#004F3B"/>
<stop offset="1" stop-color="#002E1B"/>
</linearGradient>
<linearGradient id="paint14_linear_2_1380" x1="145.639" y1="146.429" x2="130.858" y2="183.174" gradientUnits="userSpaceOnUse">
<stop stop-color="#FF9A13"/>
<stop offset="1" stop-color="#FF591B"/>
</linearGradient>
<linearGradient id="paint15_linear_2_1380" x1="145.829" y1="146.566" x2="142.616" y2="179.984" gradientUnits="userSpaceOnUse">
<stop stop-color="#FF9A13"/>
<stop offset="1" stop-color="#FF591B"/>
</linearGradient>
<linearGradient id="paint16_linear_2_1380" x1="151.524" y1="152.041" x2="148.408" y2="185.351" gradientUnits="userSpaceOnUse">
<stop stop-color="#FF9A13"/>
<stop offset="1" stop-color="#FF591B"/>
</linearGradient>
<linearGradient id="paint17_linear_2_1380" x1="81.8062" y1="294.392" x2="150.075" y2="294.392" gradientUnits="userSpaceOnUse">
<stop stop-color="#004F3B"/>
<stop offset="1" stop-color="#002E1B"/>
</linearGradient>
<linearGradient id="paint18_linear_2_1380" x1="142.442" y1="143.356" x2="124.983" y2="179.947" gradientUnits="userSpaceOnUse">
<stop stop-color="#FF9A13"/>
<stop offset="1" stop-color="#FF591B"/>
</linearGradient>
</defs>
</svg>
