<svg width="361" height="402" viewBox="0 0 361 402" fill="none" xmlns="http://www.w3.org/2000/svg">
<path d="M360.357 0.0739746V307.361C311.437 349.049 252.209 376.818 188.874 387.759C125.539 398.7 60.4273 392.411 0.356995 369.551V0.0739746H360.357Z" fill="url(#paint0_linear_2_419)"/>
<path opacity="0.12" d="M360.357 121.761V194.639C353.171 219.3 339.045 243.633 318.345 264.333C279.966 302.711 229.145 318.481 186.888 309.397C168.65 305.655 151.896 296.686 138.67 283.583C104.57 249.471 101.833 193.925 127.453 145.115C135.473 129.924 145.746 116.033 157.921 103.915C212.855 48.981 293.297 40.366 337.585 84.665C347.966 95.0842 355.765 107.788 360.357 121.761Z" fill="url(#paint1_linear_2_419)"/>
<path opacity="0.12" d="M181.459 207.459C216.765 172.154 209.896 108.044 166.119 64.2667C122.341 20.4889 58.2313 13.6206 22.926 48.926C-12.3794 84.2313 -5.51112 148.341 38.2667 192.119C82.0444 235.896 146.154 242.765 181.459 207.459Z" fill="url(#paint2_linear_2_419)"/>
<path d="M41.016 401.508C41.016 401.508 27.888 333.496 27.859 319.508C27.818 300.147 42.639 292.438 42.639 292.438L36.88 276.014H68.557L63.557 292.323C63.557 292.323 80.2369 301.165 77.9109 321.248C73.5609 358.794 66.629 401.51 66.629 401.51L41.016 401.508Z" fill="#FF725E"/>
<g style="mix-blend-mode:multiply">
<path d="M71.2289 300.148C71.1107 300.149 70.9926 300.14 70.8759 300.121C70.5332 300.085 70.1885 300.07 69.8439 300.075C68.5184 300.097 67.2106 300.384 65.9979 300.919C64.0827 301.776 62.3931 303.066 61.0629 304.688C60.2204 305.688 59.4621 306.756 58.7959 307.881C58.0298 309.131 57.364 310.439 56.8049 311.794C56.1805 313.271 55.8663 314.861 55.8819 316.464C55.9314 318.194 56.597 319.85 57.7589 321.133C58.3691 321.791 59.1422 322.276 59.9999 322.54C60.8855 322.797 61.8291 322.772 62.6999 322.469C63.6043 322.121 64.4169 321.571 65.0756 320.86C65.7343 320.149 66.2215 319.297 66.4999 318.369C66.7681 317.387 66.7874 316.353 66.5561 315.361C66.3248 314.369 65.8501 313.45 65.1749 312.687C63.7858 311.038 61.8648 309.924 59.7429 309.539C57.5288 309.206 55.2658 309.478 53.1939 310.327C51.0441 311.181 49.0551 312.394 47.3119 313.915C43.795 316.868 41.3593 320.906 40.3879 325.394C39.9446 327.513 39.9883 329.704 40.5159 331.803C40.9607 333.825 42.0576 335.645 43.6379 336.982C44.386 337.615 45.2933 338.03 46.2609 338.182C47.1956 338.327 48.1516 338.139 48.9609 337.649C49.7132 337.133 50.327 336.44 50.7487 335.631C51.1703 334.822 51.3867 333.921 51.3789 333.009C51.4051 332.139 51.2324 331.275 50.8739 330.481C50.5061 329.725 49.9919 329.049 49.3609 328.493C48.1429 327.456 46.666 326.769 45.0879 326.505C42.3464 326.046 39.5303 326.534 37.1029 327.888C35.2558 328.881 33.6483 330.266 32.3929 331.945C31.59 332.999 30.9495 334.168 30.4929 335.412C30.1759 336.264 30.0719 336.735 30.0439 336.727C30.1298 336.27 30.2511 335.82 30.4069 335.381C30.8328 334.111 31.4561 332.916 32.2539 331.84C33.5024 330.116 35.1179 328.69 36.9839 327.665C39.4573 326.256 42.3379 325.735 45.1479 326.189C46.7886 326.453 48.3263 327.159 49.5959 328.231C50.2672 328.817 50.8149 329.531 51.2069 330.331C51.5932 331.174 51.7817 332.094 51.7579 333.021C51.7693 333.999 51.5393 334.964 51.0882 335.832C50.6371 336.699 49.9789 337.442 49.1719 337.994C48.2839 338.536 47.2337 338.748 46.2049 338.594C45.1627 338.433 44.1845 337.989 43.3769 337.311C41.7208 335.92 40.5683 334.022 40.0969 331.911C39.5494 329.751 39.5002 327.494 39.9529 325.311C40.937 320.722 43.4227 316.592 47.0169 313.573C48.7996 312.018 50.834 310.779 53.0329 309.907C55.1822 309.031 57.5289 308.755 59.8229 309.107C62.0474 309.514 64.0596 310.686 65.5119 312.419C66.2077 313.267 66.7104 314.257 66.9849 315.319C67.2546 316.366 67.2259 317.468 66.9019 318.499C66.6036 319.489 66.0816 320.397 65.3764 321.153C64.6712 321.909 63.8017 322.493 62.8349 322.859C61.885 323.185 60.8573 323.208 59.8939 322.924C58.9742 322.637 58.1464 322.112 57.4939 321.403C56.2769 320.05 55.5841 318.306 55.5409 316.486C55.5329 314.836 55.8652 313.202 56.5169 311.686C57.091 310.319 57.7738 309 58.5589 307.742C59.2417 306.609 60.0184 305.536 60.8809 304.533C62.2479 302.898 63.9807 301.608 65.9389 300.767C67.176 300.24 68.5094 299.977 69.8539 299.995C70.3166 299.994 70.7779 300.045 71.2289 300.148Z" fill="#FF725E"/>
</g>
<g style="mix-blend-mode:multiply">
<path d="M72.051 351.519C72.1296 352.68 72.0318 353.846 71.761 354.977C71.4747 356.314 71.0074 357.606 70.372 358.816C69.5401 360.432 68.4146 361.879 67.053 363.084C65.3927 364.551 63.4031 365.595 61.253 366.129C58.7864 366.769 56.1927 366.731 53.746 366.019C51.0372 365.202 48.6657 363.531 46.986 361.254C45.1227 358.839 44.1989 355.83 44.386 352.785C44.4612 351.209 45.13 349.719 46.258 348.616C46.8468 348.118 47.5526 347.779 48.3088 347.629C49.0651 347.479 49.847 347.524 50.581 347.76C51.2915 347.956 51.9545 348.295 52.5297 348.756C53.1048 349.217 53.5799 349.79 53.926 350.441C54.539 351.714 54.6941 353.16 54.365 354.534C54.0735 355.83 53.4486 357.027 52.552 358.007C51.6981 358.912 50.662 359.626 49.512 360.101C47.4561 360.935 45.2177 361.218 43.019 360.92C39.8419 360.526 36.8643 359.159 34.494 357.007C33.6155 356.244 32.8602 355.351 32.255 354.357C32.3133 354.407 32.365 354.464 32.409 354.527C32.519 354.665 32.656 354.836 32.824 355.049C33.3728 355.702 33.9706 356.312 34.612 356.875C35.6274 357.761 36.7547 358.51 37.965 359.103C39.5608 359.898 41.2841 360.406 43.056 360.603C45.1961 360.872 47.3694 360.581 49.363 359.757C50.4589 359.296 51.4451 358.609 52.257 357.74C53.1001 356.809 53.686 355.674 53.957 354.447C54.2591 353.167 54.1119 351.822 53.54 350.638C53.2192 350.043 52.7807 349.518 52.251 349.098C51.7214 348.677 51.1117 348.368 50.459 348.19C49.7974 347.976 49.0921 347.934 48.4098 348.068C47.7274 348.202 47.0905 348.508 46.559 348.956C45.5185 349.985 44.9043 351.368 44.839 352.83C44.6627 355.762 45.5504 358.66 47.339 360.99C48.9593 363.195 51.247 364.819 53.863 365.621C56.2394 366.323 58.7606 366.373 61.163 365.766C63.2614 365.26 65.2078 364.258 66.839 362.844C68.1859 361.677 69.3066 360.272 70.145 358.699C70.7891 357.515 71.274 356.251 71.587 354.94C71.784 354.11 71.9177 353.266 71.987 352.415C72.002 352.144 72.014 351.925 72.024 351.749C72.0227 351.671 72.0318 351.594 72.051 351.519Z" fill="#FF725E"/>
</g>
<g style="mix-blend-mode:multiply">
<path d="M66.1489 383.571C66.1079 383.659 64.7309 382.915 62.3329 382.221C61.6817 382.027 61.0203 381.869 60.3519 381.747C59.6369 381.581 58.8579 381.503 58.0419 381.397C54.4772 381.036 50.8765 381.438 47.4789 382.575C46.7059 382.858 45.9629 383.106 45.3029 383.425C44.6776 383.692 44.067 383.993 43.4739 384.325C41.2879 385.531 40.1089 386.56 40.0499 386.483C40.2914 386.208 40.5628 385.961 40.8589 385.746C41.1818 385.464 41.524 385.204 41.8829 384.969C42.3433 384.635 42.8217 384.327 43.3159 384.046C43.9066 383.69 44.518 383.369 45.1469 383.085C45.8641 382.747 46.5984 382.446 47.3469 382.185C50.7912 380.98 54.4636 380.569 58.0889 380.985C58.8761 381.077 59.6578 381.211 60.4309 381.385C61.1077 381.523 61.7756 381.701 62.4309 381.919C62.9748 382.084 63.5089 382.279 64.0309 382.504C64.4328 382.654 64.8237 382.832 65.2009 383.036C65.5354 383.18 65.8533 383.359 66.1489 383.571Z" fill="#FF725E"/>
</g>
<g style="mix-blend-mode:multiply">
<path d="M63.939 293.291C63.6136 293.568 63.2627 293.814 62.891 294.025C62.205 294.48 61.175 295.082 59.875 295.772C53.0486 299.36 45.5088 301.383 37.803 301.694C36.331 301.747 35.138 301.741 34.316 301.694C34.2936 301.855 34.211 302.001 34.0849 302.104C33.9588 302.206 33.7987 302.256 33.6367 302.245C33.4748 302.234 33.3232 302.162 33.2124 302.043C33.1017 301.924 33.0401 301.768 33.0401 301.605C33.0401 301.443 33.1017 301.287 33.2124 301.168C33.3232 301.05 33.4748 300.977 33.6367 300.966C33.7987 300.955 33.9588 301.005 34.0849 301.108C34.211 301.21 34.2936 301.356 34.316 301.517C35.135 301.512 36.322 301.469 37.783 301.375C45.4158 300.89 52.8755 298.889 59.726 295.488C61.037 294.838 62.086 294.282 62.798 293.875C63.1599 293.646 63.5417 293.451 63.939 293.291Z" fill="#FF725E"/>
</g>
<g style="mix-blend-mode:multiply">
<path d="M67.928 276.791C67.923 276.838 67.149 276.719 65.746 276.718C62.39 276.729 59.0988 277.642 56.216 279.36C55.5661 279.748 54.9428 280.179 54.35 280.65C53.7134 281.127 53.1404 281.684 52.645 282.306C52.1217 282.938 51.763 283.69 51.601 284.494C51.5292 284.9 51.5584 285.317 51.6861 285.709C51.8138 286.101 52.0359 286.455 52.333 286.741C53.0046 287.322 53.8095 287.729 54.676 287.924C55.5343 288.233 56.4529 288.339 57.359 288.232C57.7721 288.107 58.1346 287.854 58.3941 287.509C58.6536 287.164 58.7964 286.745 58.802 286.314C58.8672 285.43 58.6832 284.546 58.271 283.762C57.4997 282.235 56.2632 280.992 54.74 280.213C53.3699 279.483 51.8523 279.073 50.301 279.013C48.9439 278.986 47.592 279.186 46.301 279.605C44.425 280.233 42.6631 281.161 41.084 282.352C40.522 282.773 40.096 283.115 39.809 283.352C39.6707 283.482 39.5196 283.597 39.358 283.696C39.473 283.545 39.6041 283.406 39.749 283.283C40.017 283.026 40.426 282.66 40.976 282.215C42.5378 280.951 44.3057 279.966 46.202 279.302C47.524 278.85 48.913 278.626 50.31 278.639C51.9235 278.684 53.5052 279.098 54.934 279.849C56.5443 280.66 57.853 281.965 58.669 283.573C59.1208 284.431 59.3218 285.398 59.249 286.365C59.2064 286.876 59.0343 287.368 58.749 287.794C58.4423 288.236 57.985 288.55 57.463 288.678C56.4797 288.808 55.4798 288.7 54.547 288.363C53.6078 288.148 52.7374 287.701 52.015 287.063C51.6693 286.727 51.4112 286.312 51.2633 285.853C51.1155 285.395 51.0824 284.907 51.167 284.432C51.3431 283.557 51.7357 282.739 52.309 282.054C52.8292 281.408 53.4305 280.832 54.098 280.34C54.7084 279.864 55.3502 279.43 56.019 279.04C57.2189 278.342 58.4936 277.781 59.819 277.367C61.7334 276.761 63.7368 276.483 65.744 276.546C66.2873 276.56 66.8294 276.608 67.367 276.688C67.5571 276.703 67.7451 276.737 67.928 276.791Z" fill="#FF725E"/>
</g>
<path d="M121.305 62.239H22.992V238.851H121.305V62.239Z" fill="#324147"/>
<path d="M116.363 67.3601H26.92V233.589H116.363V67.3601Z" fill="#FAFAFA"/>
<path d="M125.462 240.443L121.304 238.851V59.2441H125.462V240.443Z" fill="#455A64"/>
<path d="M48.847 174.735L72.076 153.145C75.019 150.409 78.866 147.461 82.652 148.81C84.473 149.458 85.843 151.01 87.628 151.756C91.194 153.242 95.268 151.097 98.01 148.376C100.752 145.655 102.916 142.25 106.238 140.276C109.56 138.302 114.721 138.554 116.363 142.051V165.551L82.605 180.004L48.847 174.735Z" fill="#F7931E"/>
<g style="mix-blend-mode:screen" opacity="0.4">
<path d="M48.847 174.735L72.076 153.145C75.019 150.409 78.866 147.461 82.652 148.81C84.473 149.458 85.843 151.01 87.628 151.756C91.194 153.242 95.268 151.097 98.01 148.376C100.752 145.655 102.916 142.25 106.238 140.276C109.56 138.302 114.721 138.554 116.363 142.051V165.551L82.605 180.004L48.847 174.735Z" fill="#FAFAFA"/>
</g>
<path d="M26.92 161.229C35.48 157.743 44.02 160.706 50.148 167.629C51.438 169.086 52.612 170.769 54.384 171.572C56.784 172.66 59.556 171.846 62.173 171.549C65.7691 171.194 69.3933 171.84 72.645 173.416C75.8967 174.992 78.6492 177.437 80.598 180.48L52.019 194.536L26.919 194.354L26.92 161.229Z" fill="#F7931E"/>
<path d="M116.363 161.346C110.725 158.623 105.763 161.917 100.563 165.402C95.363 168.887 90.529 173.357 84.428 174.761C80.351 175.699 75.983 175.178 72.042 176.582C64.014 179.441 59.371 189.636 50.862 190.123C46.242 190.387 42.098 187.586 37.975 185.485C33.852 183.384 30.599 181.385 26.922 184.199V233.589H116.365L116.363 161.346Z" fill="url(#paint3_linear_2_419)"/>
<path d="M118.305 115.18H26.92V116.95H118.305V115.18Z" fill="#455A64"/>
<path d="M118.305 154.765H26.92V156.535H118.305V154.765Z" fill="#455A64"/>
<path d="M118.305 194.351H26.92V196.121H118.305V194.351Z" fill="#455A64"/>
<path d="M69.382 116.065L69.382 238.303H73.901V116.065H69.382Z" fill="#455A64"/>
<path d="M46.19 67.3601H44.143V116.064H46.19V67.3601Z" fill="#455A64"/>
<path d="M63.847 67.3601H61.8V116.064H63.847V67.3601Z" fill="#455A64"/>
<path d="M81.503 67.3601H79.456V116.064H81.503V67.3601Z" fill="#455A64"/>
<path d="M99.16 67.3601H97.113V116.064H99.16V67.3601Z" fill="#455A64"/>
<path d="M22.992 59.2441H18.834V239.944H22.992V59.2441Z" fill="#455A64"/>
<path d="M125.463 57.4202H18.834V62.2392H125.463V57.4202Z" fill="#455A64"/>
<path d="M128.277 241.037H15.883V245.527H128.277V241.037Z" fill="#455A64"/>
<path d="M121.304 238.851L128.277 241.037H15.883L22.991 238.851H121.304Z" fill="#324147"/>
<path d="M307.909 398.961V167.05H305.04V399.006L281.306 400.791H331.644L307.909 398.961Z" fill="#455A64"/>
<path d="M299.999 213.789C299.876 213.789 299.789 207.942 299.805 200.731C299.821 193.52 299.934 187.672 300.058 187.673C300.182 187.674 300.268 193.519 300.252 200.732C300.236 207.945 300.123 213.789 299.999 213.789Z" fill="#455A64"/>
<path d="M290.085 146.844L279.424 194.484H333.524L321.357 146.989L290.085 146.844Z" fill="#EEEEEE"/>
<path d="M299.975 213.701C299.97 213.643 300.362 213.687 300.534 214.186C300.582 214.331 300.594 214.486 300.57 214.637C300.546 214.789 300.486 214.932 300.395 215.055C300.263 215.2 300.091 215.301 299.901 215.348C299.711 215.394 299.511 215.382 299.328 215.315C299.144 215.247 298.985 215.126 298.871 214.967C298.756 214.809 298.691 214.62 298.685 214.424C298.696 214.271 298.743 214.123 298.823 213.992C298.903 213.862 299.013 213.752 299.144 213.673C299.599 213.405 299.926 213.627 299.884 213.668C299.868 213.733 299.598 213.68 299.331 213.928C299.259 213.99 299.201 214.067 299.161 214.153C299.121 214.239 299.099 214.333 299.097 214.428C299.114 214.533 299.158 214.632 299.226 214.714C299.294 214.796 299.382 214.859 299.482 214.896C299.582 214.933 299.689 214.942 299.794 214.924C299.899 214.905 299.997 214.859 300.078 214.79C300.138 214.716 300.183 214.63 300.208 214.538C300.234 214.447 300.24 214.35 300.226 214.256C300.184 213.896 299.944 213.761 299.975 213.701Z" fill="#455A64"/>
<path d="M334.609 67.6711H280.094V124.498H334.609V67.6711Z" fill="#394A51"/>
<path d="M330.918 67.6711H276.403V124.498H330.918V67.6711Z" fill="#455A64"/>
<path d="M323.589 75.3101H283.731V116.859H323.589V75.3101Z" fill="#FAFAFA"/>
<path d="M283.731 117.135C283.436 117.544 283.101 117.922 282.731 118.264C282.091 118.932 281.195 119.839 280.192 120.827C279.189 121.815 278.269 122.697 277.592 123.327C277.246 123.689 276.864 124.014 276.453 124.3C276.745 123.893 277.077 123.516 277.445 123.175C278.084 122.506 278.983 121.597 279.989 120.607C280.995 119.617 281.915 118.733 282.589 118.107C282.935 117.744 283.318 117.419 283.731 117.135Z" fill="#3B4D54"/>
<path d="M323.589 117.033C323.998 117.328 324.376 117.663 324.718 118.033C325.387 118.672 326.294 119.569 327.282 120.572C328.27 121.575 329.152 122.495 329.782 123.172C330.144 123.518 330.47 123.899 330.755 124.311C330.348 124.019 329.971 123.687 329.63 123.319C328.962 122.679 328.053 121.781 327.063 120.775C326.073 119.769 325.188 118.848 324.563 118.175C324.201 117.828 323.874 117.446 323.589 117.033Z" fill="#3B4D54"/>
<path d="M323.48 75.4211C323.775 75.0125 324.11 74.6339 324.48 74.291C325.12 73.623 326.017 72.716 327.02 71.728C328.023 70.74 328.942 69.858 329.62 69.228C329.965 68.8658 330.347 68.5398 330.758 68.2551C330.466 68.6623 330.134 69.0392 329.767 69.3801C329.127 70.0481 328.228 70.957 327.223 71.947C326.218 72.937 325.296 73.821 324.623 74.447C324.276 74.8098 323.893 75.1362 323.48 75.4211Z" fill="#3B4D54"/>
<path d="M283.622 75.5232C283.214 75.2275 282.836 74.8926 282.493 74.5232C281.825 73.8832 280.918 72.9862 279.93 71.9832C278.942 70.9802 278.059 70.0611 277.43 69.3831C277.068 69.0372 276.742 68.656 276.457 68.2451C276.865 68.5363 277.242 68.8683 277.582 69.2361C278.25 69.8761 279.159 70.775 280.15 71.78C281.141 72.785 282.024 73.7071 282.65 74.3801C283.012 74.7268 283.338 75.1099 283.622 75.5232Z" fill="#3B4D54"/>
<path d="M323.48 116.861C323.48 116.861 323.475 116.791 323.473 116.661L323.465 116.082C323.465 115.565 323.457 114.816 323.45 113.842C323.442 111.877 323.431 109.015 323.416 105.376C323.4 98.101 323.377 87.731 323.35 75.313L323.48 75.4431L283.735 75.4622L283.885 75.313C283.877 90.563 283.87 104.83 283.864 116.861L283.735 116.733L312.523 116.799L320.605 116.832L322.742 116.847L323.293 116.854C323.417 116.854 323.484 116.861 323.484 116.861C323.484 116.861 323.427 116.861 323.307 116.869L322.77 116.876L320.658 116.891L312.605 116.924L283.735 116.99H283.607V116.861C283.6 104.83 283.593 90.561 283.585 75.313V75.1631H283.739L323.484 75.1821H323.615V75.313C323.587 87.765 323.564 98.1642 323.548 105.46C323.534 109.085 323.522 111.938 323.514 113.896C323.508 114.859 323.502 115.596 323.499 116.111L323.492 116.676C323.485 116.798 323.48 116.861 323.48 116.861Z" fill="#3B4D54"/>
<path d="M294.251 92.667C294.251 92.667 293.397 102.955 304.538 102.955C304.538 97.4611 300.009 93.131 294.251 92.667Z" fill="#FF6489"/>
<path d="M314.636 92.675C314.636 92.675 304.349 91.8221 304.349 102.962C309.839 102.961 314.172 98.433 314.636 92.675Z" fill="#FF6489"/>
<path d="M304.044 87.0452C304.044 87.0452 295.644 94.5891 304.504 102.955C308.626 98.5871 308.277 91.7382 304.044 87.0452Z" fill="url(#paint4_linear_2_419)"/>
<path d="M241.506 73.9751H158.132C147.292 73.9751 138.504 82.7629 138.504 93.6031V308.786C138.504 319.626 147.292 328.414 158.132 328.414H241.506C252.346 328.414 261.134 319.626 261.134 308.786V93.6031C261.134 82.7629 252.346 73.9751 241.506 73.9751Z" fill="#FAFAFA"/>
<path d="M241.506 328.414C241.506 328.414 242.135 328.368 243.362 328.3C243.97 328.226 244.728 328.11 245.62 327.943L247.046 327.571C247.558 327.445 248.073 327.209 248.639 327.014C251.399 325.936 253.872 324.235 255.868 322.045C258.615 319.065 260.366 315.304 260.879 311.283C261.058 308.888 261.114 306.484 261.047 304.083C261.047 301.55 261.044 298.898 261.038 296.128C261.033 290.582 261.027 284.568 261.022 278.085C261.013 265.138 261.003 250.396 260.992 234.101C260.98 201.508 260.965 162.701 260.949 119.61C260.949 114.224 260.949 108.772 260.949 103.254C260.949 100.495 260.949 97.7207 260.949 94.932C260.949 94.232 260.96 93.5321 260.91 92.8461C260.899 92.1526 260.835 91.4609 260.72 90.777L260.563 89.746C260.489 89.407 260.393 89.072 260.309 88.735C260.225 88.398 260.145 88.057 260.04 87.726L259.68 86.7431C258.691 84.1058 257.138 81.7167 255.129 79.7431C253.092 77.7589 250.649 76.239 247.969 75.288C246.622 74.8109 245.227 74.4841 243.809 74.3139C243.101 74.2139 242.381 74.225 241.666 74.174C240.945 74.159 240.217 74.1739 239.492 74.1669H230.739H158.155C155.075 74.1826 152.041 74.9167 149.294 76.3109C146.567 77.7036 144.21 79.7263 142.42 82.2111C140.619 84.6629 139.438 87.5138 138.977 90.5209L138.809 91.64L138.752 92.7689C138.698 93.5169 138.711 94.2809 138.71 95.0399V99.59C138.71 111.701 138.71 123.624 138.71 135.36C138.71 158.812 138.702 181.433 138.698 202.981C138.694 224.529 138.685 245.007 138.68 264.171C138.676 273.753 138.672 282.996 138.668 291.901C138.668 296.349 138.666 300.706 138.662 304.971C138.603 307.073 138.66 309.176 138.835 311.271C139.082 313.306 139.664 315.286 140.556 317.132C141.399 318.948 142.532 320.615 143.911 322.067C145.236 323.501 146.773 324.723 148.47 325.689C150.119 326.638 151.899 327.336 153.753 327.762C154.205 327.878 154.664 327.965 155.128 328.021C155.584 328.106 156.044 328.165 156.507 328.195C157.43 328.246 158.346 328.295 159.267 328.28L180.002 328.295L213.21 328.33L234.197 328.367L239.655 328.387C240.884 328.394 241.514 328.408 241.514 328.408C241.514 328.408 240.884 328.422 239.655 328.429L234.197 328.449L213.21 328.486L180.002 328.521L159.267 328.536C158.351 328.555 157.422 328.505 156.486 328.454C156.016 328.424 155.549 328.365 155.086 328.279C154.616 328.224 154.15 328.137 153.692 328.019C149.862 327.139 146.384 325.132 143.706 322.256C142.305 320.786 141.154 319.097 140.297 317.256C139.389 315.384 138.797 313.374 138.544 311.309C138.365 309.202 138.304 307.087 138.361 304.973C138.361 300.706 138.359 296.35 138.355 291.903C138.351 283.008 138.347 273.764 138.343 264.173C138.338 245.009 138.331 224.532 138.325 202.983C138.319 181.434 138.317 158.814 138.313 135.362C138.313 123.636 138.313 111.713 138.313 99.5919V95.0419C138.313 94.2819 138.3 93.524 138.355 92.754L138.413 91.6019L138.584 90.4601C139.054 87.3904 140.26 84.4798 142.098 81.9769C143.925 79.4413 146.33 77.3777 149.114 75.9569C151.918 74.5338 155.015 73.7843 158.159 73.768H230.743H239.496C240.223 73.768 240.946 73.761 241.673 73.776C242.402 73.827 243.137 73.8181 243.859 73.9191C245.306 74.0932 246.729 74.4268 248.103 74.914C250.836 75.8852 253.326 77.4365 255.403 79.4611C257.451 81.4747 259.035 83.9119 260.042 86.6019L260.408 87.6019C260.516 87.9409 260.59 88.289 260.683 88.632C260.776 88.975 260.866 89.318 260.941 89.664L261.101 90.714C261.218 91.4115 261.283 92.1167 261.294 92.8239C261.345 93.5309 261.331 94.224 261.332 94.924C261.332 97.7133 261.332 100.487 261.332 103.246C261.332 108.762 261.332 114.214 261.332 119.602C261.316 162.692 261.301 201.502 261.289 234.093C261.278 250.388 261.268 265.13 261.259 278.077C261.253 284.55 261.247 290.564 261.242 296.12C261.242 298.892 261.239 301.544 261.234 304.075C261.295 306.482 261.233 308.89 261.047 311.29C260.52 315.338 258.744 319.121 255.968 322.113C253.954 324.308 251.46 326.007 248.68 327.077C248.111 327.269 247.593 327.503 247.08 327.627L245.647 327.99C244.747 328.151 243.99 328.261 243.38 328.328C242.136 328.396 241.506 328.414 241.506 328.414Z" fill="#263238"/>
<path d="M249.351 89.043C246.376 89.3112 243.382 89.3112 240.407 89.043C243.382 88.7738 246.376 88.7738 249.351 89.043Z" fill="#263238"/>
<path d="M249.351 91.9612C246.376 92.2291 243.382 92.2291 240.407 91.9612C243.382 91.6917 246.376 91.6917 249.351 91.9612Z" fill="#263238"/>
<path d="M249.351 94.8801C246.376 95.1493 243.382 95.1493 240.407 94.8801C243.382 94.6122 246.376 94.6122 249.351 94.8801Z" fill="#263238"/>
<path d="M187.597 94.8801L187.591 91.8091L186.068 94.3682H185.791L184.268 91.8281V94.8801H183.689V90.6611H184.183L185.942 93.624L187.676 90.6611H188.17L188.176 94.876L187.597 94.8801Z" fill="#263238"/>
<path d="M192.176 91.689L190.63 95.2002C190.346 95.8742 189.979 96.0852 189.491 96.0852C189.19 96.0912 188.898 95.9841 188.673 95.7852L188.919 95.3511C189.072 95.5013 189.277 95.5858 189.491 95.5862C189.768 95.5862 189.943 95.459 190.099 95.092L190.199 94.8691L188.79 91.6841H189.39L190.504 94.2371L191.604 91.6841L192.176 91.689Z" fill="#263238"/>
<path d="M197.822 92.134C197.822 93.05 197.159 93.604 196.063 93.604H195.022V94.8801H194.422V90.6611H196.065C197.157 90.6611 197.822 91.219 197.822 92.134ZM197.222 92.134C197.222 91.534 196.822 91.189 196.047 91.189H195.024V93.0801H196.047C196.816 93.0801 197.22 92.737 197.22 92.134H197.222Z" fill="#263238"/>
<path d="M200.282 91.6612V92.2213C200.238 92.2164 200.194 92.2143 200.15 92.2152C200.009 92.2059 199.868 92.228 199.737 92.2799C199.606 92.3318 199.488 92.4121 199.392 92.5152C199.296 92.6183 199.223 92.7414 199.18 92.8758C199.138 93.0102 199.125 93.1523 199.144 93.2921V94.8821H198.566V91.6912H199.12V92.2271C199.241 92.0332 199.414 91.8773 199.62 91.7772C199.825 91.6771 200.055 91.6369 200.282 91.6612Z" fill="#263238"/>
<path d="M200.667 93.2851C200.662 92.956 200.754 92.6327 200.933 92.3564C201.112 92.0801 201.369 91.8632 201.672 91.7334C201.974 91.6036 202.309 91.5669 202.632 91.6277C202.956 91.6884 203.254 91.844 203.488 92.0747C203.723 92.3054 203.884 92.6007 203.951 92.9231C204.017 93.2455 203.986 93.5805 203.862 93.8852C203.737 94.19 203.525 94.4507 203.252 94.6345C202.979 94.8183 202.657 94.9165 202.328 94.917C202.11 94.9273 201.891 94.8924 201.687 94.8144C201.483 94.7364 201.297 94.6171 201.141 94.4639C200.985 94.3106 200.862 94.1269 200.781 93.9241C200.699 93.7212 200.661 93.5037 200.667 93.2851ZM203.401 93.2851C203.391 93.0746 203.32 92.8715 203.196 92.7012C203.071 92.5308 202.9 92.4009 202.703 92.3271C202.505 92.2534 202.29 92.2391 202.085 92.2864C201.88 92.3336 201.693 92.4402 201.547 92.5928C201.402 92.7453 201.304 92.9373 201.267 93.1448C201.23 93.3522 201.254 93.5661 201.337 93.7597C201.421 93.9534 201.559 94.1183 201.735 94.2341C201.911 94.3499 202.117 94.4115 202.328 94.4111C202.475 94.4152 202.62 94.3884 202.756 94.3325C202.892 94.2766 203.014 94.1928 203.115 94.0867C203.216 93.9805 203.294 93.8544 203.343 93.7163C203.392 93.5782 203.412 93.4313 203.401 93.2851Z" fill="#263238"/>
<path d="M205.921 90.3759C206.152 90.3665 206.38 90.4321 206.571 90.5629L206.397 91.0021C206.268 90.9058 206.112 90.8531 205.951 90.852C205.608 90.852 205.433 91.045 205.433 91.412V91.6889H206.357V92.165H205.442V94.88H204.864V92.161H204.323V91.685H204.864V91.402C204.854 91.2619 204.874 91.1212 204.924 90.9899C204.974 90.8586 205.052 90.7398 205.153 90.642C205.254 90.5442 205.375 90.4697 205.507 90.4237C205.64 90.3778 205.781 90.3613 205.921 90.3759ZM207.288 90.7011C207.288 90.6503 207.298 90.6001 207.318 90.5534C207.338 90.5067 207.367 90.4642 207.404 90.4289C207.44 90.3935 207.483 90.3659 207.53 90.3476C207.578 90.3292 207.628 90.3205 207.679 90.3219C207.753 90.3247 207.824 90.349 207.884 90.392C207.944 90.435 207.991 90.4947 208.017 90.5636C208.043 90.6326 208.049 90.7078 208.033 90.7799C208.017 90.8521 207.98 90.918 207.927 90.9694C207.874 91.0208 207.807 91.0556 207.735 91.0693C207.662 91.0829 207.587 91.0749 207.519 91.0463C207.451 91.0177 207.393 90.9698 207.352 90.9084C207.311 90.847 207.288 90.775 207.288 90.7011ZM207.388 91.6889H207.966V94.88H207.388V91.6889Z" fill="#263238"/>
<path d="M209.068 90.4121H209.646V94.8801H209.068V90.4121Z" fill="#263238"/>
<path d="M213.619 93.4769H211.03C211.067 93.7509 211.207 94.0005 211.422 94.1742C211.637 94.3479 211.91 94.4327 212.186 94.411C212.358 94.4173 212.53 94.3859 212.689 94.3192C212.849 94.2526 212.991 94.1523 213.108 94.025L213.426 94.3991C213.19 94.6382 212.89 94.8038 212.562 94.8761C212.234 94.9484 211.892 94.9243 211.578 94.8065C211.263 94.6887 210.989 94.4823 210.79 94.2123C210.59 93.9423 210.473 93.6203 210.452 93.285C210.443 93.0714 210.478 92.8581 210.555 92.6586C210.632 92.459 210.749 92.2773 210.899 92.1249C211.049 91.9724 211.229 91.8525 211.427 91.7724C211.626 91.6922 211.838 91.6537 212.052 91.6591C212.267 91.653 212.48 91.6917 212.679 91.7731C212.877 91.8544 213.057 91.9764 213.205 92.1312C213.354 92.2861 213.468 92.4705 213.542 92.6723C213.615 92.874 213.645 93.0887 213.63 93.3029C213.631 93.3509 213.625 93.4229 213.619 93.4769ZM211.03 93.0619H213.077C213.049 92.8103 212.929 92.578 212.74 92.4093C212.551 92.2406 212.307 92.1476 212.053 92.1476C211.8 92.1476 211.556 92.2406 211.367 92.4093C211.178 92.578 211.058 92.8103 211.03 93.0619Z" fill="#263238"/>
<path d="M220.383 177.6H179.659V180.017H220.383V177.6Z" fill="#FF725E"/>
<path d="M236.71 183.927C236.71 184.039 220.844 184.127 201.276 184.127C181.708 184.127 165.838 184.037 165.838 183.927C165.838 183.817 181.701 183.727 201.276 183.727C220.851 183.727 236.71 183.816 236.71 183.927Z" fill="#263238"/>
<path d="M164.453 221.185C171.121 221.185 176.526 215.78 176.526 209.112C176.526 202.444 171.121 197.039 164.453 197.039C157.785 197.039 152.38 202.444 152.38 209.112C152.38 215.78 157.785 221.185 164.453 221.185Z" fill="#FF725E"/>
<path d="M199.762 221.185C206.43 221.185 211.835 215.78 211.835 209.112C211.835 202.444 206.43 197.039 199.762 197.039C193.094 197.039 187.689 202.444 187.689 209.112C187.689 215.78 193.094 221.185 199.762 221.185Z" fill="#FF725E"/>
<path d="M235.07 221.185C241.738 221.185 247.143 215.78 247.143 209.112C247.143 202.444 241.738 197.039 235.07 197.039C228.402 197.039 222.997 202.444 222.997 209.112C222.997 215.78 228.402 221.185 235.07 221.185Z" fill="#FF725E"/>
<path d="M179.545 226.512C179.545 226.623 172.787 226.712 164.454 226.712C156.121 226.712 149.361 226.622 149.361 226.512C149.361 226.402 156.117 226.312 164.454 226.312C172.791 226.312 179.545 226.401 179.545 226.512Z" fill="#263238"/>
<path d="M212.879 226.512C212.879 226.623 207.006 226.712 199.762 226.712C192.518 226.712 186.643 226.622 186.643 226.512C186.643 226.402 192.516 226.312 199.762 226.312C207.008 226.312 212.879 226.401 212.879 226.512Z" fill="#263238"/>
<path d="M247.142 226.512C247.142 226.623 241.269 226.712 234.025 226.712C226.781 226.712 220.906 226.622 220.906 226.512C220.906 226.402 226.778 226.312 234.025 226.312C241.272 226.312 247.142 226.401 247.142 226.512Z" fill="#263238"/>
<path d="M248.78 268.032C248.78 268.032 248.771 267.856 248.767 267.524C248.763 267.192 248.76 266.693 248.754 266.051C248.747 264.751 248.736 262.839 248.723 260.361C248.706 255.401 248.683 248.174 248.653 239.061L248.78 239.188L150.749 239.263H150.743L150.943 239.063C150.943 249.073 150.943 258.812 150.938 268.036L150.738 267.836L220.782 267.926L241.321 267.981L246.845 268.007L248.279 268.019C248.603 268.024 248.78 268.032 248.78 268.032C248.78 268.032 248.624 268.04 248.308 268.045L246.898 268.057L241.416 268.083L220.922 268.138L150.742 268.228H150.542V268.028C150.542 258.804 150.542 249.065 150.537 239.055V238.855H150.745L248.776 238.929H248.904V239.056C248.874 248.204 248.85 255.456 248.834 260.434C248.821 262.9 248.81 264.8 248.803 266.096C248.797 266.727 248.793 267.21 248.79 267.546C248.788 267.873 248.78 268.032 248.78 268.032Z" fill="#263238"/>
<path d="M241.995 248.284C241.995 248.395 223.147 248.484 199.901 248.484C176.655 248.484 157.801 248.394 157.801 248.284C157.801 248.174 176.646 248.084 199.901 248.084C223.156 248.084 241.995 248.172 241.995 248.284Z" fill="#263238"/>
<path d="M241.995 254.022C241.995 254.133 223.147 254.222 199.901 254.222C176.655 254.222 157.801 254.132 157.801 254.022C157.801 253.912 176.646 253.822 199.901 253.822C223.156 253.822 241.995 253.911 241.995 254.022Z" fill="#263238"/>
<path d="M241.995 259.761C241.995 259.873 223.147 259.961 199.901 259.961C176.655 259.961 157.801 259.871 157.801 259.761C157.801 259.651 176.646 259.561 199.901 259.561C223.156 259.561 241.995 259.649 241.995 259.761Z" fill="#263238"/>
<path d="M248.78 304.388C248.78 304.388 248.771 304.212 248.767 303.88C248.763 303.548 248.76 303.049 248.754 302.407C248.747 301.107 248.736 299.195 248.723 296.717C248.706 291.757 248.683 284.53 248.653 275.417L248.78 275.544L150.749 275.619H150.743L150.943 275.419C150.943 285.429 150.943 295.168 150.938 304.392L150.738 304.192L220.782 304.282L241.321 304.337L246.845 304.363L248.279 304.375C248.603 304.38 248.78 304.388 248.78 304.388C248.78 304.388 248.624 304.396 248.308 304.401L246.898 304.413L241.416 304.439L220.922 304.494L150.742 304.584H150.542V304.384C150.542 295.16 150.542 285.421 150.537 275.411V275.211H150.745L248.776 275.285H248.904V275.412C248.874 284.56 248.85 291.812 248.834 296.79C248.821 299.256 248.81 301.155 248.803 302.452C248.797 303.083 248.793 303.567 248.79 303.902C248.788 304.229 248.78 304.388 248.78 304.388Z" fill="#263238"/>
<path d="M241.995 284.64C241.995 284.751 223.147 284.84 199.901 284.84C176.655 284.84 157.801 284.75 157.801 284.64C157.801 284.53 176.646 284.44 199.901 284.44C223.156 284.44 241.995 284.529 241.995 284.64Z" fill="#263238"/>
<path d="M241.995 290.378C241.995 290.489 223.147 290.578 199.901 290.578C176.655 290.578 157.801 290.488 157.801 290.378C157.801 290.268 176.646 290.178 199.901 290.178C223.156 290.178 241.995 290.267 241.995 290.378Z" fill="#263238"/>
<path d="M241.995 296.116C241.995 296.228 223.147 296.316 199.901 296.316C176.655 296.316 157.801 296.226 157.801 296.116C157.801 296.006 176.646 295.916 199.901 295.916C223.156 295.916 241.995 296.005 241.995 296.116Z" fill="#263238"/>
<path d="M152.065 94.8839C152.113 94.8782 152.162 94.8752 152.211 94.8749L152.618 94.861L154.118 94.8251L154.076 94.8681C154.076 94.5351 154.065 94.168 154.059 93.779C154.059 93.579 154.041 93.386 154.059 93.153C154.082 93.0327 154.143 92.9228 154.233 92.8395C154.323 92.7562 154.437 92.704 154.559 92.6901C154.801 92.6851 155.014 92.6741 155.276 92.6901C155.414 92.7119 155.539 92.7824 155.63 92.8888C155.72 92.9953 155.769 93.1304 155.768 93.2699C155.774 93.7779 155.78 94.3081 155.786 94.8571L155.716 94.789L157.61 94.7699L157.538 94.8429C157.531 94.0799 157.524 93.292 157.517 92.484C157.517 92.284 157.517 92.0839 157.512 91.8839C157.503 91.7943 157.475 91.7077 157.429 91.6303C157.383 91.5529 157.32 91.4866 157.246 91.4359L156.418 90.62L155.618 89.8319L155.231 89.4501C155.098 89.3221 154.994 89.1891 154.84 89.1581C154.766 89.138 154.688 89.1349 154.613 89.1493C154.538 89.1637 154.466 89.1949 154.405 89.2409C154.29 89.3409 154.168 89.4751 154.053 89.5871L153.373 90.2731C152.946 90.7171 152.501 91.122 152.173 91.505C152.077 91.7274 152.042 91.9717 152.073 92.2121V92.8791C152.073 93.2891 152.071 93.6473 152.067 93.954C152.067 94.229 152.061 94.454 152.059 94.642C152.06 94.7244 152.057 94.8069 152.05 94.8891C152.04 94.8138 152.036 94.7379 152.037 94.662C152.032 94.479 152.026 94.255 152.018 93.985C152.011 93.675 152.002 93.314 151.993 92.902C151.993 92.687 151.985 92.4601 151.981 92.2211L151.975 91.849C151.972 91.7092 152.007 91.5709 152.075 91.4489C152.425 91.0189 152.843 90.639 153.275 90.182L153.949 89.4921C154.07 89.3731 154.17 89.254 154.314 89.13C154.391 89.0716 154.481 89.0315 154.576 89.0126C154.671 88.9937 154.769 88.9965 154.863 89.0209C155.042 89.085 155.2 89.1981 155.318 89.3471L155.707 89.727L156.507 90.5131L157.336 91.3271C157.414 91.3962 157.485 91.4729 157.548 91.5561C157.61 91.6512 157.645 91.7614 157.648 91.8749C157.648 92.0749 157.648 92.275 157.653 92.475C157.659 93.283 157.665 94.0751 157.671 94.8351V94.9081H157.598L155.705 94.9201H155.635V94.851C155.635 94.301 155.632 93.7718 155.627 93.2631C155.629 93.1532 155.592 93.0461 155.521 92.9616C155.451 92.8771 155.353 92.8207 155.244 92.8029C155.026 92.7919 154.769 92.8029 154.557 92.8029C154.459 92.8129 154.366 92.8542 154.293 92.9203C154.219 92.9865 154.169 93.0743 154.149 93.1711C154.131 93.3621 154.149 93.5839 154.141 93.7709V94.903H154.099L152.573 94.893L152.173 94.8859C152.137 94.8879 152.101 94.8872 152.065 94.8839Z" fill="#263238"/>
<path d="M228.065 145.918C231.883 129.453 221.631 113.01 205.166 109.192C188.701 105.373 172.258 115.625 168.439 132.09C164.621 148.555 174.873 164.999 191.338 168.817C207.803 172.636 224.246 162.384 228.065 145.918Z" fill="#455A64"/>
<path d="M222.762 142.269C223.468 141.445 223.93 140.441 224.096 139.369C224.262 138.297 224.126 137.2 223.702 136.201C223.279 135.202 222.585 134.341 221.699 133.715C220.813 133.09 219.77 132.724 218.687 132.658C219.036 131.647 219.118 130.564 218.925 129.512C218.733 128.461 218.273 127.476 217.59 126.654C216.906 125.832 216.022 125.2 215.023 124.819C214.024 124.439 212.944 124.322 211.887 124.48C211.818 123.411 211.493 122.375 210.94 121.458C210.386 120.541 209.621 119.771 208.708 119.211C207.795 118.652 206.761 118.32 205.692 118.244C204.624 118.167 203.553 118.348 202.57 118.772C201.939 118.005 201.138 117.395 200.232 116.989C199.326 116.583 198.337 116.392 197.345 116.431C196.352 116.47 195.383 116.738 194.511 117.215C193.639 117.691 192.89 118.363 192.321 119.177L190.712 119.259C189.315 119.311 187.946 119.66 186.695 120.283C185.445 120.906 184.341 121.789 183.459 122.873C183.365 122.995 183.262 123.109 183.15 123.215C181.599 124.657 179.979 126.215 179.43 128.255C178.817 130.536 179.63 133.155 178.477 135.214C177.915 135.952 177.418 136.737 176.991 137.56C176.413 139.225 177.535 141.017 177.4 142.775C177.257 144.633 175.723 146.256 175.909 148.111C176.04 148.775 176.307 149.405 176.693 149.961C177.079 150.517 177.575 150.987 178.151 151.343C179.305 152.047 180.381 152.871 181.361 153.803C182.075 154.614 182.537 155.62 183.237 156.443C184.275 157.575 185.704 158.271 187.235 158.389C188.766 158.508 190.285 158.041 191.485 157.082C192.305 157.705 193.263 158.123 194.278 158.3C195.292 158.478 196.335 158.411 197.318 158.104C199.276 157.473 201.12 156.529 202.777 155.309C203.147 155.814 203.637 156.217 204.203 156.483C204.77 156.749 205.393 156.868 206.018 156.83C206.642 156.792 207.247 156.598 207.777 156.265C208.306 155.933 208.744 155.473 209.05 154.927C209.335 155.582 209.828 156.124 210.453 156.469C211.078 156.815 211.799 156.944 212.505 156.837C213.913 156.588 215.247 156.023 216.405 155.184C218.68 153.784 221.222 151.939 221.283 149.269C221.32 147.634 220.383 145.946 220.999 144.435C221.469 143.625 222.064 142.894 222.762 142.269Z" fill="#263238"/>
<path d="M207.435 132.139C206.923 130.739 207.148 129.197 206.957 127.723C206.673 126.106 205.97 124.592 204.917 123.332C203.864 122.072 202.498 121.111 200.957 120.545C197.839 119.455 194.439 119.473 191.333 120.597C188.983 121.299 186.872 122.636 185.233 124.46C184.199 125.711 183.479 127.19 183.134 128.776C182.788 130.361 182.826 132.006 183.246 133.574L199.852 131.374C201.317 132.762 202.999 133.9 204.832 134.744C205.372 134.992 205.967 135.096 206.559 135.044C206.853 135.013 207.132 134.897 207.363 134.712C207.593 134.526 207.766 134.278 207.859 133.997C207.905 133.349 207.758 132.703 207.435 132.139Z" fill="#263238"/>
<path d="M205.351 128.419L190.919 125.168C186.319 124.802 183.409 130.535 183.238 135.151C183.049 140.279 183.02 146.551 183.726 150.351C185.146 158 191.059 158.824 191.059 158.824C191.059 158.798 191.089 164.049 191.194 166.84C196.415 169.32 201.785 168.967 207.265 166.517L207.84 131.095C207.836 130.418 207.578 129.768 207.117 129.272C206.656 128.776 206.026 128.472 205.351 128.419Z" fill="#B78876"/>
<path d="M186.235 139.92C186.239 140.177 186.344 140.422 186.526 140.603C186.708 140.784 186.954 140.887 187.211 140.889C187.337 140.896 187.462 140.877 187.58 140.835C187.699 140.792 187.807 140.726 187.9 140.641C187.992 140.556 188.067 140.453 188.119 140.339C188.171 140.224 188.199 140.101 188.203 139.975C188.199 139.718 188.095 139.473 187.913 139.292C187.731 139.111 187.486 139.008 187.229 139.005C187.103 138.998 186.978 139.017 186.859 139.059C186.741 139.102 186.632 139.168 186.539 139.253C186.447 139.338 186.372 139.441 186.32 139.556C186.268 139.67 186.239 139.794 186.235 139.92Z" fill="#263238"/>
<path d="M184.682 138.374C184.807 138.499 185.539 137.928 186.599 137.903C187.658 137.863 188.45 138.388 188.562 138.255C188.617 138.196 188.486 137.968 188.141 137.73C187.674 137.424 187.124 137.27 186.566 137.289C186.015 137.301 185.482 137.489 185.044 137.824C184.725 138.083 184.62 138.318 184.682 138.374Z" fill="#263238"/>
<path d="M196.284 139.92C196.288 140.177 196.392 140.422 196.575 140.603C196.757 140.784 197.002 140.887 197.259 140.889C197.385 140.896 197.51 140.877 197.629 140.835C197.747 140.792 197.856 140.727 197.948 140.642C198.041 140.556 198.115 140.454 198.168 140.339C198.22 140.225 198.248 140.101 198.252 139.975C198.248 139.718 198.144 139.473 197.962 139.292C197.779 139.111 197.534 139.008 197.277 139.005C197.151 138.998 197.026 139.016 196.907 139.059C196.789 139.102 196.68 139.168 196.587 139.253C196.495 139.338 196.42 139.441 196.368 139.556C196.316 139.67 196.287 139.794 196.284 139.92Z" fill="#263238"/>
<path d="M195.107 138.301C195.233 138.426 195.965 137.854 197.025 137.83C198.083 137.789 198.876 138.315 198.987 138.182C199.042 138.123 198.913 137.894 198.566 137.656C198.099 137.35 197.549 137.196 196.991 137.215C196.44 137.228 195.907 137.415 195.469 137.751C195.151 138.009 195.046 138.245 195.107 138.301Z" fill="#263238"/>
<path d="M191.464 146.261C190.901 146.101 190.32 146.012 189.735 145.995C189.463 145.974 189.206 145.927 189.155 145.744C189.125 145.465 189.181 145.183 189.315 144.937C189.552 144.275 189.801 143.581 190.062 142.855C190.759 141.09 191.313 139.271 191.719 137.417C190.882 139.122 190.183 140.892 189.628 142.709C189.379 143.439 189.141 144.137 188.915 144.802C188.754 145.133 188.714 145.511 188.802 145.868C188.844 145.963 188.907 146.046 188.986 146.113C189.065 146.179 189.158 146.227 189.258 146.252C189.409 146.289 189.564 146.307 189.719 146.304C190.3 146.364 190.887 146.35 191.464 146.261Z" fill="#263238"/>
<path d="M191.057 158.825C194.675 158.786 198.211 157.744 201.272 155.814C201.272 155.814 198.824 161.198 191.118 160.68L191.057 158.825Z" fill="#AA6550"/>
<path d="M191.979 148.805C192.174 148.546 192.432 148.341 192.728 148.209C193.025 148.077 193.35 148.023 193.673 148.051C193.907 148.066 194.136 148.129 194.346 148.234C194.556 148.34 194.742 148.487 194.894 148.666C195.041 148.839 195.131 149.052 195.152 149.278C195.173 149.504 195.124 149.73 195.011 149.927C194.846 150.122 194.626 150.263 194.38 150.332C194.134 150.401 193.874 150.395 193.631 150.315C193.126 150.151 192.658 149.888 192.255 149.542C192.133 149.461 192.027 149.357 191.944 149.236C191.902 149.178 191.879 149.109 191.878 149.038C191.876 148.966 191.896 148.896 191.935 148.836" fill="#AA6550"/>
<path d="M194.603 146.914C194.431 146.914 194.458 148.059 193.495 148.902C192.532 149.745 191.303 149.649 191.295 149.81C191.281 149.883 191.574 150.027 192.095 150.027C192.769 150.019 193.419 149.774 193.93 149.334C194.42 148.911 194.727 148.315 194.786 147.67C194.817 147.187 194.682 146.906 194.603 146.914Z" fill="#263238"/>
<path d="M194.846 135.1C194.958 135.386 196.013 135.221 197.26 135.339C198.511 135.432 199.523 135.769 199.681 135.507C199.752 135.381 199.57 135.114 199.157 134.846C198.607 134.518 197.989 134.32 197.351 134.266C196.712 134.212 196.07 134.305 195.473 134.536C195.021 134.732 194.798 134.961 194.846 135.1Z" fill="#263238"/>
<path d="M184.869 133.73C185.061 133.966 185.785 133.697 186.663 133.663C187.54 133.597 188.289 133.782 188.454 133.526C188.526 133.402 188.402 133.164 188.071 132.944C187.627 132.683 187.116 132.559 186.602 132.588C186.088 132.617 185.594 132.799 185.183 133.109C184.879 133.361 184.784 133.615 184.869 133.73Z" fill="#263238"/>
<path d="M210.117 129.938C208.673 125.512 202.199 119.424 197.557 119.782L190.173 124.282C190.425 125.546 191.013 126.719 191.875 127.676C192.737 128.634 193.842 129.341 195.073 129.723C196.387 130.113 197.967 130.211 198.754 131.333C199.554 132.479 199.105 134.159 199.854 135.341C200.893 136.979 203.699 136.881 204.483 138.656C204.825 139.431 204.655 140.362 205.011 141.131C205.486 142.156 208.098 143.441 209.172 143.092C210.246 142.743 210.236 140.91 210.581 139.947C211.017 138.86 211.063 137.655 210.712 136.538C210.224 134.37 210.805 132.05 210.117 129.938Z" fill="#263238"/>
<path d="M209.157 141.213C209.119 141.199 209.272 140.813 209.389 140.096C209.535 139.077 209.453 138.039 209.147 137.056C208.713 135.598 207.779 134.339 206.509 133.501C205.728 133.044 204.917 132.64 204.082 132.292C203.145 131.911 202.298 131.337 201.598 130.607C201.004 129.804 200.52 128.925 200.159 127.994C199.784 127.186 199.247 126.463 198.581 125.871C197.447 124.855 195.99 124.274 194.468 124.229C193.439 124.204 192.418 124.411 191.48 124.835C190.813 125.135 190.486 125.386 190.464 125.355C190.456 125.344 190.532 125.274 190.685 125.155C190.914 124.983 191.157 124.83 191.411 124.697C192.593 124.08 193.934 123.835 195.258 123.996C196.582 124.156 197.826 124.715 198.826 125.597C199.536 126.216 200.111 126.975 200.514 127.826C200.867 128.723 201.333 129.571 201.903 130.348C202.567 131.035 203.366 131.577 204.25 131.939C205.099 132.299 205.921 132.718 206.711 133.194C207.809 133.947 208.663 135.004 209.166 136.237C209.67 137.47 209.801 138.823 209.543 140.129C209.483 140.41 209.399 140.684 209.291 140.95C209.22 141.126 209.174 141.218 209.157 141.213Z" fill="#455A64"/>
<path d="M208.457 132.988C208.42 133.009 208.284 132.714 207.886 132.318C207.287 131.789 206.6 131.368 205.857 131.074C205.394 130.857 204.875 130.63 204.342 130.32C203.755 129.999 203.246 129.553 202.85 129.013C202.024 127.857 201.76 126.308 200.665 125.243C199.636 124.236 198.305 123.594 196.876 123.416C195.703 123.275 194.513 123.369 193.376 123.692C192.328 124.026 191.302 124.424 190.303 124.884C190.527 124.683 190.778 124.514 191.049 124.384C191.762 123.982 192.515 123.657 193.297 123.415C194.467 123.04 195.703 122.914 196.925 123.045C198.445 123.213 199.864 123.887 200.954 124.959C202.143 126.137 202.404 127.743 203.154 128.797C203.914 129.694 204.886 130.388 205.981 130.815C206.739 131.142 207.425 131.615 208.001 132.207C208.151 132.375 208.277 132.563 208.376 132.766C208.442 132.908 208.47 132.982 208.457 132.988Z" fill="#455A64"/>
<path d="M205.998 144.022C205.985 143.45 206.611 142.084 207.173 141.981C208.673 141.707 211.398 141.757 211.523 145.588C211.694 150.824 206.401 149.915 206.387 149.766C206.376 149.649 206.045 145.997 205.998 144.022Z" fill="#B78876"/>
<path d="M207.922 147.73C207.945 147.712 208.015 147.79 208.172 147.856C208.392 147.942 208.636 147.939 208.854 147.848C209.185 147.623 209.45 147.313 209.622 146.951C209.794 146.589 209.867 146.188 209.833 145.789C209.831 145.339 209.728 144.895 209.533 144.489C209.478 144.327 209.385 144.181 209.262 144.063C209.138 143.945 208.988 143.858 208.824 143.811C208.718 143.787 208.607 143.8 208.51 143.849C208.413 143.898 208.336 143.98 208.293 144.079C208.228 144.228 208.265 144.331 208.237 144.341C208.209 144.351 208.122 144.257 208.157 144.041C208.184 143.91 208.254 143.792 208.357 143.706C208.498 143.593 208.677 143.539 208.857 143.556C209.073 143.592 209.277 143.682 209.448 143.819C209.62 143.956 209.753 144.134 209.836 144.337C210.073 144.784 210.198 145.281 210.2 145.787C210.24 146.252 210.142 146.718 209.919 147.127C209.695 147.536 209.356 147.87 208.943 148.087C208.804 148.132 208.656 148.146 208.511 148.127C208.366 148.107 208.227 148.056 208.104 147.976C207.936 147.861 207.904 147.74 207.922 147.73Z" fill="#AA6550"/>
<path d="M210.213 149.016C210.291 148.907 210.469 148.854 210.72 148.966C210.89 149.057 211.039 149.182 211.157 149.334C211.275 149.486 211.36 149.662 211.405 149.849C211.49 150.156 211.497 150.479 211.424 150.789C211.352 151.099 211.202 151.386 210.989 151.623C210.727 151.915 210.394 152.134 210.022 152.259C209.65 152.384 209.252 152.411 208.867 152.338C208.482 152.265 208.122 152.094 207.822 151.841C207.522 151.588 207.293 151.262 207.156 150.894C207.045 150.617 206.994 150.32 207.007 150.022C207.019 149.724 207.095 149.432 207.229 149.165C207.317 148.981 207.447 148.821 207.608 148.696C207.769 148.572 207.957 148.486 208.157 148.446C208.457 148.411 208.605 148.554 208.621 148.684C208.616 148.831 208.596 148.977 208.559 149.119C208.541 149.282 208.549 149.447 208.583 149.608C208.631 149.791 208.717 149.961 208.836 150.108C208.933 150.236 209.072 150.325 209.229 150.358C209.382 150.382 209.539 150.364 209.683 150.306C209.753 150.279 209.817 150.237 209.869 150.182C209.921 150.127 209.96 150.062 209.983 149.99C210.157 149.639 210.065 149.25 210.213 149.016Z" fill="#455A64"/>
<path d="M184.343 166.272L191.143 165.094L207.298 164.508L214.61 164.873C214.61 164.873 200.582 174.624 184.343 166.272Z" fill="#FF725E"/>
<path d="M228.857 139.005C228.857 139.005 228.835 138.837 228.812 138.505C228.789 138.173 228.759 137.681 228.718 137.053C228.699 136.732 228.678 136.376 228.655 135.983C228.613 135.591 228.53 135.167 228.461 134.705C228.392 134.243 228.308 133.746 228.224 133.216C228.12 132.653 227.986 132.096 227.824 131.547C227.111 128.686 225.968 125.949 224.435 123.43C222.43 120.079 219.799 117.145 216.684 114.788L215.367 113.807C214.904 113.507 214.417 113.226 213.935 112.929C213.443 112.65 212.977 112.31 212.449 112.071L210.868 111.313L210.068 110.932L209.224 110.624L207.511 110C206.929 109.808 206.32 109.684 205.717 109.521C205.112 109.345 204.497 109.205 203.875 109.104C202.604 108.868 201.318 108.719 200.027 108.659C199.371 108.636 198.71 108.572 198.043 108.583L196.03 108.683C195.692 108.706 195.351 108.704 195.013 108.749L193.999 108.905C193.322 109.017 192.633 109.097 191.952 109.238C190.575 109.546 189.221 109.943 187.896 110.428C186.536 110.918 185.211 111.501 183.93 112.172C183.288 112.52 182.672 112.926 182.036 113.303C181.725 113.503 181.392 113.672 181.096 113.897L180.201 114.567C177.717 116.351 175.545 118.533 173.772 121.024L173.072 121.96L172.46 122.96L171.849 123.967C171.633 124.298 171.444 124.644 171.282 125.004L170.25 127.148L169.425 129.4C167.334 135.625 167.334 142.363 169.425 148.588L170.25 150.84L171.282 152.985L171.542 153.517L171.849 154.023L172.46 155.03L173.072 156.03L173.772 156.966C175.546 159.457 177.719 161.639 180.202 163.424L181.102 164.095C181.402 164.32 181.731 164.495 182.042 164.689C182.678 165.066 183.294 165.472 183.936 165.82C185.217 166.492 186.542 167.074 187.903 167.564C189.228 168.049 190.583 168.447 191.96 168.755C192.641 168.896 193.33 168.975 194.007 169.088L195.021 169.244C195.359 169.288 195.701 169.286 196.038 169.31L198.052 169.41C198.718 169.42 199.379 169.356 200.036 169.333C201.327 169.273 202.613 169.125 203.884 168.888C204.506 168.787 205.121 168.648 205.726 168.471C206.326 168.308 206.938 168.184 207.52 167.991L209.233 167.367L210.077 167.06L210.877 166.679L212.458 165.921C212.986 165.681 213.452 165.341 213.944 165.062C214.425 164.762 214.913 164.487 215.375 164.184L216.693 163.203C219.807 160.847 222.438 157.913 224.443 154.561C225.976 152.042 227.118 149.306 227.831 146.444C227.994 145.896 228.127 145.339 228.231 144.776L228.468 143.287C228.537 142.825 228.621 142.4 228.662 142.009C228.685 141.616 228.706 141.26 228.725 140.939C228.766 140.311 228.797 139.828 228.819 139.487C228.841 139.146 228.864 138.992 228.864 138.992C228.864 138.992 228.87 139.16 228.864 139.492C228.858 139.824 228.834 140.318 228.81 140.948C228.797 141.27 228.782 141.629 228.766 142.023C228.731 142.416 228.653 142.843 228.59 143.307C228.527 143.771 228.449 144.272 228.371 144.807C228.273 145.374 228.145 145.934 227.988 146.487C227.297 149.373 226.168 152.137 224.64 154.681C222.639 158.074 220 161.046 216.869 163.435L215.544 164.43C215.078 164.738 214.587 165.021 214.102 165.322C213.602 165.607 213.136 165.951 212.602 166.195L211.007 166.966L210.196 167.354L209.344 167.668L207.615 168.304C207.027 168.504 206.415 168.628 205.803 168.795C205.192 168.975 204.57 169.118 203.942 169.222C202.657 169.464 201.358 169.618 200.052 169.682C199.389 169.707 198.72 169.773 198.046 169.764L196.009 169.664C195.668 169.641 195.323 169.644 194.981 169.599L193.954 169.444C193.269 169.332 192.571 169.253 191.882 169.111C190.488 168.802 189.115 168.401 187.774 167.911C186.395 167.418 185.053 166.83 183.755 166.152C183.104 165.8 182.479 165.391 181.835 165.01C181.519 164.81 181.183 164.636 180.882 164.41L179.975 163.732C177.457 161.928 175.255 159.72 173.456 157.198L172.747 156.251L172.125 155.238L171.505 154.217L171.194 153.706L170.931 153.167L169.883 150.994C169.606 150.236 169.327 149.476 169.046 148.712C166.925 142.405 166.925 135.578 169.046 129.271L169.883 126.99L170.93 124.818C171.094 124.454 171.286 124.103 171.505 123.768L172.125 122.748L172.746 121.736L173.455 120.788C175.254 118.267 177.456 116.061 179.973 114.256L180.88 113.579C181.18 113.352 181.517 113.179 181.833 112.979C182.477 112.598 183.101 112.189 183.752 111.837C185.05 111.16 186.393 110.572 187.771 110.078C189.112 109.588 190.484 109.187 191.878 108.878C192.568 108.737 193.265 108.658 193.95 108.546L194.977 108.39C195.319 108.346 195.664 108.349 196.005 108.325L198.042 108.225C198.716 108.216 199.384 108.282 200.048 108.307C201.353 108.371 202.653 108.525 203.937 108.767C204.566 108.872 205.188 109.014 205.799 109.194C206.407 109.361 207.022 109.489 207.61 109.685L209.339 110.321L210.191 110.634L211.002 111.022L212.597 111.794C213.128 112.037 213.597 112.382 214.097 112.666C214.582 112.966 215.073 113.25 215.539 113.558L216.864 114.558C219.996 116.947 222.635 119.92 224.636 123.312C226.164 125.856 227.294 128.62 227.984 131.506C228.142 132.059 228.27 132.62 228.368 133.187C228.446 133.72 228.519 134.22 228.587 134.687C228.65 135.152 228.728 135.579 228.763 135.972C228.779 136.368 228.794 136.726 228.807 137.047C228.831 137.677 228.848 138.161 228.861 138.504C228.874 138.847 228.857 139.005 228.857 139.005Z" fill="#263238"/>
<path d="M324.948 333.914C322.975 332.016 320.557 330.645 317.915 329.927C315.273 329.209 312.493 329.168 309.831 329.807C307.17 330.446 304.711 331.745 302.683 333.584C300.655 335.423 299.123 337.742 298.227 340.329L300.16 347.806C300.895 345.259 302.469 342.797 304.904 341.748C307.436 340.657 310.369 341.278 312.961 342.219C315.553 343.16 318.098 344.419 320.85 344.591C323.602 344.763 326.708 343.455 327.533 340.824C328.307 338.35 326.816 335.712 324.948 333.914Z" fill="#FF725E"/>
<g opacity="0.3">
<path d="M324.948 333.914C322.975 332.016 320.557 330.645 317.915 329.927C315.273 329.209 312.493 329.168 309.831 329.807C307.17 330.446 304.711 331.745 302.683 333.584C300.655 335.423 299.123 337.742 298.227 340.329L300.16 347.806C300.895 345.259 302.469 342.797 304.904 341.748C307.436 340.657 310.369 341.278 312.961 342.219C315.553 343.16 318.098 344.419 320.85 344.591C323.602 344.763 326.708 343.455 327.533 340.824C328.307 338.35 326.816 335.712 324.948 333.914Z" fill="black"/>
</g>
<path d="M278.357 358.861C274.319 355.025 274.521 348.348 276.535 343.155C278.549 337.962 282.946 333.975 287.856 331.348C292.65 328.831 297.952 327.432 303.363 327.256C308.775 327.081 314.156 328.134 319.103 330.335C316.681 330.439 314.321 331.135 312.231 332.363C310.14 333.59 308.383 335.312 307.112 337.376C304.899 341.051 304.407 345.511 302.579 349.392C300.518 353.768 296.858 357.188 292.353 358.949C287.848 360.71 282.84 360.679 278.357 358.861Z" fill="#FF725E"/>
<path d="M276.414 335.816C271.944 330.539 271.349 322.068 272.007 315.183C272.665 308.298 274.261 301.369 273.176 294.539C272.532 290.493 270.962 286.629 270.432 282.566C269.902 278.503 270.653 273.908 273.801 271.286C277.42 268.272 283.117 268.986 286.881 271.813C290.645 274.64 292.826 279.089 294.42 283.521C297.92 293.257 299.207 304.053 296.33 313.992C293.453 323.931 286.705 332.816 276.803 335.816" fill="#FF725E"/>
<path d="M274.269 379.113C274.247 378.911 274.241 378.708 274.252 378.505C274.257 378.105 274.252 377.518 274.285 376.762C274.342 375.248 274.485 373.062 274.827 370.37C275.225 367.221 275.799 364.096 276.545 361.011C277.472 357.222 278.909 353.577 280.816 350.175C282.73 346.777 285.076 343.64 287.795 340.844C290.009 338.56 292.462 336.52 295.112 334.76C296.229 333.987 297.312 333.401 298.239 332.86C299.192 332.36 300.024 331.949 300.706 331.62L302.315 330.943C302.499 330.858 302.689 330.787 302.884 330.731C302.712 330.839 302.531 330.933 302.344 331.012L300.768 331.75C300.098 332.098 299.279 332.526 298.339 333.041C297.424 333.599 296.359 334.197 295.258 334.979C289.434 338.955 284.603 344.217 281.138 350.358C277.028 357.548 275.903 365.108 275.086 370.407C274.715 373.083 274.53 375.263 274.429 376.771C274.386 377.5 274.352 378.08 274.329 378.509C274.325 378.712 274.305 378.914 274.269 379.113Z" fill="#263238"/>
<path d="M235.709 314.998C227.437 319.989 227.463 324.531 228.845 328.819C230.227 333.107 235.302 336.085 239.511 334.479C241.89 333.572 243.611 331.504 245.086 329.426C246.561 327.348 247.941 325.126 250.003 323.632C252.065 322.138 255.057 321.568 257.129 323.048" fill="#FF725E"/>
<path d="M259.75 324.446L251.826 321.469L254.983 321.84C255.837 321.931 256.653 322.238 257.355 322.733L259.75 324.446Z" fill="black"/>
<g opacity="0.3">
<path d="M235.709 314.998C227.437 319.989 227.463 324.531 228.845 328.819C230.227 333.107 235.302 336.085 239.511 334.479C241.89 333.572 243.611 331.504 245.086 329.426C246.561 327.348 247.941 325.126 250.003 323.632C251.422 322.579 253.176 322.078 254.937 322.224L235.709 314.998Z" fill="black"/>
</g>
<path d="M229.516 320.47C231.679 317.482 237.022 316.617 240.396 318.107C243.77 319.597 246.241 322.556 248.453 325.507C250.665 328.458 252.818 331.576 255.882 333.629C258.946 335.682 263.226 336.429 266.282 334.358C267.255 333.632 268.071 332.715 268.678 331.664C269.285 330.612 269.672 329.448 269.814 328.242C270.084 325.828 269.919 323.386 269.328 321.03C268.599 317.561 267.407 313.938 264.628 311.73C261.534 309.274 257.241 309.157 253.293 309.287C248.762 309.435 244.164 309.775 239.912 311.345C235.66 312.915 231.32 316.307 229.512 320.465" fill="#FF725E"/>
<path d="M267.394 372.489C267.379 372.43 267.372 372.369 267.372 372.308L267.344 371.774C267.327 371.275 267.303 370.591 267.273 369.721C267.221 367.907 267.147 365.336 267.056 362.171C266.956 358.984 266.826 355.19 266.596 350.982C266.366 346.774 266.048 342.149 265.41 337.334C265.139 334.99 264.681 332.672 264.039 330.402C263.381 328.308 262.533 326.278 261.505 324.338C260.583 322.577 259.512 320.897 258.305 319.318C257.244 317.95 256.076 316.668 254.813 315.484C252.967 313.782 250.881 312.36 248.622 311.263C248.222 311.079 247.866 310.897 247.549 310.763L246.741 310.45L246.246 310.25C246.187 310.231 246.132 310.204 246.081 310.169C246.142 310.176 246.201 310.191 246.258 310.214L246.766 310.38L247.59 310.661C247.913 310.78 248.271 310.952 248.683 311.128C250.985 312.183 253.112 313.586 254.989 315.286C256.277 316.467 257.467 317.751 258.547 319.125C259.777 320.71 260.866 322.399 261.804 324.173C262.851 326.128 263.715 328.176 264.383 330.29C265.036 332.578 265.502 334.915 265.774 337.279C266.415 342.113 266.717 346.747 266.934 350.959C267.151 355.171 267.249 358.97 267.315 362.159C267.381 365.348 267.406 367.93 267.415 369.714C267.415 370.582 267.415 371.269 267.415 371.768C267.415 371.984 267.408 372.16 267.406 372.302C267.411 372.365 267.407 372.428 267.394 372.489Z" fill="#263238"/>
<path d="M270.371 376.227C269.978 375.068 269.675 373.881 269.465 372.675C268.892 369.381 268.764 366.024 269.086 362.696C269.592 357.767 270.649 352.91 272.238 348.217C273.938 342.895 276.238 337.204 278.208 331.088C279.179 328.117 279.972 325.091 280.583 322.025C281.13 319.166 281.521 316.28 281.756 313.378C282.133 308.458 282.221 303.52 282.02 298.59C281.877 294.378 281.653 290.972 281.513 288.618C281.445 287.459 281.392 286.55 281.354 285.907C281.34 285.612 281.329 285.379 281.321 285.201C281.291 285.197 281.264 285.181 281.245 285.157C281.226 285.133 281.217 285.103 281.219 285.072C281.221 285.042 281.235 285.013 281.257 284.993C281.28 284.972 281.309 284.96 281.34 284.96C281.37 284.96 281.399 284.972 281.422 284.993C281.444 285.013 281.458 285.042 281.46 285.072C281.463 285.103 281.453 285.133 281.434 285.157C281.415 285.181 281.388 285.197 281.358 285.201C281.376 285.379 281.399 285.611 281.428 285.901C281.482 286.543 281.559 287.451 281.657 288.608C281.841 290.959 282.105 294.364 282.281 298.581C282.52 303.522 282.459 308.472 282.096 313.405C281.87 316.32 281.484 319.221 280.939 322.094C280.33 325.175 279.536 328.216 278.56 331.2C276.585 337.337 274.272 343.021 272.56 348.322C270.964 352.99 269.885 357.819 269.344 362.722C269.002 366.03 269.089 369.368 269.604 372.653C269.804 373.811 269.993 374.708 270.157 375.306C270.226 375.592 270.281 375.819 270.324 375.992C270.347 376.069 270.363 376.147 270.371 376.227Z" fill="#263238"/>
<path d="M290.877 379.961H252.039L251.152 372.486H290.877V379.961Z" fill="#455A64"/>
<path d="M256.207 379.113L261.063 401.538H282.163L286.706 379.113H256.207Z" fill="#455A64"/>
<path d="M290.876 379.961C290.876 380.061 282.337 380.122 271.807 380.092C261.277 380.062 252.736 379.956 252.736 379.854C252.736 379.752 261.274 379.693 271.808 379.722C282.342 379.751 290.877 379.861 290.876 379.961Z" fill="#455A64"/>
<path d="M284.211 391.033C283.156 390.242 282.007 389.583 280.791 389.073C279.464 388.552 278.056 388.269 276.631 388.238C274.884 388.243 273.153 388.561 271.518 389.176C269.748 389.776 268.094 390.476 266.485 390.855C265.055 391.164 263.58 391.209 262.134 390.986C261.16 390.847 260.216 390.548 259.339 390.101C259.104 389.975 258.878 389.832 258.664 389.673C258.519 389.563 258.446 389.5 258.454 389.49C258.474 389.46 258.785 389.682 259.402 389.972C260.283 390.359 261.216 390.613 262.171 390.727C263.585 390.908 265.019 390.841 266.409 390.527C267.963 390.138 269.616 389.434 271.4 388.827C273.075 388.197 274.851 387.882 276.64 387.898C278.102 387.946 279.542 388.262 280.889 388.832C281.795 389.209 282.646 389.706 283.42 390.308C283.63 390.469 283.831 390.643 284.02 390.828C284.157 390.953 284.219 391.024 284.211 391.033Z" fill="#263238"/>
<path d="M283.916 392.531C282.897 391.765 281.795 391.116 280.631 390.597C279.357 390.076 277.997 389.795 276.621 389.77C274.933 389.776 273.258 390.077 271.674 390.66C269.963 391.232 268.358 391.896 266.824 392.308C265.467 392.7 264.054 392.859 262.644 392.777C261.69 392.721 260.758 392.472 259.903 392.044C259.675 391.924 259.457 391.786 259.25 391.631C259.109 391.524 259.04 391.464 259.05 391.454C259.071 391.423 259.371 391.64 259.969 391.915C260.822 392.279 261.736 392.483 262.663 392.515C264.041 392.558 265.416 392.377 266.736 391.979C268.236 391.556 269.83 390.887 271.561 390.308C273.184 389.711 274.902 389.413 276.632 389.428C278.046 389.47 279.438 389.785 280.732 390.355C281.601 390.736 282.416 391.229 283.157 391.822C283.359 391.98 283.552 392.149 283.735 392.329C283.863 392.453 283.925 392.521 283.916 392.531Z" fill="white"/>
<path d="M284.596 389.547C283.505 388.729 282.327 388.035 281.083 387.477C279.731 386.895 278.289 386.548 276.82 386.452C275.017 386.414 273.225 386.73 271.544 387.382C269.841 388.048 268.1 388.616 266.332 389.082C264.846 389.34 263.327 389.342 261.84 389.089C260.838 388.932 259.865 388.624 258.955 388.176C258.711 388.049 258.477 387.904 258.255 387.741C258.104 387.628 258.029 387.565 258.036 387.554C258.057 387.525 258.378 387.754 259.018 388.046C259.933 388.434 260.897 388.698 261.882 388.831C263.339 389.041 264.821 389.013 266.269 388.747C268.016 388.263 269.738 387.69 271.426 387.029C273.151 386.362 274.993 386.049 276.842 386.11C279.366 386.313 281.777 387.246 283.78 388.795C283.998 388.962 284.206 389.141 284.403 389.333C284.537 389.461 284.604 389.537 284.596 389.547Z" fill="white"/>
<path d="M291.22 379.997C291.22 380.097 282.483 380.182 271.709 380.182C260.935 380.182 252.196 380.099 252.196 379.997C252.196 379.895 260.931 379.812 271.709 379.812C282.487 379.812 291.22 379.895 291.22 379.997Z" fill="#263238"/>
<path d="M98.4569 392.036L96.1289 357.736L114.686 359.481L113.139 392.732L104.013 393.238L98.4569 392.036Z" fill="#B78876"/>
<path d="M97.9239 390.332L97.9299 391.332C97.9299 391.332 81.0299 398.316 80.8789 401.538L114.573 401.03L113.946 389.83C111.468 391.058 108.754 391.739 105.99 391.826C103.225 391.912 100.474 391.403 97.9239 390.332Z" fill="#FF725E"/>
<g opacity="0.6">
<path d="M110.589 393.461C110.914 393.555 111.194 393.766 111.374 394.053C111.554 394.34 111.621 394.683 111.564 395.017C111.482 395.346 111.278 395.631 110.992 395.813C110.707 395.995 110.362 396.061 110.03 395.997C109.685 395.897 109.39 395.673 109.2 395.367C109.011 395.062 108.942 394.697 109.006 394.344C109.126 394.01 109.372 393.736 109.69 393.578C110.009 393.421 110.375 393.393 110.714 393.501" fill="white"/>
</g>
<g opacity="0.6">
<path d="M114.574 401.031L114.423 398.336L82.1839 399.81C82.1839 399.81 80.6939 400.485 80.8839 401.539L114.574 401.031Z" fill="white"/>
</g>
<path d="M97.8139 391.429C97.8209 391.594 98.6449 391.656 99.4629 392.173C100.294 392.668 100.722 393.373 100.872 393.307C101.023 393.273 100.763 392.293 99.7629 391.685C98.7629 391.077 97.7759 391.279 97.8139 391.429Z" fill="#263238"/>
<path d="M94.302 392.944C94.266 393.104 94.983 393.373 95.552 394.061C96.142 394.731 96.294 395.482 96.458 395.472C96.613 395.496 96.712 394.53 95.988 393.689C95.264 392.848 94.303 392.787 94.302 392.944Z" fill="#263238"/>
<path d="M92.3569 397.204C92.5069 397.237 92.7239 396.411 92.2879 395.517C91.8519 394.623 91.0769 394.275 91.0089 394.417C90.9179 394.554 91.4249 395.03 91.7719 395.77C92.1369 396.497 92.1939 397.19 92.3569 397.204Z" fill="#263238"/>
<path d="M136.53 369.061L115.698 341.717L132.149 332.953L149.17 361.558L141.832 367.007L136.53 369.061Z" fill="#B78876"/>
<path d="M135.148 367.933L135.704 368.765C135.704 368.765 125.443 383.903 127.093 386.674L154.937 367.693L148.237 358.686C146.846 361.076 144.957 363.139 142.699 364.734C140.441 366.33 137.865 367.421 135.148 367.933Z" fill="#FF725E"/>
<g opacity="0.6">
<path d="M147.443 363.57C147.766 363.469 148.116 363.491 148.424 363.632C148.732 363.772 148.977 364.022 149.113 364.332C149.226 364.651 149.212 365.002 149.074 365.311C148.936 365.62 148.686 365.865 148.373 365.995C148.03 366.102 147.66 366.077 147.334 365.926C147.008 365.776 146.749 365.509 146.608 365.179C146.524 364.834 146.578 364.47 146.757 364.163C146.937 363.856 147.228 363.631 147.57 363.535" fill="white"/>
</g>
<g opacity="0.6">
<path d="M154.937 367.693L153.327 365.527L127.227 384.512C127.227 384.512 126.355 385.896 127.09 386.674L154.937 367.693Z" fill="white"/>
</g>
<path d="M135.657 368.909C135.757 369.042 136.476 368.641 137.443 368.622C138.409 368.578 139.156 368.931 139.243 368.792C139.35 368.68 138.594 368.006 137.423 368.049C136.252 368.092 135.545 368.805 135.657 368.909Z" fill="#263238"/>
<path d="M133.563 372.108C133.621 372.261 134.363 372.091 135.222 372.351C136.083 372.586 136.622 373.129 136.755 373.031C136.897 372.965 136.448 372.104 135.381 371.801C134.314 371.498 133.477 371.976 133.563 372.108Z" fill="#263238"/>
<path d="M134.287 376.734C134.43 376.679 134.156 375.871 133.299 375.364C132.442 374.857 131.605 374.995 131.624 375.147C131.624 375.311 132.309 375.429 133.006 375.856C133.713 376.266 134.142 376.813 134.287 376.734Z" fill="#263238"/>
<path d="M104.34 251.384C104.34 251.384 88.24 308.764 89.327 312.884C90.414 317.004 119.002 359.374 119.817 359.632C120.632 359.89 143.226 346.422 143.226 346.422L119.817 307.831C119.817 307.831 132.85 279.915 136.651 267.583C140.452 255.251 141.185 254.622 138.823 243.394C137.391 236.588 131.006 227.474 131.006 227.474L129.983 224.321H103.602L104.34 251.384Z" fill="#263238"/>
<path d="M86.9629 224.321L85.0629 231.921C81.8049 234.241 76.9219 245.195 76.6499 249.576C76.3779 253.957 75.3289 271.952 75.2929 284.371C75.2509 298.791 91.2779 384.45 91.2779 384.45H120.111L109.954 248.545L107.412 224.317L86.9629 224.321Z" fill="#263238"/>
<path d="M103.416 241.53C103.409 241.64 103.394 241.749 103.369 241.856C103.325 242.088 103.269 242.402 103.191 242.804L102.465 246.445C101.792 249.598 100.79 254.154 99.4649 259.762C98.1559 265.375 96.5359 272.043 94.9449 279.491C94.1639 283.217 93.3769 287.137 92.7519 291.23C92.0449 295.441 91.6329 299.697 91.5189 303.966C91.296 308.226 91.9075 312.488 93.3189 316.513C94.7548 320.223 96.4293 323.835 98.3319 327.328C101.926 334.038 105.554 339.869 108.732 344.671C111.91 349.473 114.658 353.242 116.632 355.782C117.642 357.036 118.417 358.017 118.988 358.644L119.616 359.377C119.689 359.458 119.756 359.544 119.816 359.636C118.647 358.443 117.542 357.189 116.506 355.879C114.485 353.365 111.697 349.619 108.486 344.829C105.275 340.039 101.617 334.219 97.9959 327.502C96.0754 323.998 94.3864 320.373 92.9399 316.648C91.5078 312.578 90.8865 308.267 91.1109 303.959C91.2247 299.672 91.641 295.398 92.3569 291.169C92.9889 287.069 93.7849 283.142 94.5769 279.414C96.1889 271.962 97.8389 265.3 99.1829 259.696C100.547 254.096 101.591 249.553 102.31 246.412C102.654 244.854 102.923 243.637 103.11 242.788C103.202 242.388 103.274 242.078 103.328 241.847C103.349 241.739 103.378 241.633 103.416 241.53Z" fill="#455A64"/>
<path d="M137.438 244.718C137.126 244.871 136.798 244.988 136.459 245.065C135.548 245.321 134.616 245.496 133.675 245.59C130.544 245.923 127.38 245.443 124.49 244.195C121.599 242.946 119.079 240.973 117.175 238.466C116.598 237.716 116.088 236.918 115.649 236.08C115.472 235.781 115.332 235.462 115.231 235.13C115.303 235.089 115.913 236.447 117.399 238.29C119.326 240.701 121.816 242.601 124.649 243.825C127.483 245.048 130.574 245.557 133.65 245.307C136.01 245.125 137.418 244.637 137.438 244.718Z" fill="#455A64"/>
<path d="M88.51 232.801C88.4999 233.018 88.4554 233.232 88.378 233.435C88.2188 234 88.0254 234.554 87.799 235.095C86.3071 238.703 83.8365 241.822 80.666 244.1C80.1909 244.445 79.6953 244.76 79.182 245.044C79.0027 245.166 78.8048 245.259 78.596 245.317C78.561 245.258 79.34 244.778 80.496 243.872C83.5157 241.509 85.9299 238.462 87.539 234.981C88.157 233.649 88.445 232.781 88.51 232.801Z" fill="#455A64"/>
<path d="M135.208 123.2C135.819 122.487 136.218 121.618 136.362 120.69C136.506 119.762 136.388 118.813 136.022 117.949C135.655 117.085 135.055 116.34 134.288 115.798C133.522 115.256 132.619 114.939 131.682 114.882C131.983 114.008 132.054 113.07 131.888 112.161C131.722 111.251 131.324 110.4 130.733 109.689C130.142 108.977 129.378 108.43 128.514 108.101C127.65 107.771 126.716 107.669 125.801 107.805C125.741 106.88 125.46 105.983 124.981 105.19C124.502 104.397 123.84 103.73 123.049 103.246C122.259 102.762 121.364 102.475 120.44 102.409C119.516 102.343 118.589 102.499 117.738 102.866C117.192 102.202 116.499 101.674 115.715 101.323C114.931 100.971 114.075 100.806 113.217 100.84C112.358 100.874 111.518 101.106 110.764 101.518C110.01 101.93 109.361 102.511 108.869 103.216C107.916 103.379 107.008 103.744 106.207 104.285C105.323 104.132 104.413 104.268 103.613 104.675C102.623 105.217 101.72 105.903 100.933 106.711C99.591 107.959 98.189 109.303 97.714 111.073C97.183 113.046 97.883 115.309 96.889 117.094C96.4029 117.732 95.9727 118.412 95.603 119.124C95.103 120.565 96.074 122.117 95.957 123.637C95.833 125.246 94.506 126.65 94.666 128.255C94.7793 128.83 95.0102 129.376 95.3442 129.858C95.6782 130.339 96.1081 130.747 96.607 131.055C97.6054 131.664 98.5363 132.378 99.384 133.184C100.002 133.884 100.402 134.756 101.008 135.469C101.906 136.448 103.143 137.05 104.468 137.152C105.793 137.255 107.108 136.85 108.146 136.021C108.856 136.56 109.684 136.921 110.562 137.075C111.44 137.229 112.342 137.171 113.193 136.906C114.888 136.36 116.484 135.543 117.918 134.487C118.238 134.924 118.662 135.273 119.152 135.503C119.642 135.733 120.182 135.836 120.722 135.803C121.262 135.77 121.786 135.602 122.244 135.315C122.702 135.027 123.081 134.629 123.346 134.157C123.592 134.724 124.019 135.193 124.56 135.492C125.101 135.791 125.725 135.902 126.336 135.809C127.554 135.594 128.707 135.105 129.709 134.379C131.678 133.166 133.877 131.571 133.93 129.26C133.962 127.846 133.146 126.385 133.684 125.077C134.09 124.375 134.604 123.741 135.208 123.2Z" fill="#263238"/>
<path d="M91.343 113.978C92.5247 112.326 94.0387 110.938 95.7878 109.905C97.5368 108.872 99.4825 108.215 101.5 107.978C107.1 107.024 113.345 107.978 117.9 111.378C122.083 114.499 124.4 119.652 125.048 124.83C125.139 126.652 124.856 128.473 124.217 130.181C123.423 132.228 121.961 133.946 120.068 135.058C118.438 135.915 117.756 135.366 116.376 134.147C115.589 133.337 114.979 132.374 114.584 131.316C112.602 126.99 110.337 122.703 107.002 119.31C103.667 115.917 99.102 113.483 94.348 113.63" fill="#FF725E"/>
<path d="M116.089 122.536C115.517 120.981 115.768 119.257 115.555 117.614C115.239 115.812 114.454 114.124 113.281 112.72C112.107 111.316 110.585 110.245 108.867 109.614C105.391 108.399 101.602 108.42 98.1399 109.672C95.5203 110.455 93.1673 111.945 91.34 113.979C90.1875 115.373 89.3852 117.022 88.9999 118.789C88.6146 120.556 88.6574 122.39 89.125 124.137L107.634 121.683C109.267 123.23 111.143 124.498 113.186 125.438C113.788 125.714 114.451 125.828 115.11 125.77C115.439 125.736 115.75 125.607 116.008 125.4C116.265 125.194 116.458 124.917 116.562 124.603C116.613 123.882 116.448 123.163 116.089 122.536Z" fill="#263238"/>
<path d="M97.68 114.767L113.766 118.39C114.518 118.45 115.22 118.79 115.734 119.342C116.247 119.895 116.535 120.62 116.539 121.374L115.899 156.274C115.856 158.658 115.027 160.962 113.542 162.827L111.978 164.792C111.161 165.833 110.097 166.653 108.883 167.179C107.669 167.705 106.343 167.92 105.025 167.805C103.707 167.69 102.438 167.248 101.334 166.519C100.23 165.79 99.3243 164.798 98.7 163.631C98.5408 163.342 98.4201 163.034 98.341 162.713C98.2785 162.453 98.2311 162.189 98.199 161.923C97.943 160.173 97.872 158.4 97.987 156.634C97.869 153.524 97.836 152.248 97.835 152.277C97.835 152.277 91.245 151.358 89.663 142.832C88.876 138.592 88.908 131.605 89.119 125.89C89.309 120.749 92.548 114.361 97.68 114.767Z" fill="#B78876"/>
<path d="M92.457 131.209C92.462 131.495 92.5784 131.769 92.7816 131.971C92.9847 132.172 93.2586 132.287 93.545 132.29C93.685 132.297 93.825 132.277 93.9568 132.229C94.0886 132.181 94.2097 132.108 94.3127 132.013C94.4157 131.918 94.4987 131.803 94.5568 131.676C94.6149 131.548 94.647 131.41 94.651 131.27C94.6461 130.984 94.53 130.711 94.3272 130.509C94.1245 130.308 93.8511 130.193 93.565 130.189C93.4249 130.181 93.2846 130.202 93.1525 130.249C93.0203 130.297 92.8991 130.37 92.7958 130.465C92.6925 130.561 92.6093 130.675 92.5511 130.803C92.493 130.931 92.461 131.069 92.457 131.209Z" fill="#263238"/>
<path d="M90.728 129.486C90.868 129.626 91.683 128.986 92.865 128.961C94.045 128.916 94.928 129.501 95.052 129.353C95.114 129.288 94.968 129.033 94.584 128.768C94.0634 128.427 93.4501 128.255 92.828 128.276C92.212 128.29 91.6165 128.5 91.128 128.876C90.776 129.161 90.657 129.423 90.728 129.486Z" fill="#263238"/>
<path d="M103.657 131.209C103.662 131.495 103.778 131.769 103.982 131.97C104.185 132.172 104.459 132.287 104.745 132.29C104.885 132.297 105.025 132.277 105.157 132.229C105.289 132.181 105.41 132.108 105.513 132.013C105.616 131.918 105.699 131.803 105.757 131.676C105.815 131.548 105.847 131.41 105.851 131.27C105.846 130.984 105.73 130.711 105.527 130.509C105.324 130.307 105.05 130.192 104.764 130.189C104.624 130.181 104.484 130.202 104.352 130.25C104.22 130.297 104.099 130.371 103.995 130.466C103.892 130.561 103.809 130.676 103.751 130.803C103.693 130.931 103.661 131.069 103.657 131.209Z" fill="#263238"/>
<path d="M102.347 129.404C102.488 129.544 103.304 128.904 104.485 128.879C105.665 128.834 106.548 129.42 106.673 129.272C106.733 129.206 106.59 128.951 106.203 128.686C105.683 128.345 105.07 128.173 104.448 128.194C103.832 128.209 103.237 128.419 102.748 128.794C102.396 129.08 102.279 129.342 102.347 129.404Z" fill="#263238"/>
<path d="M98.288 138.278C97.6603 138.098 97.0126 137.997 96.36 137.978C96.06 137.954 95.77 137.902 95.714 137.697C95.6801 137.386 95.7423 137.072 95.892 136.797C96.1587 136.059 96.436 135.285 96.724 134.476C97.5009 132.508 98.1189 130.481 98.572 128.415C97.6379 130.316 96.8584 132.289 96.241 134.315C95.964 135.13 95.698 135.906 95.441 136.649C95.2611 137.018 95.2165 137.439 95.315 137.837C95.3618 137.942 95.4318 138.035 95.5198 138.11C95.6078 138.184 95.7115 138.237 95.823 138.265C95.9912 138.306 96.1639 138.325 96.337 138.323C96.9866 138.39 97.6422 138.375 98.288 138.278Z" fill="#263238"/>
<path d="M97.835 152.281C101.868 152.238 105.81 151.076 109.222 148.924C109.222 148.924 106.493 154.924 97.903 154.348L97.835 152.281Z" fill="#AA6550"/>
<path d="M98.857 141.113C99.0745 140.824 99.362 140.596 99.6922 140.448C100.023 140.301 100.385 140.241 100.745 140.272C101.006 140.289 101.261 140.358 101.495 140.476C101.729 140.594 101.937 140.757 102.106 140.957C102.269 141.15 102.369 141.388 102.393 141.639C102.416 141.891 102.362 142.143 102.237 142.363C102.053 142.58 101.808 142.737 101.534 142.814C101.259 142.891 100.968 142.885 100.698 142.795C100.135 142.612 99.6134 142.319 99.164 141.933C99.0281 141.842 98.9107 141.727 98.818 141.592C98.7728 141.528 98.7477 141.452 98.746 141.374C98.7442 141.296 98.7657 141.219 98.808 141.153" fill="#AA6550"/>
<path d="M101.786 139.005C101.594 138.999 101.625 140.281 100.55 141.22C99.475 142.159 98.107 142.053 98.102 142.233C98.086 142.314 98.413 142.474 98.99 142.475C99.7416 142.466 100.466 142.192 101.036 141.702C101.582 141.231 101.924 140.566 101.99 139.847C102.025 139.309 101.873 138.995 101.786 139.005Z" fill="#263238"/>
<path d="M102.057 125.837C102.181 126.155 103.357 125.972 104.748 126.103C106.141 126.203 107.269 126.583 107.448 126.29C107.526 126.15 107.324 125.853 106.864 125.554C106.251 125.188 105.562 124.967 104.851 124.907C104.139 124.847 103.424 124.95 102.758 125.208C102.252 125.427 102.003 125.686 102.057 125.837Z" fill="#263238"/>
<path d="M90.936 124.31C91.151 124.573 91.958 124.273 92.936 124.235C93.913 124.162 94.748 124.368 94.936 124.082C95.016 123.944 94.8781 123.682 94.5101 123.434C94.0155 123.142 93.4455 123.004 92.8723 123.037C92.299 123.069 91.7484 123.271 91.2901 123.617C90.9471 123.902 90.841 124.182 90.936 124.31Z" fill="#263238"/>
<path d="M119.077 120.083C117.468 115.15 110.252 108.365 105.077 108.763L96.846 113.779C97.126 115.187 97.7805 116.493 98.7408 117.561C99.701 118.628 100.931 119.416 102.302 119.843C103.766 120.278 105.527 120.387 106.402 121.643C107.302 122.92 106.793 124.792 107.629 126.11C108.787 127.936 111.915 127.827 112.788 129.81C113.169 130.675 112.981 131.71 113.377 132.569C113.906 133.711 116.818 135.144 118.015 134.755C119.212 134.366 119.201 132.323 119.585 131.249C120.07 130.037 120.122 128.695 119.732 127.449C119.197 125.023 119.845 122.437 119.077 120.083Z" fill="#263238"/>
<path d="M122.288 116.395L121.657 119.12C121.691 117.163 121.198 115.233 120.229 113.532C118.167 110.421 113.629 108.311 110.037 107.28C106.445 106.249 102.052 106.88 98.586 108.263C95.4655 109.438 92.7829 111.546 90.903 114.3C88.272 117.862 87.661 123.225 89.289 124.175C90.572 120.481 92.608 116.252 95.833 114.04C97.4344 112.908 99.2643 112.142 101.194 111.793C103.124 111.445 105.106 111.524 107.002 112.025C111.177 113.257 114.361 116.79 116.202 120.733C117.107 122.751 117.81 124.853 118.302 127.009C118.904 129.538 118.886 132.175 118.247 134.695L116.163 142.005L116.116 144.384C121.2 142.501 124.342 137.203 125.182 131.848C126.21 126.517 125.176 120.993 122.288 116.395Z" fill="#FF725E"/>
<path d="M118.013 132.65C117.973 132.636 118.146 132.211 118.279 131.407C118.447 130.268 118.358 129.106 118.017 128.007C117.533 126.377 116.491 124.969 115.072 124.031C114.201 123.521 113.297 123.07 112.365 122.681C111.324 122.258 110.384 121.62 109.605 120.809C108.945 119.915 108.407 118.937 108.005 117.901C107.585 116.998 106.984 116.191 106.24 115.529C104.971 114.394 103.342 113.745 101.64 113.698C100.491 113.671 99.3514 113.905 98.306 114.382C97.563 114.72 97.199 115.002 97.177 114.97C97.169 114.959 97.254 114.883 97.426 114.748C97.6822 114.557 97.9534 114.388 98.237 114.241C99.5527 113.557 101.045 113.287 102.516 113.467C103.988 113.647 105.371 114.269 106.483 115.25C107.272 115.938 107.911 116.781 108.358 117.728C108.751 118.73 109.272 119.676 109.909 120.544C110.651 121.313 111.545 121.919 112.533 122.324C113.479 122.725 114.395 123.193 115.274 123.724C116.496 124.561 117.446 125.736 118.007 127.106C118.569 128.476 118.717 129.981 118.434 131.434C118.368 131.746 118.275 132.052 118.157 132.349C118.125 132.456 118.076 132.558 118.013 132.65Z" fill="#455A64"/>
<path d="M117.228 123.483C117.19 123.505 117.041 123.175 116.599 122.73C115.933 122.136 115.167 121.664 114.337 121.335C113.822 121.092 113.244 120.835 112.652 120.493C112 120.136 111.435 119.64 110.996 119.04C110.08 117.758 109.786 116.028 108.56 114.834C107.409 113.709 105.921 112.992 104.323 112.793C103.012 112.636 101.683 112.743 100.414 113.106C99.2443 113.475 98.1012 113.925 96.993 114.45C97.2471 114.233 97.5281 114.05 97.829 113.904C98.6241 113.459 99.4641 113.1 100.335 112.832C101.637 112.417 103.012 112.278 104.371 112.425C106.059 112.613 107.636 113.363 108.848 114.553C110.168 115.86 110.459 117.647 111.3 118.827C112.15 119.829 113.237 120.603 114.462 121.079C115.306 121.442 116.07 121.966 116.713 122.622C116.881 122.808 117.023 123.016 117.134 123.24C117.208 123.394 117.241 123.477 117.228 123.483Z" fill="#455A64"/>
<path d="M114.487 135.781C114.472 135.144 115.169 133.621 115.797 133.507C117.471 133.201 120.505 133.257 120.645 137.526C120.835 143.363 114.936 142.35 114.921 142.183C114.908 142.052 114.539 137.983 114.487 135.781Z" fill="#B78876"/>
<path d="M116.631 139.914C116.656 139.894 116.731 139.981 116.91 140.055C117.155 140.151 117.428 140.147 117.67 140.045C118.04 139.793 118.336 139.448 118.528 139.043C118.719 138.639 118.8 138.191 118.761 137.745C118.759 137.245 118.645 136.751 118.429 136.299C118.368 136.119 118.265 135.955 118.127 135.824C117.989 135.692 117.821 135.596 117.638 135.544C117.52 135.517 117.396 135.532 117.288 135.587C117.18 135.642 117.095 135.733 117.047 135.844C116.974 136.01 117.015 136.125 116.985 136.136C116.955 136.147 116.856 136.042 116.895 135.8C116.923 135.654 117 135.523 117.113 135.426C117.27 135.3 117.47 135.24 117.671 135.259C117.912 135.299 118.139 135.4 118.33 135.553C118.521 135.705 118.67 135.904 118.762 136.13C119.027 136.627 119.166 137.182 119.168 137.745C119.214 138.264 119.105 138.784 118.856 139.241C118.607 139.698 118.228 140.071 117.768 140.314C117.613 140.365 117.448 140.38 117.286 140.359C117.125 140.337 116.97 140.28 116.833 140.19C116.646 140.055 116.611 139.925 116.631 139.914Z" fill="#AA6550"/>
<path d="M121.536 140.368C121.611 140.161 121.703 139.96 121.811 139.768C121.994 139.378 122.264 138.802 122.542 138.034C123.327 135.864 123.712 133.569 123.676 131.261C123.639 129.67 123.472 128.084 123.176 126.52C122.875 124.719 122.406 122.951 121.776 121.237C121.075 119.351 120.089 117.584 118.853 115.996C117.517 114.299 115.906 112.839 114.087 111.675C110.546 109.41 106.316 108.476 102.15 109.038C100.345 109.274 98.5894 109.798 96.95 110.589C95.5241 111.285 94.2059 112.183 93.0359 113.254C91.3316 114.81 89.9606 116.695 89.006 118.796C88.7501 119.369 88.5242 119.954 88.3289 120.55C88.2727 120.763 88.1998 120.971 88.111 121.173C88.1395 120.954 88.1864 120.738 88.251 120.527C88.4151 119.917 88.6192 119.318 88.862 118.734C90.4226 115.066 93.2374 112.072 96.803 110.289C98.4707 109.467 100.261 108.921 102.103 108.671C106.357 108.075 110.684 109.02 114.303 111.335C116.161 112.523 117.804 114.017 119.163 115.753C120.42 117.375 121.419 119.181 122.124 121.107C122.752 122.845 123.214 124.639 123.504 126.464C123.788 128.049 123.939 129.654 123.955 131.264C123.967 133.601 123.535 135.918 122.683 138.094C122.451 138.682 122.181 139.255 121.877 139.809C121.779 140.004 121.665 140.191 121.536 140.368Z" fill="#263238"/>
<path d="M119.057 141.42C119.135 141.312 119.32 141.263 119.581 141.386C119.758 141.485 119.912 141.621 120.034 141.783C120.156 141.946 120.243 142.131 120.289 142.329C120.368 142.615 120.381 142.916 120.327 143.208C120.256 143.572 120.089 143.911 119.843 144.189C119.567 144.495 119.217 144.724 118.826 144.855C118.436 144.986 118.018 145.015 117.613 144.937C117.209 144.86 116.831 144.681 116.516 144.415C116.201 144.15 115.959 143.808 115.815 143.422C115.697 143.131 115.642 142.818 115.654 142.504C115.665 142.19 115.742 141.882 115.881 141.6C115.972 141.406 116.106 141.236 116.274 141.103C116.441 140.97 116.637 140.877 116.846 140.831C117.161 140.788 117.317 140.931 117.332 141.061C117.325 141.212 117.297 141.361 117.249 141.504C117.214 141.682 117.209 141.864 117.235 142.043C117.275 142.257 117.364 142.459 117.496 142.632C117.61 142.796 117.781 142.911 117.976 142.953C118.167 142.983 118.363 142.954 118.537 142.869C118.617 142.829 118.688 142.773 118.746 142.704C118.803 142.635 118.846 142.555 118.871 142.469C119.039 142.061 118.911 141.654 119.057 141.42Z" fill="#455A64"/>
<path d="M73.27 177.979C73.27 177.979 74.241 170.209 77.987 166.324C81.733 162.439 97.948 157.403 97.948 157.403C97.948 157.403 98.053 163.117 101.806 164.453C103.653 165.222 105.698 165.372 107.638 164.883C109.577 164.393 111.306 163.29 112.567 161.737C114.309 159.622 115.47 157.088 115.934 154.387C115.934 154.387 135.559 156.204 138.611 161.338C141.663 166.472 145.611 186.355 145.611 186.355L128.111 190.069L130.49 224.321H83.99L84.9 192.177L72.241 193.985L73.27 177.979Z" fill="#455A64"/>
<path d="M124.637 191.2C124.581 190.947 124.56 190.687 124.574 190.428C124.56 189.928 124.553 189.212 124.554 188.328C124.554 186.552 124.582 184.099 124.638 181.391C124.694 178.683 124.768 176.229 124.838 174.454C124.875 173.566 124.911 172.848 124.946 172.354C124.942 172.094 124.974 171.835 125.04 171.583C125.096 171.836 125.117 172.095 125.103 172.354C125.116 172.854 125.123 173.569 125.123 174.454C125.123 176.23 125.094 178.684 125.038 181.394C124.982 184.104 124.909 186.557 124.838 188.332C124.802 189.22 124.765 189.938 124.731 190.432C124.734 190.691 124.702 190.95 124.637 191.2Z" fill="#263238"/>
<path d="M80.586 177.098C80.693 177.067 81.786 180.541 83.025 184.856C84.264 189.171 85.183 192.694 85.076 192.725C84.969 192.756 83.876 189.283 82.637 184.967C81.398 180.651 80.479 177.129 80.586 177.098Z" fill="#263238"/>
<path d="M136.657 160.105C136.671 160.177 135.827 160.331 134.549 160.817C131.199 162.1 128.411 164.526 126.676 167.665C126.018 168.865 125.748 169.677 125.676 169.653C125.685 169.45 125.73 169.25 125.808 169.063C125.968 168.536 126.173 168.025 126.421 167.533C127.234 165.898 128.362 164.439 129.74 163.24C131.117 162.042 132.719 161.127 134.451 160.549C134.972 160.371 135.507 160.237 136.051 160.149C136.249 160.1 136.454 160.085 136.657 160.105Z" fill="#263238"/>
<path d="M77.704 167.893C78.3788 169.458 78.8014 171.12 78.956 172.817C78.2812 171.252 77.8586 169.59 77.704 167.893Z" fill="#263238"/>
<path d="M142.497 187.016C142.497 187.016 137.256 213.635 136.656 215.916C136.056 218.197 135.087 224.325 128.74 225.593C120.171 227.305 86.516 226.11 86.516 226.11L92.864 218.074L122.31 209.817L126.334 190.45L142.497 187.016Z" fill="#B78876"/>
<path d="M64.129 182.073C64.129 182.073 68.874 198.04 70.843 204.939C72.936 212.27 77.506 228.917 87.252 225.959C94.664 223.709 92.482 214.103 92.482 214.103L84.897 192.177L78.997 193.161L73.269 178.376L64.129 182.073Z" fill="#B78876"/>
<path d="M89.891 214.793C90.1572 213.604 90.1572 212.37 89.891 211.181C89.5782 209.902 89.0434 208.687 88.311 207.592C87.3842 206.258 86.3565 204.998 85.237 203.821C84.109 202.625 83.0768 201.342 82.15 199.984C81.4073 198.864 80.759 197.684 80.212 196.456C79.8434 195.631 79.5261 194.784 79.262 193.919C79.1463 193.607 79.0691 193.283 79.032 192.952C79.1851 193.246 79.3116 193.552 79.41 193.868C79.64 194.46 79.977 195.316 80.471 196.336C81.0465 197.531 81.7106 198.681 82.458 199.776C83.3922 201.107 84.4208 202.368 85.536 203.551C86.6697 204.743 87.7023 206.027 88.623 207.39C89.3638 208.528 89.8883 209.793 90.17 211.122C90.358 212.019 90.3689 212.945 90.202 213.846C90.1539 214.089 90.087 214.327 90.002 214.559C89.941 214.717 89.904 214.797 89.891 214.793Z" fill="#AA6550"/>
<path d="M56.227 152.084C56.227 152.084 57.027 150.999 58.906 152.674C60.785 154.349 68.549 167.474 69.152 168.679C69.755 169.884 73.27 178.379 73.27 178.379L65.44 183.93L64.129 182.076C64.129 182.076 57.566 176.249 56.229 174.642C55.0503 173.297 53.9759 171.865 53.015 170.356C52.947 170.021 52.479 168.329 53.815 167.836C53.815 167.836 52.543 165.802 53.681 164.798C54.819 163.794 56.896 164.731 56.896 164.731L49.931 155.757C49.931 155.757 49.331 153.078 51.337 154.083C53.343 155.088 58.637 162.789 59.574 162.99C60.511 163.191 60.512 162.19 60.512 162.19C60.512 162.19 55.022 153.905 56.227 152.084Z" fill="#B78876"/>
<path d="M63.386 175.644C63.3135 175.529 63.2599 175.403 63.227 175.271C63.0992 174.908 63.011 174.532 62.964 174.15C62.8547 173.451 62.8914 172.736 63.0716 172.052C63.2518 171.367 63.5716 170.727 64.011 170.172L64.001 170.39L61.701 167.59L61.756 167.637C61.202 167.322 60.643 166.976 60.074 166.601C59.7886 166.413 59.504 166.217 59.22 166.012C58.9149 165.808 58.6318 165.574 58.375 165.312C58.1272 165.062 57.9786 164.73 57.957 164.378C57.9551 164.2 57.9911 164.024 58.0624 163.861C58.1338 163.698 58.239 163.552 58.371 163.432L58.446 163.359L58.555 163.39L63.37 164.755L63.401 164.764L63.425 164.782L67.22 167.608C67.7132 167.949 68.1792 168.327 68.614 168.739C68.0853 168.456 67.5795 168.133 67.101 167.772L63.222 165.062L63.277 165.089L58.448 163.775L58.633 163.733C58.5464 163.815 58.4774 163.913 58.4301 164.022C58.3828 164.131 58.3583 164.249 58.358 164.368C58.3788 164.624 58.4914 164.864 58.675 165.043C58.913 165.282 59.1743 165.496 59.455 165.683C59.735 165.883 60.0146 166.077 60.294 166.266C60.853 166.639 61.408 166.987 61.945 167.3L61.978 167.319L61.999 167.346L64.255 170.176L64.342 170.285L64.242 170.394C63.7582 170.969 63.4218 171.653 63.262 172.387C63.1327 172.956 63.0936 173.542 63.146 174.123C63.239 175.099 63.436 175.63 63.386 175.644Z" fill="#AA6550"/>
<path d="M56.979 165.169C57.2313 165.404 57.4536 165.669 57.641 165.958C58.1952 166.714 58.6945 167.509 59.135 168.336C59.4474 168.908 59.7256 169.497 59.968 170.102C60.118 170.468 60.156 170.871 60.077 171.259C60.0148 171.474 59.8941 171.668 59.7283 171.819C59.5625 171.969 59.3581 172.071 59.138 172.112C58.6985 172.193 58.2445 172.118 57.854 171.901C57.4719 171.698 57.1148 171.451 56.79 171.165C56.1234 170.569 55.538 169.887 55.049 169.138C54.766 168.724 54.503 168.308 54.257 167.916L54.578 167.678C55.584 168.846 56.4418 170.135 57.132 171.513C57.303 171.842 57.3871 172.209 57.376 172.579C57.3674 172.765 57.3159 172.946 57.2255 173.108C57.1351 173.27 57.0082 173.409 56.8549 173.514C56.7043 173.599 56.5358 173.646 56.3632 173.653C56.1906 173.66 56.0188 173.625 55.862 173.553C55.5969 173.437 55.3524 173.279 55.138 173.085C54.5228 172.533 53.965 171.921 53.473 171.257C53.2784 171.028 53.1178 170.771 52.996 170.496C53.7138 171.341 54.4876 172.137 55.312 172.879C55.681 173.179 56.244 173.522 56.686 173.244C56.7931 173.164 56.8804 173.06 56.9413 172.94C57.0021 172.821 57.0348 172.689 57.037 172.555C57.0371 172.244 56.9587 171.938 56.809 171.666C56.112 170.33 55.2616 169.079 54.275 167.94L54.596 167.702C54.843 168.093 55.104 168.502 55.381 168.91C55.8511 169.63 56.4113 170.288 57.048 170.866C57.2996 171.149 57.6097 171.375 57.9568 171.528C58.3039 171.68 58.6799 171.756 59.059 171.749C59.2154 171.725 59.3618 171.657 59.4815 171.553C59.6012 171.45 59.6893 171.314 59.736 171.163C59.8004 170.844 59.7709 170.512 59.651 170.209C59.426 169.615 59.1692 169.033 58.882 168.466C58.4676 167.636 58.0103 166.828 57.512 166.046C57.3107 165.769 57.1325 165.476 56.979 165.169Z" fill="#AA6550"/>
<path d="M92.3089 213.577C92.428 213.765 92.513 213.973 92.5599 214.19C92.7337 214.769 92.847 215.364 92.8979 215.966C93.0781 217.975 92.6606 219.993 91.6979 221.766C91.1817 222.741 90.5332 223.639 89.7709 224.436C89.1365 225.089 88.3706 225.601 87.5239 225.936C86.9564 226.154 86.3602 226.289 85.7539 226.336C85.5334 226.367 85.3091 226.36 85.0909 226.315C85.8826 226.17 86.6599 225.956 87.4139 225.674C88.2036 225.32 88.9148 224.813 89.5059 224.181C90.227 223.396 90.8451 222.522 91.3449 221.581C92.2676 219.87 92.7073 217.939 92.6169 215.997C92.5459 214.491 92.2369 213.596 92.3089 213.577Z" fill="#AA6550"/>
<defs>
<linearGradient id="paint0_linear_2_419" x1="-9.723" y1="370.988" x2="427.275" y2="-48.1239" gradientUnits="userSpaceOnUse">
<stop stop-color="#FF315D"/>
<stop offset="1" stop-color="#F7931E"/>
</linearGradient>
<linearGradient id="paint1_linear_2_419" x1="273.108" y1="60.4352" x2="220.26" y2="239.727" gradientUnits="userSpaceOnUse">
<stop stop-color="#EEEEEE"/>
<stop offset="1" stop-color="#EEEEEE" stop-opacity="0"/>
</linearGradient>
<linearGradient id="paint2_linear_2_419" x1="22.9309" y1="63.5061" x2="102.516" y2="121.647" gradientUnits="userSpaceOnUse">
<stop stop-color="#EEEEEE"/>
<stop offset="1" stop-color="#EEEEEE" stop-opacity="0"/>
</linearGradient>
<linearGradient id="paint3_linear_2_419" x1="26.922" y1="196.965" x2="116.365" y2="196.965" gradientUnits="userSpaceOnUse">
<stop stop-color="#FF315D"/>
<stop offset="1" stop-color="#FF345B"/>
</linearGradient>
<linearGradient id="paint4_linear_2_419" x1="300.443" y1="95.0001" x2="307.414" y2="95.0001" gradientUnits="userSpaceOnUse">
<stop stop-color="#FF315D"/>
<stop offset="1" stop-color="#FF345B"/>
</linearGradient>
</defs>
</svg>
