<svg width="51" height="45" viewBox="0 0 51 45" fill="none" xmlns="http://www.w3.org/2000/svg">
<path d="M41.265 35.8249C46.3013 35.8249 50.384 31.7422 50.384 26.7059C50.384 21.6696 46.3013 17.5869 41.265 17.5869C36.2287 17.5869 32.146 21.6696 32.146 26.7059C32.146 31.7422 36.2287 35.8249 41.265 35.8249Z" fill="#F7931E"/>
<g style="mix-blend-mode:multiply" opacity="0.5">
<path d="M38.007 18.1868C39.1922 17.7588 40.4475 17.5587 41.707 17.5969C42.0528 17.6102 42.3953 17.6705 42.725 17.776C41.0023 18.0931 39.4082 18.9016 38.1346 20.1041C36.861 21.3066 35.9624 22.8518 35.547 24.5534C35.1316 26.2551 35.2172 28.0405 35.7935 29.6945C36.3698 31.3486 37.4122 32.8008 38.795 33.8759C39.9435 34.7503 41.2684 35.3645 42.678 35.6759C41.3353 35.9365 39.9483 35.8491 38.649 35.422C37.0404 34.9586 35.5944 34.0524 34.4759 32.807C33.3574 31.5615 32.6114 30.0268 32.323 28.3779C31.9565 26.6236 32.1539 24.7983 32.887 23.1629C32.966 22.9809 33.034 22.7929 33.107 22.6079C34.1726 20.6062 35.9066 19.0417 38.007 18.1868Z" fill="#F7931E"/>
</g>
<path d="M44.205 28.5239C43.768 29.1529 43.314 29.77 42.868 30.391C42.422 31.012 41.997 31.6479 41.56 32.2739C41.381 32.5309 41.199 32.5369 41.014 32.2739C40.107 30.9989 39.197 29.728 38.297 28.448C38.062 28.112 38.259 27.9949 38.582 27.9929C39.215 27.9869 39.848 27.9929 40.482 27.9879C40.482 25.7066 40.4853 23.426 40.492 21.146C40.492 20.546 40.772 20.1969 41.256 20.1809C41.77 20.1639 42.076 20.512 42.078 21.147C42.078 23.261 42.092 25.375 42.069 27.49C42.069 27.914 42.19 28.0389 42.601 28.0069C43.05 27.9817 43.4999 27.98 43.949 28.0019C44.385 28.0149 44.457 28.1579 44.205 28.5239Z" fill="#E4E7F4"/>
<path d="M44.105 35.375V35.205C43.625 35.295 43.135 35.395 42.655 35.495C42.5199 35.5247 42.3829 35.5447 42.245 35.5549C41.0571 35.7332 39.8439 35.627 38.705 35.245C37.1288 34.7916 35.7116 33.9042 34.6154 32.6842C33.5191 31.4642 32.7879 29.9606 32.505 28.345C32.1486 26.6252 32.3446 24.8368 33.065 23.235L33.275 22.695H33.075C32.035 22.685 30.975 22.6749 29.934 22.6549C29.134 22.6649 28.334 22.6749 27.545 22.6749C27.3484 22.6707 27.1567 22.6124 26.9909 22.5066C26.8251 22.4008 26.6916 22.2515 26.605 22.075C26.1111 21.2297 25.3998 20.5322 24.545 20.0549C24.115 19.8849 23.684 19.7149 23.245 19.5449C22.3516 19.3695 21.4292 19.4107 20.555 19.6649C19.603 19.9542 18.7554 20.5134 18.115 21.2749C18.025 21.3749 17.965 21.5249 17.785 21.5149C17.8031 21.567 17.802 21.624 17.7818 21.6753C17.7616 21.7267 17.7238 21.7691 17.675 21.7949C17.644 21.8649 17.605 21.925 17.575 21.985V21.995C17.5426 22.0296 17.5125 22.0663 17.485 22.105C17.4237 22.283 17.305 22.4357 17.1475 22.5388C16.99 22.642 16.8027 22.6899 16.615 22.6749C15.825 22.6949 15.035 22.6649 14.235 22.6649H11.005C10.065 22.6649 9.115 22.7149 8.175 22.6649C7.74194 22.6388 7.32139 22.5094 6.94844 22.2877C6.57549 22.0661 6.26096 21.7584 6.03102 21.3905C5.80108 21.0226 5.66244 20.6051 5.6266 20.1727C5.59077 19.7404 5.65879 19.3057 5.82503 18.9049C6.62896 16.6969 7.87425 14.6759 9.485 12.965C11.8028 10.4679 14.8157 8.72285 18.135 7.95497C19.7443 7.54615 21.4098 7.40422 23.065 7.53493C26.3054 7.72326 29.4268 8.82282 32.0698 10.7069C34.7129 12.591 36.7702 15.1831 38.005 18.185C38.025 18.235 38.055 18.295 38.075 18.355C39.238 17.9369 40.4699 17.7434 41.705 17.7849C41.9138 17.7919 42.1214 17.8188 42.325 17.865C42.325 17.865 42.325 17.855 42.335 17.865C42.4572 17.8855 42.5776 17.9155 42.695 17.955C43.1709 18.0059 43.6422 18.0929 44.105 18.215V18.0349C44.115 13.8049 44.1183 9.57499 44.115 5.34499C44.1215 4.71187 43.9991 4.08407 43.7553 3.49977C43.5114 2.91547 43.1511 2.38694 42.6965 1.94631C42.2418 1.50567 41.7023 1.1621 41.1106 0.936662C40.519 0.711228 39.8876 0.608546 39.255 0.634904H7.97499C7.51499 0.634904 7.055 0.644914 6.605 0.644914C6.585 0.764914 6.52502 0.794977 6.41402 0.834977C5.41486 1.10686 4.53882 1.71242 3.93141 2.55104C3.324 3.38966 3.0218 4.41085 3.07503 5.44496C3.07503 16.945 3.07168 28.445 3.06502 39.945C3.04375 40.9747 3.36517 41.9823 3.97877 42.8095C4.59238 43.6367 5.46343 44.2365 6.45503 44.5149C6.57503 44.5549 6.68402 44.555 6.69502 44.705C7.17502 44.705 7.644 44.715 8.11501 44.715H38.805C39.313 44.7149 39.8206 44.6849 40.325 44.625C41.2661 44.4467 42.1284 43.9803 42.793 43.2907C43.4576 42.601 43.8916 41.7219 44.035 40.7749C44.195 38.9749 44.095 37.165 44.105 35.375ZM23.065 25.815C22.9029 25.9502 22.7153 26.0514 22.5133 26.1127C22.3113 26.1739 22.0991 26.1939 21.8892 26.1715C21.6793 26.1491 21.476 26.0848 21.2915 25.9823C21.107 25.8798 20.945 25.7413 20.815 25.575C20.5542 25.2586 20.4107 24.8618 20.4088 24.4518C20.407 24.0418 20.547 23.6436 20.805 23.325C21.0882 23.0177 21.4729 22.8231 21.8883 22.7771C22.3036 22.7312 22.7215 22.837 23.065 23.075C23.295 23.222 23.4843 23.4245 23.6154 23.664C23.7465 23.9034 23.8153 24.172 23.8153 24.445C23.8153 24.7179 23.7465 24.9865 23.6154 25.226C23.4843 25.4654 23.295 25.6679 23.065 25.815Z" fill="#FF315D"/>
<path d="M6.60098 0.645947C6.58898 0.759947 6.51997 0.797836 6.41397 0.832836C5.41549 1.1061 4.54029 1.71219 3.93326 2.55073C3.32622 3.38927 3.02375 4.41004 3.07596 5.44392C3.07596 16.9446 3.07398 28.4446 3.06998 39.9439C3.04739 40.9739 3.36813 41.9822 3.98172 42.8098C4.59531 43.6374 5.46684 44.2372 6.45895 44.5148C6.57495 44.5468 6.68597 44.5539 6.69797 44.7039C5.52803 44.8038 4.34969 44.7238 3.20395 44.4669C2.32512 44.1771 1.55385 43.6295 0.990448 42.8955C0.427042 42.1614 0.0975765 41.2748 0.0449527 40.3509C0.0369527 40.1719 0.0389712 39.9918 0.0389712 39.8118C0.0389712 28.3818 0.0659517 16.9519 0.0189517 5.52192C-0.00596379 4.87059 0.104335 4.22115 0.342926 3.61457C0.581518 3.008 0.943264 2.45745 1.40524 1.99763C1.86722 1.53781 2.41944 1.17869 3.02713 0.942944C3.63482 0.707199 4.28473 0.599911 4.93594 0.62788C5.48994 0.65988 6.04598 0.641947 6.60098 0.645947Z" fill="#DD2C5B"/>
<path d="M23.069 7.53696C22.79 7.83196 22.4 7.70792 22.069 7.76792C19.0627 8.31173 16.2538 9.64072 13.9267 11.6201C11.5996 13.5995 9.83712 16.1589 8.81802 19.0389C8.68652 19.4073 8.63693 19.7998 8.6727 20.1893C8.70847 20.5788 8.82872 20.9558 9.02512 21.294C9.22151 21.6323 9.48932 21.9237 9.80984 22.1478C10.1304 22.3719 10.4959 22.5235 10.881 22.5919C10.9263 22.6082 10.9689 22.6315 11.007 22.6609C10.061 22.6659 9.11405 22.7099 8.17105 22.6679C7.73878 22.6405 7.31928 22.5103 6.9473 22.2884C6.57532 22.0665 6.26153 21.7592 6.03201 21.3918C5.8025 21.0245 5.66382 20.6077 5.62747 20.1761C5.59113 19.7445 5.65818 19.3104 5.82303 18.9099C6.62471 16.6992 7.86987 14.6759 9.48202 12.964C11.8005 10.4656 14.8151 8.71999 18.136 7.95285C19.7468 7.54688 21.413 7.40648 23.069 7.53696Z" fill="#549FFD"/>
<path d="M14.239 22.6609C14.5239 21.605 15.0247 20.6197 15.7097 19.7672C16.3948 18.9147 17.2492 18.2134 18.219 17.7079C19.7609 16.8344 21.556 16.5168 23.304 16.808C23.3645 16.8269 23.422 16.8541 23.475 16.8889C21.6979 17.2769 20.0974 18.2374 18.919 19.6229C18.3906 20.1494 17.9998 20.7979 17.781 21.511V21.5039C17.654 21.5699 17.681 21.6879 17.681 21.7989V21.7939C17.596 21.8309 17.581 21.9069 17.575 21.9859L17.484 22.1009C17.4225 22.278 17.3038 22.4295 17.1466 22.5316C16.9894 22.6337 16.8027 22.6806 16.616 22.6649C15.822 22.6899 15.03 22.6659 14.239 22.6609Z" fill="#348DEE"/>
<path d="M38.075 18.355C36.0164 19.1953 34.3178 20.7311 33.275 22.6949H33.075C32.035 22.6849 30.975 22.6749 29.934 22.6549C29.7465 21.7293 29.3344 20.8639 28.734 20.1349C27.9732 18.9913 26.8862 18.1029 25.614 17.585C25.3771 17.4585 25.1333 17.345 24.884 17.245C24.6479 17.1528 24.4073 17.0726 24.163 17.0049C23.9471 16.9079 23.7094 16.87 23.474 16.8949C23.4214 16.8604 23.3642 16.8335 23.304 16.8149C21.5555 16.5223 19.7595 16.8364 18.214 17.705C17.245 18.2133 16.3913 18.9162 15.7064 19.7697C15.0216 20.6231 14.5204 21.6088 14.234 22.6649H11.004C10.9687 22.6343 10.928 22.6106 10.884 22.595C10.4983 22.5261 10.1322 22.374 9.81112 22.1494C9.49005 21.9248 9.2217 21.6329 9.02474 21.2942C8.82778 20.9555 8.70694 20.5779 8.67055 20.1877C8.63416 19.7976 8.68307 19.4042 8.81398 19.0349C9.8404 16.1577 11.6063 13.6015 13.9339 11.6232C16.2616 9.64484 19.069 8.31412 22.074 7.76489C22.404 7.70489 22.794 7.83491 23.064 7.53491C26.3044 7.72324 29.4257 8.8228 32.0688 10.7069C34.7119 12.591 36.7692 15.1831 38.004 18.1849C38.025 18.2349 38.057 18.295 38.075 18.355Z" fill="#89C1FE"/>
<path d="M28.735 20.1349C27.9742 18.9913 26.8871 18.1029 25.615 17.585C25.378 17.4585 25.1343 17.345 24.885 17.245C24.6489 17.1528 24.4082 17.0726 24.164 17.0049C23.9481 16.9079 23.7103 16.87 23.475 16.8949C21.6965 17.2803 20.0939 18.2396 18.914 19.625C18.3876 20.1484 17.9996 20.7943 17.785 21.5049V21.5149C17.965 21.5249 18.025 21.3749 18.115 21.2749C18.7554 20.5134 19.603 19.9542 20.555 19.6649C21.4292 19.4106 22.3516 19.3695 23.245 19.5449C23.684 19.7149 24.115 19.8849 24.545 20.0549C25.3998 20.5322 26.1111 21.2297 26.605 22.0749C26.6916 22.2515 26.8251 22.4008 26.9909 22.5066C27.1567 22.6124 27.3484 22.6707 27.545 22.6749C28.335 22.6749 29.135 22.6649 29.934 22.6549C29.7467 21.7294 29.335 20.864 28.735 20.1349Z" fill="#549FFD"/>
<path d="M23.068 25.8149C22.9053 25.9503 22.717 26.0515 22.5144 26.1127C22.3118 26.1738 22.099 26.1937 21.8886 26.171C21.6781 26.1484 21.4744 26.0836 21.2895 25.9807C21.1046 25.8778 20.9422 25.7388 20.812 25.5719C20.5514 25.2567 20.4084 24.8608 20.4075 24.4518C20.4066 24.0428 20.5478 23.6463 20.807 23.33C21.0889 23.0227 21.4721 22.8276 21.8864 22.7802C22.3006 22.7328 22.718 22.8363 23.062 23.0719C23.0072 23.1503 22.9477 23.2256 22.884 23.297C22.7096 23.4637 22.5743 23.667 22.4877 23.8921C22.401 24.1172 22.3652 24.3587 22.3828 24.5992C22.4004 24.8398 22.4709 25.0737 22.5894 25.2838C22.7078 25.494 22.8713 25.6753 23.068 25.8149Z" fill="#2E3C47"/>
<path d="M23.068 25.8149C22.8713 25.6753 22.7078 25.494 22.5894 25.2838C22.4709 25.0737 22.4004 24.8398 22.3828 24.5992C22.3653 24.3586 22.401 24.1172 22.4877 23.8921C22.5743 23.6669 22.7097 23.4637 22.884 23.297C22.9477 23.2256 23.0072 23.1503 23.062 23.0719C23.2921 23.219 23.4816 23.4215 23.613 23.6609C23.7444 23.9002 23.8136 24.1687 23.8142 24.4418C23.8148 24.7148 23.7468 24.9837 23.6164 25.2236C23.486 25.4636 23.2974 25.6669 23.068 25.8149Z" fill="#3E4B5A"/>
<path d="M17.676 21.8009C17.676 21.6899 17.653 21.572 17.776 21.506C17.7959 21.5591 17.7968 21.6175 17.7786 21.6713C17.7604 21.725 17.7241 21.7708 17.676 21.8009Z" fill="#549FFD"/>
<path d="M17.573 21.9879C17.58 21.9089 17.594 21.8329 17.679 21.7959L17.573 21.9879Z" fill="#549FFD"/>
<path d="M19.703 17.099C19.992 17.764 20.284 18.429 20.569 19.099C20.6707 19.2466 20.7155 19.4259 20.695 19.6039L19.416 20.163C19.0334 19.3456 18.65 18.5283 18.266 17.7109C17.634 16.2523 17.0007 14.7933 16.366 13.334C16.185 12.917 15.993 12.5039 15.815 12.0859C15.7558 11.9917 15.718 11.8855 15.7044 11.775C15.6907 11.6645 15.7016 11.5525 15.7362 11.4467C15.7707 11.3408 15.8281 11.2439 15.9043 11.1627C15.9804 11.0816 16.0736 11.0181 16.177 10.9769C16.2738 10.9333 16.3787 10.911 16.4848 10.9114C16.5909 10.9118 16.6957 10.935 16.7921 10.9794C16.8885 11.0237 16.9742 11.0883 17.0435 11.1686C17.1129 11.2489 17.1642 11.3431 17.194 11.445C18.041 13.323 18.869 15.215 19.703 17.099Z" fill="#E1E8F7"/>
</svg>
